<svg id="Layer_1" data-name="Layer 1" xmlns="http://www.w3.org/2000/svg" viewBox="0 0 52.95 50.79"><title>люди</title><path d="M21.36,14.43a9.14,9.14,0,0,1,1-.58v1.66h8.9V13.86a9.22,9.22,0,0,1,1,.58,2.79,2.79,0,0,0,4.28-2.66,2.73,2.73,0,0,0-1.27-2,14.68,14.68,0,0,0-5.19-2,4.45,4.45,0,1,0-6.58,0,14.68,14.68,0,0,0-5.19,2,2.74,2.74,0,0,0-1.27,2,2.79,2.79,0,0,0,4.28,2.66Zm2.79-9.6A2.67,2.67,0,1,1,26.83,7.5,2.67,2.67,0,0,1,24.16,4.83ZM18.85,12a1,1,0,0,1,.44-.72,13.94,13.94,0,0,1,7.53-2,13.93,13.93,0,0,1,7.53,2,1,1,0,0,1,.44.72,1,1,0,0,1-.29.83,1,1,0,0,1-1.24.14,11.21,11.21,0,0,0-2.6-1.26l-1.18-.4v2.45H24.16V11.29l-1.18.4a11.21,11.21,0,0,0-2.6,1.26,1,1,0,0,1-1.24-.14A1,1,0,0,1,18.85,12Z" transform="translate(-0.35 -0.38)" style="fill:#3a3a3a"/><path d="M10.83,32.19A2.78,2.78,0,0,0,12.25,29,9.08,9.08,0,0,1,12,27.85l1.58.51,2.75-8.47-1.58-.51a9.4,9.4,0,0,1,.86-.78,2.79,2.79,0,0,0-1.2-4.89,2.74,2.74,0,0,0-2.32.58,14.65,14.65,0,0,0-3.46,4.33,4.41,4.41,0,0,0-2.47-2,4.46,4.46,0,1,0,.43,8.3,14.69,14.69,0,0,0,.26,5.52A2.74,2.74,0,0,0,8.4,32.24a2.79,2.79,0,0,0,2.42-.06ZM4,23.37A2.67,2.67,0,0,1,2.27,20a2.67,2.67,0,0,1,5.08,1.65h0A2.67,2.67,0,0,1,4,23.37ZM8.6,30A13.91,13.91,0,0,1,9,22.2a13.92,13.92,0,0,1,4.21-6.55.94.94,0,0,1,.61-.22l.2,0a1,1,0,0,1,.7.54,1,1,0,0,1-.25,1.22,11.21,11.21,0,0,0-2,2.08l-.74,1L14.1,21l-1.65,5.08-2.33-.76V26.6a11.22,11.22,0,0,0,.4,2.86A1,1,0,0,1,10,30.6a1,1,0,0,1-.88,0A1,1,0,0,1,8.6,30Z" transform="translate(-0.35 -0.38)" style="fill:#3a3a3a"/><path d="M23.28,42.15A9.16,9.16,0,0,1,22.12,42l1-1.34-7.2-5.23-1,1.34a9.24,9.24,0,0,1-.48-1.06,2.79,2.79,0,0,0-5-.37,2.74,2.74,0,0,0-.17,2.38,14.66,14.66,0,0,0,3,4.63,4.44,4.44,0,0,0,.91,8.79,4.52,4.52,0,0,0,.71-.06,4.42,4.42,0,0,0,3.71-4.87A14.7,14.7,0,0,0,23,47.71h.18a2.74,2.74,0,0,0,2-.9,2.79,2.79,0,0,0-1.9-4.67Zm-7.9,6.13a2.67,2.67,0,1,1-2.58-4.21,2.84,2.84,0,0,1,.42,0,2.67,2.67,0,0,1,2.16,4.24Zm8.49-2.66a.94.94,0,0,1-.78.32,13.92,13.92,0,0,1-7.25-2.82,13.93,13.93,0,0,1-4.93-6h0a1,1,0,0,1,.06-.84,1,1,0,0,1,.72-.5h.16a1,1,0,0,1,.92.62,11.25,11.25,0,0,0,1.36,2.55l.72,1,1.44-2,4.32,3.14-1.44,2,1.18.37a11.18,11.18,0,0,0,2.85.5,1,1,0,0,1,.92.84A1,1,0,0,1,23.87,45.62Z" transform="translate(-0.35 -0.38)" style="fill:#3a3a3a"/><path d="M41.35,42.37a14.67,14.67,0,0,0,3-4.63,2.74,2.74,0,0,0-.17-2.38,2.79,2.79,0,0,0-5,.37,9.11,9.11,0,0,1-.48,1.06l-1-1.34-7.2,5.23,1,1.34a9.33,9.33,0,0,1-1.16.13,2.79,2.79,0,0,0-1.9,4.67,2.74,2.74,0,0,0,2,.9h.18A14.67,14.67,0,0,0,36,46.24a4.42,4.42,0,0,0,.81,3.09h0a4.42,4.42,0,0,0,2.91,1.78,4.52,4.52,0,0,0,.71.06,4.44,4.44,0,0,0,.91-8.79ZM30.56,45.94a.93.93,0,0,1-.78-.32,1,1,0,0,1-.25-.84,1,1,0,0,1,.92-.84,11.21,11.21,0,0,0,2.85-.5l1.18-.37-1.44-2,4.32-3.14,1.44,2,.72-1a11.21,11.21,0,0,0,1.36-2.55A1,1,0,0,1,42,35.74a1,1,0,0,1,.72.5,1,1,0,0,1,.06.84,13.93,13.93,0,0,1-4.93,6A13.91,13.91,0,0,1,30.56,45.94Zm12.51,1.2a2.67,2.67,0,1,1-.48-2A2.66,2.66,0,0,1,43.07,47.13Z" transform="translate(-0.35 -0.38)" style="fill:#3a3a3a"/><path d="M53.08,19.45a4.46,4.46,0,0,0-5.61-2.86,4.41,4.41,0,0,0-2.47,2,14.68,14.68,0,0,0-3.46-4.33,2.74,2.74,0,0,0-2.32-.58A2.79,2.79,0,0,0,38,18.6a9.17,9.17,0,0,1,.86.78l-1.58.51,2.75,8.47,1.58-.51A8.79,8.79,0,0,1,41.4,29a2.79,2.79,0,0,0,2.7,3.5,2.81,2.81,0,0,0,1.15-.25,2.74,2.74,0,0,0,1.53-1.83h0A14.67,14.67,0,0,0,47,24.89a4.42,4.42,0,0,0,1.8.39,4.46,4.46,0,0,0,4-2.43A4.42,4.42,0,0,0,53.08,19.45ZM45.06,30a1,1,0,0,1-.54.64,1,1,0,0,1-.88,0,1,1,0,0,1-.52-1.13,11.19,11.19,0,0,0,.4-2.86V25.36l-2.33.76L39.55,21l2.33-.76-.74-1a11.19,11.19,0,0,0-2-2.08A1,1,0,0,1,38.89,16a1,1,0,0,1,.7-.54,1,1,0,0,1,.82.2,13.92,13.92,0,0,1,4.21,6.55A13.94,13.94,0,0,1,45.06,30ZM51.23,22a2.67,2.67,0,1,1-2.38-3.88A2.68,2.68,0,0,1,51.39,20,2.65,2.65,0,0,1,51.23,22Z" transform="translate(-0.35 -0.38)" style="fill:#3a3a3a"/></svg>