<?xml version="1.0" encoding="UTF-8"?>
<svg width="17px" height="21px" viewBox="0 0 17 21" version="1.1" xmlns="http://www.w3.org/2000/svg" xmlns:xlink="http://www.w3.org/1999/xlink">
    <!-- Generator: sketchtool 48.2 (47327) - http://www.bohemiancoding.com/sketch -->
    <title>9784A0A7-679F-4A47-B4B7-99E5B8C2E753-2654-000041CAB5EEB83D</title>
    <desc>Created with sketchtool.</desc>
    <defs></defs>
    <g id="1366_dashboard" stroke="none" stroke-width="1" fill="none" fill-rule="evenodd" transform="translate(-1063.000000, -29.000000)">
        <g id="header" fill-rule="nonzero" stroke="#B7C3D4">
            <g id="Group-16">
                <g transform="translate(1063.000000, 18.000000)">
                    <g id="alarm-bell" transform="translate(0.000000, 11.000000)">
                        <path d="M15.7120077,17.0214406 C15.7181469,17.0324647 15.7246677,17.0429638 15.7314741,17.0530022 C15.7597851,17.0913159 15.7597851,17.0913159 15.7808521,17.1128921 L15.7120077,17.0214406 Z M15.702982,17.009451 L15.6971668,17.0017262 C14.9692459,15.6871145 14.5037962,14.0460315 14.2415523,12.239964 C14.0841316,11.1558116 14.02648,10.2106476 14.02648,9.68381333 C14.02648,9.64478667 14.02648,9.64478667 14.0265093,9.6135489 C14.003073,7.44988362 12.7749748,5.49582903 10.8740608,4.5086082 L10.6045067,4.36861792 L10.6045067,4.06488 L10.6045067,2.88955939 C10.6044891,2.20124967 9.41072559,1.37850952 8.28829956,1.37850952 C7.17902921,1.37850952 6.03754667,2.18982186 6.03754667,2.88954667 L6.03754667,4.25794499 L5.74597378,4.39166001 C3.69009333,5.33448465 2.33416,7.39166802 2.33416,9.68381333 C2.33416,10.2092046 2.27584829,11.1630978 2.11821662,12.2496526 C1.85553979,14.0602833 1.39019252,15.6992861 0.681375358,16.9661159 C0.485418443,17.3979904 0.474181046,17.6554789 0.608523881,17.8671556 C0.710343892,18.0459247 0.955308702,18.1643853 1.34938667,18.2010933 L6.11777284,18.2010933 L6.16279849,18.6513404 C6.26583505,19.6816845 7.13239113,20.4737333 8.16730667,20.4737333 C9.2037064,20.4737333 10.0687098,19.6825844 10.1718138,18.6513507 L10.2168311,18.2010933 L10.6693333,18.2010933 L14.9621311,18.201627 C15.367695,18.1828735 15.6171082,18.0585447 15.7390936,17.8456457 C15.869576,17.6411697 15.869576,17.3840606 15.7044639,17.0163686 L15.702982,17.009451 Z M15.701003,17.000213 L15.6605867,16.8115467 L15.6605869,16.8120581 L15.6605876,16.8124893 C15.660744,16.8889597 15.6767787,16.9498236 15.701003,17.000213 Z M7.3711652,3.90274667 C7.36591575,3.90371432 7.35959658,3.90487889 7.35095003,3.90647238 C6.98683907,3.97358707 6.82586369,4.00791016 6.65331431,4.06064609 L6.00965614,4.2573661 L6.00717673,3.58432193 L6.0048,2.93823242 C6.0048,2.04102332 7.05442011,1.29845619 8.30187988,1.29845619 C9.5675406,1.29845619 10.6585333,2.02434253 10.6585333,2.93823242 L10.6585333,4.35013522 L10.0015316,4.13284426 C9.72248996,4.04055648 9.41923557,3.9688759 9.10545813,3.92172931 C8.90311531,3.88746724 8.81874984,3.87672 8.73016,3.87672 C8.69114667,3.87672 8.69114667,3.87672 8.62848,3.87672 L8.52863228,3.86664901 C8.46764492,3.85421976 8.38785948,3.85069333 8.19333333,3.85069333 C8.03504838,3.85069333 7.97278622,3.8538656 7.91006105,3.86664901 L7.81021333,3.87672 C7.7712,3.87672 7.7712,3.87672 7.70853333,3.87672 C7.69197579,3.87672 7.66564208,3.87902629 7.59936274,3.88654604 L7.59927454,3.88655605 C7.49362431,3.89854263 7.44560106,3.90274667 7.37744,3.90274667 C7.37501527,3.90274667 7.37295249,3.90274667 7.3711652,3.90274667 Z M8.19096,20.5277867 C7.16871427,20.5277867 6.3111291,19.7800514 6.13974049,18.7834637 L6.03917894,18.19872 L10.3427411,18.19872 L10.2421795,18.7834637 C10.0707924,19.7800429 9.213187,20.5277867 8.19096,20.5277867 Z M15.8458663,17.842275 L15.8415411,17.8511385 C15.7064292,18.1212238 15.4571968,18.2077623 15.0112533,18.2551467 L6.14770667,18.2551467 L1.34603046,18.252576 C0.930364686,18.210263 0.678210014,18.1269421 0.540287231,17.8509551 C0.425289315,17.6208413 0.461413652,17.3521745 0.625147445,16.9512817 C1.33236084,15.6658022 1.80054068,14.0513191 2.0690944,12.2802724 C2.23500828,11.1861106 2.29904,10.2095837 2.29904,9.68381333 C2.29904,7.25041783 3.78662506,5.09745314 6.01223323,4.21196615 C6.74682191,3.92346171 7.50887534,3.79424 8.35815577,3.79457168 C9.16017138,3.82379904 9.93721215,4.00024781 10.6387754,4.32234764 C12.7408221,5.25923418 14.1065067,7.34515091 14.1065067,9.68378667 C14.1065067,9.72281333 14.1065067,9.72281333 14.1065067,9.75946667 C14.1065067,10.4033356 14.1833135,11.4513484 14.3619624,12.552408 C14.6316744,14.2147125 15.0862536,15.7293441 15.7852337,17.0125023 C15.917002,17.3544986 15.9524737,17.6182311 15.8458663,17.842275 Z" id="Shape"></path>
                    </g>
                </g>
            </g>
        </g>
    </g>
</svg>