<?xml version="1.0" encoding="utf-8"?>
<!-- Generator: Adobe Illustrator 20.1.0, SVG Export Plug-In . SVG Version: 6.00 Build 0)  -->
<svg version="1.1" id="Layer_1" xmlns="http://www.w3.org/2000/svg" xmlns:xlink="http://www.w3.org/1999/xlink" x="0px" y="0px"
	 viewBox="0 0 22.5 22.5" style="enable-background:new 0 0 22.5 22.5;" xml:space="preserve">
<style type="text/css">
	.st0{fill:#FFFFFF;}
</style>
<path class="st0" d="M20.4,9.4c-0.9,0-1.7,0.7-1.7,1.7s0.7,1.7,1.7,1.7c0.9,0,1.7-0.7,1.7-1.7S21.4,9.4,20.4,9.4z M15.8,4.8
	c-0.9,0-1.7,0.7-1.7,1.7s0.7,1.7,1.7,1.7c0.9,0,1.7-0.7,1.7-1.7S16.7,4.8,15.8,4.8z M15.8,9.4c-0.9,0-1.7,0.7-1.7,1.7
	s0.7,1.7,1.7,1.7c0.9,0,1.7-0.7,1.7-1.7S16.7,9.4,15.8,9.4z M15.8,14.1c-0.9,0-1.7,0.7-1.7,1.7c0,0.9,0.7,1.7,1.7,1.7
	c0.9,0,1.7-0.7,1.7-1.7C17.4,14.8,16.7,14.1,15.8,14.1z M11.1,0.1c-0.9,0-1.7,0.7-1.7,1.7s0.7,1.7,1.7,1.7c0.9,0,1.7-0.7,1.7-1.7
	S12,0.1,11.1,0.1z M11.1,4.8c-0.9,0-1.7,0.7-1.7,1.7s0.7,1.7,1.7,1.7c0.9,0,1.7-0.7,1.7-1.7S12,4.8,11.1,4.8z M11.1,9.4
	c-0.9,0-1.7,0.7-1.7,1.7s0.7,1.7,1.7,1.7c0.9,0,1.7-0.7,1.7-1.7S12,9.4,11.1,9.4z M11.1,14.1c-0.9,0-1.7,0.7-1.7,1.7
	c0,0.9,0.7,1.7,1.7,1.7c0.9,0,1.7-0.7,1.7-1.7S12,14.1,11.1,14.1z M11.1,18.8c-0.9,0-1.7,0.7-1.7,1.7c0,0.9,0.7,1.7,1.7,1.7
	c0.9,0,1.7-0.7,1.7-1.7C12.8,19.5,12,18.8,11.1,18.8z M6.4,0.1c-0.9,0-1.6,0.7-1.6,1.7s0.7,1.6,1.6,1.6s1.7-0.7,1.7-1.7
	S7.4,0.1,6.4,0.1z M6.4,4.8c-0.9,0-1.7,0.7-1.7,1.7s0.8,1.6,1.7,1.6s1.7-0.7,1.7-1.7S7.4,4.8,6.4,4.8z M6.4,14.1
	c-0.9,0-1.7,0.7-1.7,1.7c0,0.9,0.7,1.7,1.7,1.7c0.9,0,1.7-0.7,1.7-1.7S7.4,14.1,6.4,14.1z M6.4,18.8c-0.9,0-1.7,0.7-1.7,1.7
	c0,0.9,0.7,1.7,1.7,1.7c0.9,0,1.7-0.7,1.7-1.7C8.1,19.5,7.4,18.8,6.4,18.8z M1.8,0.1c-0.9,0-1.7,0.7-1.7,1.7s0.7,1.7,1.7,1.7
	c0.9-0.1,1.6-0.8,1.6-1.7S2.7,0.1,1.8,0.1z M1.8,18.8c-0.9,0-1.7,0.7-1.7,1.7c0,0.9,0.7,1.7,1.7,1.7c0.9-0.1,1.6-0.8,1.6-1.8
	C3.4,19.5,2.7,18.8,1.8,18.8z"/>
</svg>
