<?xml version="1.0" encoding="UTF-8"?>
<svg width="12px" height="12px" viewBox="0 0 12 12" version="1.1" xmlns="http://www.w3.org/2000/svg" xmlns:xlink="http://www.w3.org/1999/xlink">
    <!-- Generator: sketchtool 49.1 (51147) - http://www.bohemiancoding.com/sketch -->
    <title>FC81945E-86E4-4AE1-A74D-623891147E9D</title>
    <desc>Created with sketchtool.</desc>
    <defs></defs>
    <g id="2)-Dashboard" stroke="none" stroke-width="1" fill="none" fill-rule="evenodd">
        <g id="1366_admin_bounty-reward_quests_add" transform="translate(-426.000000, -867.000000)" fill="#B7C3D4" fill-rule="nonzero">
            <g id="personal-info" transform="translate(376.000000, 197.000000)">
                <g id="Group-9" transform="translate(30.000000, 512.000000)">
                    <g id="Group-3" transform="translate(0.000000, 149.000000)">
                        <g id="icon/attach" transform="translate(20.000000, 9.000000)">
                            <path d="M11.1182456,4.38509942 C10.9228304,4.19073684 10.6068772,4.19160234 10.4125146,4.38699415 L4.41373099,10.4182222 C3.63546199,11.1964912 2.3714386,11.1964912 1.5917193,10.4171696 C0.812584795,9.63763743 0.812584795,8.37361404 1.59181287,7.59438596 L7.76816374,1.38559064 C8.25405848,0.899719298 9.04402339,0.899719298 9.53132164,1.38664327 C10.0184795,1.87380117 10.0184795,2.66367251 9.53120468,3.15097076 L4.41466667,8.26746199 C4.41433918,8.26778947 4.41405848,8.26816374 4.41373099,8.26849123 C4.21880702,8.46233918 3.90378947,8.46208187 3.70926316,8.26755556 C3.51440936,8.07270175 3.51440936,7.75688889 3.70926316,7.56203509 L6.17897076,5.09181287 C6.37382456,4.89691228 6.37380117,4.58093567 6.17890058,4.38608187 C5.984,4.19122807 5.66802339,4.19125146 5.47316959,4.38615205 L3.00348538,6.85632749 C2.41890058,7.44091228 2.41890058,8.38865497 3.00353216,8.97326316 C3.58814035,9.55787135 4.53588304,9.55787135 5.12051462,8.97326316 C5.12119298,8.9725848 5.12173099,8.97185965 5.12238596,8.97118129 L10.2369123,3.85665497 C11.1139649,2.97960234 11.1139649,1.55780117 10.2369123,0.680748538 C9.35974269,-0.195789474 7.93803509,-0.195789474 7.06149708,0.680748538 L0.885146199,6.88959064 C-0.282900585,8.05763743 -0.282900585,9.9534269 0.885988304,11.1229006 C2.05564912,12.2919532 3.95146199,12.2919532 5.12042105,11.1229942 L11.1201637,5.09083041 C11.3145029,4.8954152 11.3136374,4.57946199 11.1182456,4.38509942 Z" id="Shape"></path>
                        </g>
                    </g>
                </g>
            </g>
        </g>
    </g>
</svg>