<?xml version="1.0" encoding="utf-8"?>
<!-- Generator: Adobe Illustrator 21.1.0, SVG Export Plug-In . SVG Version: 6.00 Build 0)  -->
<svg version="1.1" id="Layer_1" xmlns="http://www.w3.org/2000/svg" xmlns:xlink="http://www.w3.org/1999/xlink" x="0px" y="0px"
	 viewBox="0 0 42.5 42.5" style="enable-background:new 0 0 42.5 42.5;" xml:space="preserve">
<style type="text/css">
	.st0{fill:#1C76BC;}
	.st1{fill:#FFFFFF;}
</style>
<g>
	<circle class="st0" cx="21.3" cy="21.3" r="15.8"/>
	<path class="st1" d="M20,13.9l-4.5,4.5c-0.3,0.3-0.3,0.7,0,1c0.3,0.3,0.7,0.3,1,0l3.3-3.3v12.1c0,0.4,0.3,0.7,0.7,0.7
		s0.7-0.3,0.7-0.7V16l3.3,3.3c0.3,0.3,0.7,0.3,1,0c0.1-0.1,0.2-0.3,0.2-0.5s-0.1-0.4-0.2-0.5L21,13.8C20.8,13.6,20.3,13.6,20,13.9
		L20,13.9z"/>
</g>
</svg>
