<?xml version="1.0" encoding="utf-8"?>
<!-- Generator: Adobe Illustrator 21.1.0, SVG Export Plug-In . SVG Version: 6.00 Build 0)  -->
<svg version="1.1" id="Layer_1" xmlns="http://www.w3.org/2000/svg" xmlns:xlink="http://www.w3.org/1999/xlink" x="0px" y="0px"
	 viewBox="0 0 28.3 28.3" style="enable-background:new 0 0 28.3 28.3;" xml:space="preserve">
<style type="text/css">
	.st0{fill:#FFFFFF;}
</style>
<g>
	<g>
		<g>
			<path class="st0" d="M13.2,20.6c-1.1,0-2,0.9-2,2s0.9,2,2,2s2-0.9,2-2S14.3,20.6,13.2,20.6z M13.2,23.4c-0.4,0-0.8-0.3-0.8-0.8
				c0-0.4,0.3-0.8,0.8-0.8c0.4,0,0.8,0.3,0.8,0.8C13.9,23,13.6,23.4,13.2,23.4z"/>
			<path class="st0" d="M20.5,20.6c-1.1,0-2,0.9-2,2s0.9,2,2,2s2-0.9,2-2S21.6,20.6,20.5,20.6z M20.5,23.4c-0.4,0-0.8-0.3-0.8-0.8
				c0-0.4,0.3-0.8,0.8-0.8c0.4,0,0.8,0.3,0.8,0.8C21.3,23,20.9,23.4,20.5,23.4z"/>
			<path class="st0" d="M10.5,19.6L10.5,19.6L10.5,19.6z"/>
			<path class="st0" d="M22.7,16.4C22.7,16.4,22.7,16.3,22.7,16.4C22.7,16.3,22.7,16.3,22.7,16.4c0.1-0.1,0.1-0.1,0.1-0.1
				s0-0.1,0.1-0.1l2.8-7.3c0.2-0.5,0-1-0.4-1.2l0,0c-0.3-0.2-0.6-0.3-0.9-0.3H9l-0.8-3C8.1,4,7.7,3.7,7.3,3.7H3.5
				C3,3.7,2.6,4,2.6,4.4S3,5.3,3.5,5.3l3.3,0.1l3.8,14.3h12.1c0.6,0,1.1-0.3,1.1-0.8c0-0.4-0.5-0.8-1.1-0.8H11.8l-0.4-1.4H22
				C22.3,16.6,22.5,16.5,22.7,16.4z"/>
			<path class="st0" d="M11.1,15.3L11,14.8c0-0.1-0.1-0.2-0.1-0.3L9.3,8.8h14.9l-2.5,6.4L11.1,15.3L11.1,15.3z"/>
		</g>
	</g>
</g>
</svg>
