<?xml version="1.0" encoding="utf-8"?>
<!-- Generator: Adobe Illustrator 21.0.2, SVG Export Plug-In . SVG Version: 6.00 Build 0)  -->
<svg version="1.1" id="Слой_1" xmlns="http://www.w3.org/2000/svg" xmlns:xlink="http://www.w3.org/1999/xlink" x="0px" y="0px"
	 viewBox="0 0 12 12" style="enable-background:new 0 0 12 12;" xml:space="preserve">
<style type="text/css">
	.st0{fill:#B7C3D4;}
</style>
<title>B6E9DDD7-B299-4C03-8D48-6E1715A81717</title>
<desc>Created with sketchtool.</desc>
<g id="_x32__x29_-Dashboard">
	<g id="_x31_366_x5F_admin_x5F_dashboard_x5F_tkx-editing" transform="translate(-579.000000, -149.000000)">
		<g id="TKX" transform="translate(311.000000, 130.000000)">
			<g id="save-changes" transform="translate(239.000000, 15.000000)">
				<g id="icon_x2F_cancel" transform="translate(25.000000, 0.000000)">
					<g id="close" transform="translate(4.000000, 4.000000)">
						<path id="Combined-Shape" class="st0" d="M6.7,6l5.2,5.2c0.2,0.2,0.2,0.5,0,0.7C11.8,12,11.6,12,11.5,12s-0.2,0-0.3-0.1L6,6.7
							l-5.2,5.2C0.7,12,0.6,12,0.5,12s-0.2,0-0.3-0.1c-0.2-0.2-0.2-0.5,0-0.7L5.3,6L0.1,0.8C0,0.6,0,0.3,0.1,0.1
							C0.3,0,0.6,0,0.8,0.1L6,5.3l5.2-5.2c0.2-0.2,0.5-0.2,0.7,0c0.2,0.2,0.2,0.5,0,0.7L6.7,6z"/>
					</g>
				</g>
			</g>
		</g>
	</g>
</g>
</svg>
