<?xml version="1.0" encoding="utf-8"?>
<!-- Generator: Adobe Illustrator 21.1.0, SVG Export Plug-In . SVG Version: 6.00 Build 0)  -->
<svg version="1.1" id="Layer_1" xmlns="http://www.w3.org/2000/svg" xmlns:xlink="http://www.w3.org/1999/xlink" x="0px" y="0px"
	 viewBox="0 0 28.3 28.3" style="enable-background:new 0 0 28.3 28.3;" xml:space="preserve">
<style type="text/css">
	.st0{fill:#13BCEF;stroke:#1C76BC;stroke-miterlimit:10;}
</style>
<g>
	<path class="st0" d="M14.1,4.5c-5.3,0-9.6,4.3-9.6,9.6s4.3,9.6,9.6,9.6s9.6-4.3,9.6-9.6S19.5,4.5,14.1,4.5L14.1,4.5z M14.1,23
		c-4.9,0-8.9-4-8.9-8.9s4-8.9,8.9-8.9s8.9,4,8.9,8.9S19.1,23,14.1,23L14.1,23z"/>
	<path class="st0" d="M14.1,6.4c-0.2,0-0.3,0.1-0.3,0.3V14H9.1c-0.2,0-0.3,0.1-0.3,0.3s0.1,0.3,0.3,0.3h5.1c0.2,0,0.3-0.1,0.3-0.3
		V6.7C14.5,6.6,14.4,6.4,14.1,6.4L14.1,6.4z"/>
</g>
</svg>
