<?xml version="1.0" encoding="utf-8"?>
<!-- Generator: Adobe Illustrator 21.1.0, SVG Export Plug-In . SVG Version: 6.00 Build 0)  -->
<svg version="1.1" id="Layer_1" xmlns="http://www.w3.org/2000/svg" xmlns:xlink="http://www.w3.org/1999/xlink" x="0px" y="0px"
	 viewBox="0 0 226.8 113.4" style="enable-background:new 0 0 226.8 113.4;" xml:space="preserve">
<style type="text/css">
	.st0{fill:#1C76BC;}
</style>
<g>
	<g>
		<g>
			<path class="st0" d="M19.6,107.8c-0.7,0.1-1.4,0.1-2.3,0.1c-1.6,0-2.8-0.2-3.7-0.7s-1.5-1.2-1.8-2.3c-0.4-1.1-0.5-2.6-0.5-4.5
				c0-2,0.2-3.5,0.6-4.6c0.4-1.1,1-1.8,2-2.3s2.2-0.7,3.9-0.7c0.6,0,1.3,0.1,2.1,0.2c0.7,0.1,1.3,0.3,1.6,0.4L21,96.6
				c-0.5-0.1-1-0.2-1.6-0.3c-0.6-0.1-1.1-0.1-1.5-0.1c-0.9,0-1.4,0.1-1.8,0.3c-0.3,0.2-0.5,0.7-0.5,1.3v6.4c0.8,0.2,1.4,0.2,2,0.2
				s1.3,0,1.9-0.1s1.2-0.2,1.7-0.4l0.3,3.4C20.9,107.5,20.3,107.7,19.6,107.8z"/>
			<path class="st0" d="M23.5,95.8c0.4-1.1,1.1-1.8,2-2.3s2.3-0.7,4-0.7s3.1,0.2,4,0.7s1.6,1.2,2,2.3c0.4,1.1,0.6,2.6,0.6,4.6
				s-0.2,3.5-0.6,4.6c-0.4,1.1-1.1,1.8-2,2.3s-2.3,0.7-4,0.7s-3.1-0.2-4-0.7s-1.6-1.2-2-2.3c-0.4-1.1-0.6-2.6-0.6-4.6
				S23.1,96.9,23.5,95.8z M30,104.5c0.7,0,1.2-0.1,1.4-0.3c0.3-0.2,0.4-0.5,0.4-1v-6.8h-2.7c-0.7,0-1.2,0.1-1.4,0.3
				c-0.3,0.2-0.4,0.5-0.4,1v6.8H30z"/>
			<path class="st0" d="M39,93.2h5.2l2.1,8.1h0.2l2.1-8.1h5.2l0.9,14.4h-4l-0.5-8H50l-2,8h-3.1l-2.1-8h-0.1l-0.5,8h-4L39,93.2z"/>
			<path class="st0" d="M57.5,93.2h5.2l2.1,8.1H65l2.1-8.1h5.2l0.9,14.4h-4l-0.5-8h-0.2l-2,8h-3.1l-2.1-8h-0.1l-0.5,8h-4L57.5,93.2z
				"/>
			<path class="st0" d="M77.7,107.5c-0.9-0.3-1.5-0.9-1.8-1.6s-0.5-1.9-0.5-3.4v-9.3h4v11.3h2.2c0.6,0,1,0,1.3-0.1s0.5-0.2,0.6-0.4
				c0.1-0.2,0.2-0.4,0.2-0.8v-10h4v9.2c0,1.5-0.2,2.6-0.5,3.4c-0.4,0.8-1,1.3-1.8,1.6c-0.9,0.3-2.1,0.5-3.8,0.5
				C79.8,107.9,78.5,107.8,77.7,107.5z"/>
			<path class="st0" d="M90.3,93.2h4l3.7,6c0.2,0.4,0.4,0.6,0.4,0.9c0.1,0.2,0.1,0.5,0.1,0.7h0.1v-7.6h4v14.4h-4l-3.7-6
				c-0.2-0.4-0.4-0.7-0.4-0.9c-0.1-0.2-0.1-0.5-0.1-0.7h-0.1v7.6h-4C90.3,107.6,90.3,93.2,90.3,93.2z"/>
			<path class="st0" d="M109.7,93.2v14.4h-4V93.2H109.7z"/>
			<path class="st0" d="M118.6,107.6h-4v-11h-3.4v-3.4H122v3.3h-3.4V107.6L118.6,107.6z"/>
			<path class="st0" d="M134.8,93.2l-4.3,9.7v4.7h-4v-4.7l-4.3-9.7h4.3l2,5.4l2-5.4H134.8z"/>
			<path class="st0" d="M149.1,107.8c-0.7,0.1-1.4,0.1-2.3,0.1c-1.6,0-2.8-0.2-3.7-0.7s-1.5-1.2-1.8-2.3c-0.4-1.1-0.5-2.6-0.5-4.5
				c0-2,0.2-3.5,0.6-4.6c0.4-1.1,1-1.8,2-2.3s2.2-0.7,3.9-0.7c0.6,0,1.3,0.1,2.1,0.2c0.7,0.1,1.3,0.3,1.6,0.4l-0.5,3.2
				c-0.5-0.1-1-0.2-1.6-0.3c-0.6-0.1-1.1-0.1-1.5-0.1c-0.9,0-1.4,0.1-1.8,0.3c-0.3,0.2-0.5,0.7-0.5,1.3v6.4c0.8,0.2,1.4,0.2,2,0.2
				s1.3,0,1.9-0.1s1.2-0.2,1.7-0.4l0.3,3.4C150.4,107.5,149.7,107.7,149.1,107.8z"/>
			<path class="st0" d="M156.9,104.2h5.6v3.3h-9.7V93.2h9.8l-0.5,3.3h-5.2v2.4h4.8v3h-4.8L156.9,104.2L156.9,104.2z"/>
			<path class="st0" d="M164.9,93.2h4l3.7,6c0.2,0.4,0.4,0.6,0.4,0.9c0.1,0.2,0.1,0.5,0.1,0.7h0.1v-7.6h4v14.4h-4l-3.7-6
				c-0.2-0.4-0.4-0.7-0.4-0.9c-0.1-0.2-0.1-0.5-0.1-0.7h-0.1v7.6h-4V93.2z"/>
			<path class="st0" d="M186.4,107.6h-4v-11H179v-3.4h10.8v3.3h-3.4L186.4,107.6L186.4,107.6z"/>
			<path class="st0" d="M195.4,104.2h5.6v3.3h-9.7V93.2h9.8l-0.5,3.3h-5.2v2.4h4.8v3h-4.8L195.4,104.2L195.4,104.2z"/>
			<path class="st0" d="M211.1,107.6l-2.1-4.4h-1.7v4.4h-4V93.2h6.4c1.9,0,3.2,0.4,4,1.2c0.8,0.8,1.2,2.1,1.2,4c0,1-0.1,1.9-0.4,2.6
				s-0.8,1.2-1.4,1.6l2.4,5L211.1,107.6L211.1,107.6z M207.3,100.2h2.3c0.4,0,0.7-0.1,0.8-0.2c0.2-0.1,0.2-0.4,0.2-0.8v-1.7
				c0-0.4-0.1-0.6-0.2-0.8s-0.4-0.2-0.8-0.2h-2.3V100.2z"/>
		</g>
	</g>
	<g>
		<g>
			<g>
				<path class="st0" d="M96.5,24.7v-4.2c-12,6.1-20.2,18.6-20.2,32.9c0,6.3,1.6,12.3,4.4,17.5c0.5,0.9,1.6,1.2,2.5,0.7
					s1.2-1.6,0.7-2.5c-2.5-4.7-4-10.1-4-15.8c0-9.2,3.7-17.5,9.7-23.5C91.7,27.9,94,26.1,96.5,24.7z"/>
				<path class="st0" d="M132.2,21.8v4.4c1.6,1.1,3.1,2.4,4.5,3.8c6,6,9.7,14.3,9.7,23.5c0,5.7-1.4,11.1-4,15.8
					c-0.5,0.9-0.1,2,0.7,2.5c0.3,0.1,0.6,0.2,0.9,0.2c0.7,0,1.3-0.3,1.6-1c2.8-5.2,4.4-11.2,4.4-17.5C150.1,40,143,28.2,132.2,21.8z
					"/>
			</g>
			<g>
				<path class="st0" d="M112.7,17l1.9-11.6L90.9,15.5l11.4,5l0,0v3.4c4.2-2.4,8.3-3.7,12.3-3.7l0,0v-3.4h-1.9
					C112.7,16.8,112.7,17,112.7,17z"/>
				<path class="st0" d="M138.4,15.5L114.7,5.4l1.9,11.6h-2v3.4c4.2-0.1,8.3,1.2,12.3,3.7v-3.9l0,0l0,0L138.4,15.5z"/>
			</g>
		</g>
		<path class="st0" d="M99.8,80.8h-1.1c-0.7,0-1.3-0.5-1.4-1.2c-0.1-0.5-0.1-0.9,0.3-1.4c0.3-1.2,0.9-3,1-3.8
			c0.1-0.3,0.1-0.6,0.2-0.9c0.4-1.4,0.7-2.6-2-5.4L96.7,68l-1.2-1.4c-4.3-4.5-5.1-8.8-5.1-14.4C90.4,39.4,101,29,114,29
			s23.6,10.4,23.6,23.2c0,12-9.6,22.2-21.8,23.1c-0.1,0-0.2,0-0.5,0c-6.6-0.2-8.8,0.6-9.5,1c-3.9,2.2-5.3,3.1-5.8,3.6l0,0L99.8,80.8
			z M98.9,66.1c3.5,3.7,3.2,5.9,2.7,8.1c-0.1,0.2-0.1,0.5-0.2,0.7c0,0.2-0.1,0.4-0.1,0.7c0.9-0.5,1.9-1.1,3.2-1.8
			c1.9-1.1,5.6-1.5,11-1.3c0.1,0,0.2,0,0.2,0c10.7-0.8,19.1-9.7,19.1-20.3c0-11.2-9.3-20.3-20.8-20.3c-11.4,0-20.8,9.1-20.8,20.3
			c0,5.9,1.1,9.1,4.4,12.5l0.1,0.1L98.9,66.1z"/>
		<polygon class="st0" points="117.2,62.8 106.6,53.1 85.7,62.8 108.6,42 119.6,51.7 140.2,42 		"/>
	</g>
</g>
</svg>
