<?xml version="1.0" encoding="UTF-8"?>
<svg width="16px" height="16px" viewBox="0 0 16 16" version="1.1" xmlns="http://www.w3.org/2000/svg" xmlns:xlink="http://www.w3.org/1999/xlink">
    <!-- Generator: sketchtool 49.1 (51147) - http://www.bohemiancoding.com/sketch -->
    <title>45C3FA30-3003-41BA-8814-78E1301AFBF6-709-0000044FA45500E3</title>
    <desc>Created with sketchtool.</desc>
    <defs></defs>
    <g id="2)-Dashboard" stroke="none" stroke-width="1" fill="none" fill-rule="evenodd">
        <g id="1366_admin_whitelist" transform="translate(-981.000000, -828.000000)" fill="#8F95A5" fill-rule="nonzero">
            <g id="submissions" transform="translate(310.000000, 212.000000)">
                <g id="table-line/admin-dashboard/whitelist-copy-7" transform="translate(30.000000, 607.000000)">
                    <g id="Group">
                        <g id="icon/edit-bold" transform="translate(641.000000, 9.000000)">
                            <path d="M7.49164969,4.74706939 L5.94378819,6.2980898 C5.37352342,6.86951837 4.8,7.44094694 4.23299389,8.01890612 C4.099389,8.15604898 3.99837067,8.33890612 3.9592668,8.51849796 C3.75397149,9.46217143 3.55519348,10.4058449 3.35641548,11.3495184 L3.24562118,11.8719673 C3.19348269,12.1266612 3.26191446,12.3813551 3.43462322,12.5544163 C3.56822811,12.6882939 3.75397149,12.7633959 3.94949084,12.7633959 C4.00488798,12.7633959 4.06028513,12.7568653 4.11568228,12.7470694 L4.6892057,12.6262531 C5.60162933,12.4336 6.51731161,12.2376816 7.42973523,12.0482939 C7.64154786,12.0025796 7.82077393,11.9078857 7.97393075,11.7544163 C10.5352342,9.18462041 13.0965377,6.6180898 15.6578411,4.05482449 C15.8468432,3.86543673 15.9511202,3.64013061 15.9771894,3.36257959 C15.9804481,3.31686531 15.9771894,3.27115102 15.9674134,3.22870204 C15.9511202,3.16339592 15.9380855,3.09482449 15.9217923,3.02951837 C15.885947,2.86298776 15.8468432,2.6736 15.7686354,2.49074286 C15.289613,1.3936 14.494501,0.609926531 13.40611,0.169110204 C13.18778,0.0809469388 12.9564155,0.0515591837 12.7543788,0.0254367347 L12.6989817,0.0189061224 C12.4057026,-0.0170122449 12.1384929,0.0809469388 11.9071283,0.31604898 C10.4407332,1.79196735 8.96456212,3.27115102 7.49164969,4.74706939 Z M12.5578737,1.29352877 C12.5612702,1.29352877 12.5799513,1.29523051 12.6139169,1.298634 C12.7463826,1.3139497 12.8686586,1.32926539 12.9654605,1.37010725 C13.658358,1.65089504 14.3379048,2.25195888 14.6461423,2.95648096 C14.6818061,3.03816467 14.7047329,3.14282194 14.7276596,3.25258444 C14.7353019,3.2934263 14.7454916,3.33426816 14.7531338,3.37511002 C14.7429441,3.42105711 14.7251122,3.4516885 14.6894484,3.48487251 C12.6846309,5.48867624 9.39255828,8.74487 7.3902882,10.7512264 C7.35717177,10.7844104 7.32660276,10.7997261 7.28074925,10.8099365 C6.80161124,10.9728394 5.81629435,11.2617289 4.32479858,11.6766052 C4.76071151,10.2319051 5.0313146,9.26450384 5.13660785,8.77440152 C5.14170269,8.75142798 5.16208203,8.71569135 5.18500878,8.69016519 C5.62825941,8.24090473 6.66488791,7.15600706 7.11068596,6.71185183 L8.32070923,5.49935913 C9.47468931,4.34302398 11.3172814,2.50091624 12.4687141,1.34202847 C12.517115,1.30118661 12.5400418,1.29352877 12.5578737,1.29352877 Z" id="Shape"></path>
                            <path d="M1.52661133,3.83996582 C2.73341551,3.83996582 4.54362178,3.83996582 6.95723014,3.83996582 C7.17881874,3.83996582 7.35804481,3.59368896 7.35804481,3.30426025 C7.35804481,3.01483154 7.17881874,2.76829388 6.95723014,2.76829388 L1.26761711,2.76829388 C0.56700611,2.76829388 0,3.33972245 0,4.03849796 L0,14.7291102 C0,15.431151 0.570264766,15.9993143 1.26761711,15.9993143 L11.9331976,15.9993143 C12.6338086,15.9993143 13.2008147,15.4278857 13.2008147,14.7291102 L13.2008147,9.25972245 C13.2008147,9.03768163 12.9382019,8.8580898 12.6577454,8.8580898 C12.3772888,8.8580898 12.1054993,9.03768163 12.1054993,9.25972245 C12.1054993,11.6294384 12.1054993,13.4067253 12.1054993,14.5915833 C12.1054993,14.7797241 11.9892578,14.9499817 11.8095703,14.9499817 C7.17645745,14.9499817 3.69663974,14.9499817 1.37011719,14.9499817 C1.17993164,14.9499817 1.06341553,14.7373047 1.06341553,14.533783 C1.06341553,9.96187859 1.06341553,6.52489739 1.06341553,4.22283936 C1.06341553,4.0072937 1.27438354,3.83996582 1.52661133,3.83996582 Z" id="Shape"></path>
                        </g>
                    </g>
                </g>
            </g>
        </g>
    </g>
</svg>