<?xml version="1.0" encoding="utf-8"?>
<!-- Generator: Adobe Illustrator 21.1.0, SVG Export Plug-In . SVG Version: 6.00 Build 0)  -->
<svg version="1.1" id="Layer_1" xmlns="http://www.w3.org/2000/svg" xmlns:xlink="http://www.w3.org/1999/xlink" x="0px" y="0px"
	 viewBox="0 0 56.7 56.7" style="enable-background:new 0 0 56.7 56.7;" xml:space="preserve">
<style type="text/css">
	.st0{fill:#FFFFFF;}
</style>
<path class="st0" d="M39.3,10.8c3.6,0,6.5,2.9,6.5,6.5v21.9c0,3.6-2.9,6.5-6.5,6.5H17.4c-3.6,0-6.5-2.9-6.5-6.5V17.3
	c0-3.6,2.9-6.5,6.5-6.5L39.3,10.8 M39.3,9.8H17.4c-4.2,0-7.6,3.4-7.6,7.6v21.9c0,4.2,3.4,7.6,7.6,7.6h21.9c4.2,0,7.6-3.4,7.6-7.6
	V17.4C46.9,13.2,43.5,9.8,39.3,9.8L39.3,9.8z"/>
<path class="st0" d="M36.9,13.6H19.8c-3.4,0-6.2,2.8-6.2,6.2v17.1c0,3.4,2.8,6.2,6.2,6.2h17.1c3.4,0,6.2-2.8,6.2-6.2V19.8
	C43.2,16.4,40.4,13.6,36.9,13.6z M32.6,23.3c-0.1,0-0.2,0-0.2,0c-0.6,0-1.1,0-1.7,0c-0.8,0-1.3,0.3-1.3,1.3c0,0.7,0,2.3,0,2.3
	s1.8,0,2.6,0c0.2,0,0.4,0,0.6,0c-0.1,1.1-0.3,2.2-0.4,3.2h-2.7v8.1h-3.3v-8.1h-2.7v-3.2h2.7v-0.2c0-0.6,0-1.3,0-1.9
	c0-0.4,0-0.8,0.1-1.2c0.2-1,0.6-1.8,1.4-2.4c0.7-0.5,1.5-0.7,2.4-0.7c0.6,0,1.1,0,1.7,0c0.3,0,0.6,0.1,0.9,0.1v2.7
	C32.7,23.3,32.6,23.3,32.6,23.3z"/>
</svg>
