<?xml version="1.0" encoding="utf-8"?>
<!-- Generator: Adobe Illustrator 21.1.0, SVG Export Plug-In . SVG Version: 6.00 Build 0)  -->
<svg version="1.1" id="Layer_1" xmlns="http://www.w3.org/2000/svg" xmlns:xlink="http://www.w3.org/1999/xlink" x="0px" y="0px"
	 viewBox="0 0 42.5 42.5" style="enable-background:new 0 0 42.5 42.5;" xml:space="preserve">
<style type="text/css">
	.st0{fill:#1C76BC;}
	.st1{fill:none;stroke:#1C76BC;stroke-miterlimit:10;}
</style>
<g>
	<path class="st0" d="M29.7,17.2v5.6c0,0.7-0.4,1.2-0.9,1.2h-1.4c0.2,0.8,0.5,1.6,1,2.2c0,0-2.2-0.5-3.8-2.2h-4.7
		c-0.5,0-0.9-0.5-0.9-1.2v-5.6c0-0.7,0.4-1.2,0.9-1.2h8.8C29.3,16,29.7,16.5,29.7,17.2L29.7,17.2z M24,24.8v0.6
		c0,0.6-0.4,1.1-0.9,1.1h-4.5c-1.5,1.6-3.6,2.1-3.6,2.1c0.5-0.6,0.8-1.4,0.9-2.1h-1.3c-0.5,0-0.9-0.5-0.9-1.1V20
		c0-0.6,0.4-1.1,0.9-1.1H18v4.2c0,0.4,0.1,0.8,0.4,1.1c0.3,0.3,0.6,0.5,1,0.5L24,24.8L24,24.8z"/>
	<circle class="st1" cx="21.3" cy="21.3" r="13.2"/>
</g>
</svg>
