<?xml version="1.0" encoding="utf-8"?>
<!-- Generator: Adobe Illustrator 20.1.0, SVG Export Plug-In . SVG Version: 6.00 Build 0)  -->
<svg version="1.1" id="Layer_1" xmlns="http://www.w3.org/2000/svg" xmlns:xlink="http://www.w3.org/1999/xlink" x="0px" y="0px"
	 viewBox="0 0 33.4 33.4" style="enable-background:new 0 0 33.4 33.4;" xml:space="preserve">
<style type="text/css">
	.st0{fill:#1C76BC;}
</style>
<path class="st0" d="M27,11.8v6.8c0,0.8-0.5,1.5-1.1,1.4h-1.6c0.2,1,0.6,1.9,1.2,2.7c0,0-2.7-0.6-4.6-2.7h-5.7
	c-0.6,0-1.1-0.7-1.1-1.5v-6.8c0-0.8,0.5-1.5,1.1-1.5h10.7C26.5,10.3,27,11,27,11.8L27,11.8z M19.9,21.1v0.8c0,0.8-0.5,1.4-1.1,1.4
	h-5.4c-1.8,2-4.4,2.6-4.4,2.6c0.6-0.8,0.9-1.7,1.1-2.6H8.5c-0.6,0-1.1-0.6-1.1-1.4v-6.5c0-0.8,0.5-1.4,1.1-1.4h4.2v5.1
	c0,0.5,0.2,1,0.4,1.4c0.3,0.4,0.8,0.6,1.2,0.6H19.9L19.9,21.1z"/>
<path class="st0" d="M16.7,33.4L16.7,33.4c-9.2,0-16.6-7.5-16.6-16.6S7.5,0.3,16.7,0.3s16.6,7.5,16.6,16.6S25.8,33.4,16.7,33.4z
	 M16.7,1.3c-8.6,0-15.6,7-15.6,15.5c0,8.6,7,15.6,15.5,15.6v0.5v-0.5c8.6,0,15.6-7,15.6-15.5C32.3,8.3,25.3,1.3,16.7,1.3z"/>
</svg>
