<?xml version="1.0" encoding="utf-8"?>
<!-- Generator: Adobe Illustrator 21.1.0, SVG Export Plug-In . SVG Version: 6.00 Build 0)  -->
<svg version="1.1" id="Layer_1" xmlns="http://www.w3.org/2000/svg" xmlns:xlink="http://www.w3.org/1999/xlink" x="0px" y="0px"
	 viewBox="0 0 99.2 99.2" style="enable-background:new 0 0 99.2 99.2;" xml:space="preserve">
<style type="text/css">
	.st0{fill:#FFFFFF;}
</style>
<g>
	<g>
		<path class="st0" d="M24.9,87.8v4.7c-0.5,0.2-1,0.4-1.5,0.5s-1.2,0.1-2,0.1c-0.9,0-1.7-0.1-2.2-0.4s-0.8-0.7-1-1.4
			c-0.2-0.6-0.3-1.6-0.3-2.8s0.1-2.1,0.3-2.8c0.2-0.6,0.6-1.1,1.2-1.4s1.4-0.4,2.4-0.4c0.5,0,0.9,0,1.5,0.1c0.5,0.1,0.9,0.2,1.2,0.2
			l-0.3,2C23.9,86,23.5,86,23,85.9c-0.4,0-0.8-0.1-1.1-0.1c-0.5,0-0.9,0.1-1.1,0.2s-0.3,0.4-0.3,0.8v4.1h2v-1.5h-0.9v-1.8L24.9,87.8
			L24.9,87.8z"/>
		<path class="st0" d="M26.2,84.2h2.5v6.7h2.8v2h-5.2L26.2,84.2L26.2,84.2z"/>
		<path class="st0" d="M32.4,85.8c0.2-0.6,0.6-1.1,1.2-1.4C34.2,84.1,35,84,36,84s1.9,0.1,2.4,0.4c0.6,0.3,1,0.7,1.2,1.4
			c0.2,0.6,0.4,1.6,0.4,2.8c0,1.2-0.1,2.1-0.4,2.8c-0.2,0.6-0.6,1.1-1.2,1.4c-0.6,0.3-1.4,0.4-2.4,0.4c-1.1,0-1.9-0.1-2.4-0.4
			c-0.6-0.3-1-0.7-1.2-1.4c-0.2-0.6-0.4-1.6-0.4-2.8C32.1,87.4,32.2,86.5,32.4,85.8z M36.4,91.1c0.4,0,0.7-0.1,0.9-0.2
			s0.2-0.3,0.2-0.6v-4.1h-1.7c-0.4,0-0.7,0.1-0.9,0.2s-0.2,0.3-0.2,0.6v4.1H36.4z"/>
		<path class="st0" d="M44.2,91.1c0.5,0,0.9,0,1.2-0.1v-1.2l-1.3-0.1c-0.8-0.1-1.3-0.2-1.8-0.4s-0.7-0.5-0.9-0.8
			c-0.2-0.4-0.3-0.8-0.3-1.4c0-0.8,0.1-1.3,0.3-1.8c0.2-0.4,0.6-0.8,1-0.9c0.5-0.2,1.1-0.3,1.9-0.3c1.1,0,2.1,0.1,3.2,0.4l-0.3,2
			c-0.5-0.1-0.9-0.2-1.2-0.2s-0.7-0.1-1.1-0.1c-0.5,0-0.9,0-1.2,0.1v1.2l1.1,0.1c1.1,0.1,1.9,0.4,2.4,0.8s0.7,1.1,0.7,2
			c0,1-0.3,1.7-0.8,2.2c-0.6,0.5-1.5,0.7-2.7,0.7S42,93.1,41,92.8l0.3-2C42.3,91,43.3,91.1,44.2,91.1z"/>
		<path class="st0" d="M52.1,91.1c0.5,0,0.9,0,1.2-0.1v-1.2L52,89.7c-0.8-0.1-1.3-0.2-1.8-0.4c-0.4-0.2-0.7-0.5-0.9-0.8
			c-0.2-0.4-0.3-0.8-0.3-1.4c0-0.8,0.1-1.3,0.3-1.8c0.2-0.4,0.6-0.8,1-0.9c0.5-0.2,1.1-0.3,1.9-0.3c1.1,0,2.1,0.1,3.2,0.4l-0.3,2
			c-0.5-0.1-0.9-0.2-1.2-0.2s-0.7-0.1-1.1-0.1c-0.5,0-0.9,0-1.2,0.1v1.2l1.1,0.1c1.1,0.1,1.9,0.4,2.4,0.8s0.7,1.1,0.7,2
			c0,1-0.3,1.7-0.8,2.2c-0.6,0.5-1.5,0.7-2.7,0.7s-2.4-0.2-3.4-0.5l0.3-2C50.2,91,51.1,91.1,52.1,91.1z"/>
		<path class="st0" d="M62,91.4h-2.7l-0.4,1.5h-2.5l2.3-8.7h3.8l2.3,8.7h-2.5L62,91.4z M61.6,89.6l-0.8-3.1h-0.1l-0.8,3.1H61.6z"/>
		<path class="st0" d="M70.6,93l-1.3-2.7h-1V93h-2.5v-8.7h3.9c1.1,0,1.9,0.2,2.4,0.7s0.7,1.3,0.7,2.4c0,0.6-0.1,1.1-0.3,1.6
			c-0.2,0.4-0.5,0.7-0.8,1l1.5,3.1L70.6,93C70.6,93.1,70.6,93,70.6,93z M68.3,88.5h1.4c0.2,0,0.4,0,0.5-0.1c0.1-0.1,0.1-0.2,0.1-0.5
			v-1.1c0-0.2,0-0.4-0.1-0.5c-0.1-0.1-0.3-0.1-0.5-0.1h-1.4V88.5z"/>
		<path class="st0" d="M81.3,84.2l-2.6,5.9v2.8h-2.5v-2.8l-2.6-5.9h2.6l1.2,3.3l1.2-3.3H81.3z"/>
	</g>
	<g>
		<rect x="49.4" y="18.8" class="st0" width="1.1" height="0.9"/>
		<path class="st0" d="M53.6,77.2c1.3-0.3,2.5-0.7,3.8-1.1c1.4-0.4,1.1-0.6,3.4,1c2.5,1.7,8.8,2.5,11.9,0.9c-2-2.4-7.2-4.1-10.3-4
			c0.5-0.3,1-0.5,1.5-0.8c6.3-3.7,11.8,1,16.1-6.8c-2.4-0.8-6.3,0-9.1,1.3c0.9-0.9,3.8-4.8,4.1-4.2c1.2,2.1,8.3-2.1,9.6-5.8
			c-2.3-0.3-5.8,1.1-8,2.8c0.2-0.3,0.9-1.6,1.6-3.1c1.3-2.7,1.6-3.4,3.4-3.7c2.5-0.4,6.3-4.9,6.7-8c-2.3,0.2-5.4,2.3-7.1,4.4
			c0.2-0.6,0.3-1.3,0.5-1.9c0.5-2.5,0.4-4.8,2-5.5c2.1-0.9,4.8-6.8,4.1-10c-2.2,0.9-4.4,4.1-5.3,6.6c0-0.9-0.1-1.7-0.2-2.5
			c-0.3-2.2-0.6-2.6,0.2-3.4c1.2-1.2,1.7-5.7,0.5-7.7c-1.1,1-1.9,3.2-2.1,5c-0.8-2.4-2.6-4-1.7-5.7c0.6-1.2,0.1-4.4-1-5.6
			c-0.7,1-0.9,2.9-0.6,4.3c-1.1-1.6-2.4-2.6-2.3-4.1c0.1-1.2-1.1-3.5-2.3-4.1c-0.2,0.7-0.1,1.8,0.3,2.8c-1.2-1.2-2.5-2.4-3.9-3.5
			c3,3.3,4.4,4.8,5.4,6.4c-1.1-0.5-2.4-0.8-3.3-0.5c0.5,1,2.3,2,3.5,2.3c2.3,0.5,2.4,1.6,3.7,4.1c-1.3-1-3.5-1.8-4.9-1.5
			c0.6,1.5,2.9,3.2,4.4,3.6c2.7,0.8,2.5,2.4,3.2,5.8c-1.2-1.6-3.5-3.3-5.2-3.4c0.2,1.8,1.9,4.5,3.7,5.4c1.8,0.8,2.1,1,2.1,4.1
			c0,1.2,0,2.4-0.2,3.7c-0.4-2.5-1.6-5.4-3.2-6.7c-1.3,2.5-0.7,9.5,1.2,10.8c1.2,0.8,1,1.4,0.2,3.7c-0.3,1-0.7,1.9-1.1,2.9
			c0.2-2.3-0.1-4.9-1.1-6.4c-5,4.9-0.1,9.6-2.8,13.3c-1.1,1.6-2.3,3-3.7,4.4c1.4-2.8,2.3-7.2,1.4-9.9c-8.8,5.3-0.6,10.9-8.9,15.8
			c-1,0.6-2,1.1-3,1.6c2.3-2.2,4.6-6.3,4.5-9.1c-10.6,2.5-2,8.3-11.3,10.9L53.6,77.2L53.6,77.2z M45.6,77.2
			c-1.3-0.3-2.5-0.7-3.8-1.1c-1.4-0.4-1.1-0.6-3.4,1c-2.5,1.7-8.8,2.5-11.9,0.9c2-2.4,7.2-4.1,10.3-4c-0.5-0.3-1-0.5-1.5-0.8
			c-6.3-3.7-11.8,1-16.1-6.8c2.4-0.8,6.3,0,9.1,1.3c-0.9-0.9-3.8-4.8-4.1-4.2c-1.3,2.1-8.3-2.1-9.6-5.8c2.3-0.3,5.9,1.1,8,2.8
			c-0.2-0.3-0.9-1.6-1.6-3.1c-1.3-2.7-1.6-3.4-3.4-3.7c-2.5-0.4-6.3-4.9-6.7-8c2.3,0.2,5.4,2.3,7.1,4.4c-0.2-0.6-0.3-1.3-0.5-1.9
			c-0.5-2.5-0.3-4.8-1.9-5.5c-2.1-0.9-4.8-6.8-4.1-10c2.2,0.9,4.4,4.1,5.3,6.6c0-0.9,0.1-1.7,0.2-2.5c0.3-2.2,0.6-2.6-0.2-3.4
			c-1.2-1.2-1.7-5.7-0.5-7.7c1.1,1,1.9,3.2,2.1,5c0.8-2.4,2.6-4,1.7-5.7c-0.6-1.2-0.1-4.4,1-5.6c0.7,1,0.9,2.9,0.6,4.3
			c1-1.6,2.4-2.6,2.3-4.1c-0.1-1.2,1.1-3.5,2.3-4.1c0.2,0.7,0.1,1.8-0.3,2.8c1.2-1.2,2.5-2.4,3.9-3.5c-3,3.3-4.4,4.8-5.3,6.4
			c1.1-0.5,2.4-0.8,3.3-0.5c-0.5,1-2.3,2-3.5,2.3c-2.3,0.5-2.4,1.6-3.7,4.1c1.3-1,3.5-1.8,4.9-1.5c-0.6,1.5-2.9,3.2-4.4,3.6
			c-2.7,0.8-2.5,2.4-3.2,5.8c1.2-1.6,3.5-3.3,5.2-3.4c-0.2,1.8-1.9,4.5-3.7,5.4c-1.8,0.8-2.1,1-2.1,4.1c0,1.2,0,2.4,0.2,3.7
			c0.4-2.5,1.6-5.4,3.2-6.7c1.3,2.5,0.7,9.5-1.2,10.8c-1.2,0.8-1,1.4-0.2,3.7c0.3,1,0.7,1.9,1.1,2.9c-0.2-2.3,0.1-4.9,1.1-6.4
			c5,4.9,0.1,9.6,2.8,13.3c1.1,1.6,2.3,3,3.7,4.4c-1.4-2.8-2.3-7.2-1.4-9.9c8.8,5.3,0.6,10.9,8.9,15.8c1,0.6,2,1.1,3,1.6
			c-2.3-2.2-4.5-6.3-4.5-9.1c10.6,2.5,2,8.3,11.3,10.9L45.6,77.2z"/>
		<g>
			<path class="st0" d="M49.4,10.7V7.3l-17.5,6.4l8.6,2.8v-0.8C40.5,12.5,44.8,10.8,49.4,10.7z"/>
			<path class="st0" d="M49.2,18.9c-0.2-0.1-0.4-0.2-0.6-0.3l0.5-3.3C49,15.2,49,15,49,14.8c0-0.3,0.1-0.6,0.4-0.7v-2.8
				c-4.2,0.1-8.3,1.7-8.3,4.7c0,0,0,5.8,0,8.5c1-1.4,4.6-2.4,8.9-2.4c4.1,0,7.6,0.9,8.7,2.2c0.1-2.7,0-8.3,0-8.3
				c0-3-4.1-4.6-8.3-4.7v2.8c0.2,0.2,0.4,0.4,0.4,0.7c0,0.2,0,0.3-0.1,0.5l0.5,3.3c-0.2,0.1-0.4,0.2-0.6,0.3l-0.1-0.4l-0.3-1.3
				l-0.1,1.3V19c-0.2,0-0.4,0-0.6,0v-0.5l-0.1-1.3l-0.3,1.3L49.2,18.9z"/>
			<path class="st0" d="M49.4,6c-6,2.2-12.1,4.4-18.1,6.6v0.9L49.4,7V6z"/>
			<path class="st0" d="M50.4,6v0.9l18.1,6.5v-0.9C62.5,10.4,56.4,8.2,50.4,6z"/>
			<path class="st0" d="M50.4,10.7c4.5,0.1,8.9,1.8,8.9,5v0.8l8.6-2.8L50.4,7.3V10.7z"/>
		</g>
		<rect x="49.4" y="6" class="st0" width="1" height="0.9"/>
		<g>
			<path class="st0" d="M67.3,27.8v27c-2.1,6.7-11.1,2.8-15.6,5.5c4-4,11.5,0.2,14.3-5.9V23.2c-4.6,6.9-12.1,1-15.9,8.6v4.9
				c0.1,0,0.3,0,0.4,0c2.9,0.5,4.6,3,4.6,5.8c0,1.7-0.6,3.3-1.7,4.6c-0.6,0.8-1.1,1.3-1.4,2.3c-0.6,0.1-1.3,0.1-1.9,0.2v1.8
				c0.7,0,1.4,0,2.2-0.1h0.1v1.5c0,0.2-1.1,0.4-2.3,0.4v0.4c0.6,0,1.2-0.1,1.9-0.2l-0.1,0.3c-0.4,0.9-1,1.4-1.8,1.7v9.1
				c1.7-8.6,15.1,0.1,18-9.6V26.7L67.3,27.8z M54.7,34.8l-0.8,1.5c-0.4,0.8-1.5,0.1-1.1-0.6l0.8-1.5C54.1,33.4,55.1,34,54.7,34.8z
				 M58.7,43H57c-0.9,0-0.9-1.2,0-1.2h1.7C59.6,41.8,59.6,43,58.7,43z M55.7,38l1.5-0.8c0.8-0.4,1.4,0.6,0.6,1.1l-1.5,0.8
				C55.6,39.5,55,38.5,55.7,38z"/>
			<path class="st0" d="M47,51.3c0.6,0,1.3,0.1,1.9,0.1v-1.8c-0.6,0-1.3-0.1-1.9-0.2c-0.3-1-0.7-1.5-1.4-2.3c-1-1.3-1.7-2.9-1.7-4.6
				c0-2.8,1.7-5.3,4.6-5.8c0.1,0,0.3,0,0.4,0v-4.9C45.1,24.1,37.6,30,33,23.1v31.2c2.8,6,10.3,1.8,14.3,5.9
				c-4.5-2.7-13.4,1.2-15.6-5.5v-27l-1-1V55c2.9,9.6,16.4,0.9,18,9.6v-9.1c-0.7-0.2-1.4-0.8-1.8-1.7l-0.1-0.3
				c0.7,0.1,1.3,0.2,1.9,0.2v-0.4c-1.1,0-2-0.2-2-0.4v-1.5L47,51.3z M45.6,34.2l0.8,1.5c0.4,0.8-0.6,1.4-1.1,0.6l-0.8-1.5
				C44.1,34,45.1,33.4,45.6,34.2z M42.1,43h-1.7c-0.9,0-0.9-1.2,0-1.2h1.7C43,41.8,43,43,42.1,43z M42.8,39.2l-1.5-0.8
				c-0.8-0.4-0.1-1.5,0.6-1.1l1.5,0.8C44.2,38.5,43.6,39.5,42.8,39.2z"/>
		</g>
	</g>
</g>
</svg>
