<?xml version="1.0" encoding="utf-8"?>
<!-- Generator: Adobe Illustrator 21.1.0, SVG Export Plug-In . SVG Version: 6.00 Build 0)  -->
<svg version="1.1" id="Layer_1" xmlns="http://www.w3.org/2000/svg" xmlns:xlink="http://www.w3.org/1999/xlink" x="0px" y="0px"
	 viewBox="0 0 56.7 56.7" style="enable-background:new 0 0 56.7 56.7;" xml:space="preserve">
<style type="text/css">
	.st0{fill:#FFFFFF;}
</style>
<path class="st0" d="M39.3,10.8c3.6,0,6.5,2.9,6.5,6.5v21.9c0,3.6-2.9,6.5-6.5,6.5H17.4c-3.6,0-6.5-2.9-6.5-6.5V17.3
	c0-3.6,2.9-6.5,6.5-6.5L39.3,10.8 M39.3,9.8H17.4c-4.2,0-7.6,3.4-7.6,7.6v21.9c0,4.2,3.4,7.6,7.6,7.6h21.9c4.2,0,7.6-3.4,7.6-7.6
	V17.4C46.9,13.2,43.5,9.8,39.3,9.8L39.3,9.8z"/>
<path class="st0" d="M36.9,13.6H19.8c-3.4,0-6.2,2.8-6.2,6.2v17.1c0,3.4,2.8,6.2,6.2,6.2h17.1c3.4,0,6.2-2.8,6.2-6.2V19.8
	C43.1,16.4,40.3,13.6,36.9,13.6z M29.6,32.7c-0.8,1.1-2,1.8-3.3,2.2c-0.7,0.2-1.5,0.3-2.2,0.2c-1.3-0.1-2.5-0.5-3.6-1.3
	c-1.4-1-2.2-2.3-2.6-4c-0.1-0.6-0.2-1.2-0.1-1.8c0.1-1.4,0.6-2.7,1.5-3.8c0.9-1.2,2.2-1.9,3.6-2.3c0.4-0.1,0.7-0.2,1.1-0.2
	c0.2,0,0.4,0,0.6,0c1.1,0,2.2,0.3,3.2,0.9c0.7,0.4,1,0.8,1.2,0.9c-0.7,0.7-1.3,1.3-2,2c-0.5-0.4-1-0.8-2-1c-2.1-0.3-4,1.1-4.4,3.1
	c-0.1,0.4-0.1,0.8-0.1,1.2c0.2,1.7,1.3,3,2.8,3.5c0.5,0.2,1,0.2,1.5,0.2c0.7,0,1.4-0.2,2-0.6c1-0.7,1.3-1.8,1.3-2
	c-0.2,0-3.6,0-3.6,0s0-1.8,0-2.6v-0.1c2.1,0,4.2,0,6.3,0C31.1,29,30.8,31.1,29.6,32.7z M38.9,27.2v1.7V29h-0.1h-2.3v2.3v0.1h-0.1
	h-1.7h-0.1v-0.1v-2.4h-2.3h-0.1l0,0v-1.7v-0.1h0.1h2.3v-2.3v-0.1h0.1h1.7h0.1v0.1v2.3L38.9,27.2L38.9,27.2L38.9,27.2z"/>
</svg>
