<?xml version="1.0" encoding="utf-8"?>
<!-- Generator: Adobe Illustrator 20.1.0, SVG Export Plug-In . SVG Version: 6.00 Build 0)  -->
<svg version="1.1" id="Layer_1" xmlns="http://www.w3.org/2000/svg" xmlns:xlink="http://www.w3.org/1999/xlink" x="0px" y="0px"
	 viewBox="0 0 37.6 37.6" style="enable-background:new 0 0 37.6 37.6;" xml:space="preserve">
<style type="text/css">
	.st0{fill:#FFFFFF;}
</style>
<path class="st0" d="M29.8,1.2c3.6,0,6.5,2.9,6.5,6.5v21.9c0,3.6-2.9,6.5-6.5,6.5H7.9c-3.6,0-6.5-2.9-6.5-6.5V7.7
	c0-3.6,2.9-6.5,6.5-6.5L29.8,1.2 M29.8,0.2H7.9c-4.2,0-7.6,3.4-7.6,7.6v21.9c0,4.2,3.4,7.6,7.6,7.6h21.9c4.2,0,7.6-3.4,7.6-7.6V7.8
	C37.4,3.6,34,0.2,29.8,0.2L29.8,0.2z"/>
<path class="st0" d="M27.4,4H10.3c-3.4,0-6.2,2.8-6.2,6.2v17.1c0,3.4,2.8,6.2,6.2,6.2h17.1c3.4,0,6.2-2.8,6.2-6.2V10.2
	C33.6,6.8,30.8,4,27.4,4z M20.1,23.1c-0.8,1.1-2,1.8-3.3,2.2c-0.7,0.2-1.5,0.3-2.2,0.2c-1.3-0.1-2.5-0.5-3.6-1.3
	c-1.4-1-2.2-2.3-2.6-4c-0.1-0.6-0.2-1.2-0.1-1.8c0.1-1.4,0.6-2.7,1.5-3.8c0.9-1.2,2.2-1.9,3.6-2.3c0.4-0.1,0.7-0.2,1.1-0.2
	c0.2,0,0.4,0,0.6,0c1.1,0,2.2,0.3,3.2,0.9c0.7,0.4,1,0.8,1.2,0.9c-0.7,0.7-1.3,1.3-2,2c-0.5-0.4-1-0.8-2-1c-2.1-0.3-4,1.1-4.4,3.1
	C11,18.4,11,18.8,11,19.2c0.2,1.7,1.3,3,2.8,3.5c0.5,0.2,1,0.2,1.5,0.2c0.7,0,1.4-0.2,2-0.6c1-0.7,1.3-1.8,1.3-2c-0.2,0-3.6,0-3.6,0
	s0-1.8,0-2.6v-0.1c2.1,0,4.2,0,6.3,0C21.6,19.4,21.3,21.5,20.1,23.1z M29.4,17.6v1.7v0.1h-0.1H27v2.3v0.1h-0.1h-1.7h-0.1v-0.1v-2.4
	h-2.3h-0.1l0,0v-1.7v-0.1h0.1h2.3v-2.3v-0.1h0.1h1.7H27v0.1v2.3L29.4,17.6L29.4,17.6L29.4,17.6z"/>
</svg>
