<?xml version="1.0" encoding="UTF-8"?>
<svg width="22px" height="22px" viewBox="0 0 22 22" version="1.1" xmlns="http://www.w3.org/2000/svg" xmlns:xlink="http://www.w3.org/1999/xlink">
    <!-- Generator: sketchtool 48.2 (47327) - http://www.bohemiancoding.com/sketch -->
    <title>06BDA8EB-45A2-4BAF-8081-4A8F0F22BCD5-2654-000041CAB30622CE</title>
    <desc>Created with sketchtool.</desc>
    <defs></defs>
    <g id="1366_dashboard" stroke="none" stroke-width="1" fill="none" fill-rule="evenodd" transform="translate(-25.000000, -409.000000)">
        <g id="vertical-menu" transform="translate(0.000000, 80.000000)" fill="#78789A" fill-rule="nonzero">
            <g id="faq">
                <g transform="translate(0.000000, 315.000000)">
                    <g id="Group-17">
                        <g id="icon_faq_dark" transform="translate(25.000000, 14.000000)">
                            <path d="M11,0 C4.9204375,0 0,4.91979297 0,11 C0,17.0795625 4.91979297,22 11,22 C17.0795625,22 22,17.080207 22,11 C22,4.9204375 17.080207,0 11,0 Z M11,20.7666738 C5.61467647,20.7666738 1.23332617,16.3853676 1.23332617,11 C1.23332617,5.61463245 5.61467647,1.23332617 11,1.23332617 C16.3853235,1.23332617 20.7666738,5.61467647 20.7666738,11 C20.7666738,16.3853235 16.3853235,20.7666738 11,20.7666738 Z" id="Shape"></path>
                            <path d="M10.8875712,13.3999939 C10.4523327,13.3999939 10.0999985,13.7626687 10.0999985,14.1979431 C10.0999985,14.6228051 10.4419562,14.9958923 10.8875712,14.9958923 C11.3331862,14.9958923 11.6855204,14.6228051 11.6855204,14.1979431 C11.6855204,13.7626687 11.3228097,13.3999939 10.8875712,13.3999939 Z" id="Shape"></path>
                            <path d="M10.8822227,6.17370703 C9.20798828,6.17370703 8.43901953,7.16589844 8.43901953,7.83556641 C8.43901953,8.31926563 8.81057324,8.35852051 9.14538574,8.35852051 C9.68615723,8.35852051 9.58005469,7.29321289 10.8450547,7.29321289 C11.4651797,7.29321289 12.3045044,7.60687256 12.3045044,8.40740967 C12.3045044,9.34057617 11.4705566,9.58750488 11.0612793,9.93469238 C10.7015879,10.2447549 10.1908569,10.6508359 10.1908569,11.7174492 C10.1908569,12.3622813 10.4699097,12.5483789 10.8450547,12.5483789 C11.3242188,12.5483789 11.4403438,12.2755273 11.4403438,12.0398867 C11.4403438,11.3950547 11.4527188,11.0229453 12.1348047,10.4896602 C12.4697031,10.2292266 13.5238555,9.38587891 13.5238555,8.22009375 C13.5238555,7.05430859 12.4697031,6.17370703 10.8822227,6.17370703 Z" id="Shape"></path>
                        </g>
                    </g>
                </g>
            </g>
        </g>
    </g>
</svg>