<?xml version="1.0" encoding="UTF-8"?>
<svg width="22px" height="22px" viewBox="0 0 22 22" version="1.1" xmlns="http://www.w3.org/2000/svg" xmlns:xlink="http://www.w3.org/1999/xlink">
    <!-- Generator: sketchtool 48.2 (47327) - http://www.bohemiancoding.com/sketch -->
    <title>ACF07B2E-3A27-450A-B811-693369A124BA-2654-000041CAB307C468</title>
    <desc>Created with sketchtool.</desc>
    <defs></defs>
    <g id="1366_dashboard" stroke="none" stroke-width="1" fill="none" fill-rule="evenodd" transform="translate(-25.000000, -238.000000)">
        <g id="vertical-menu" transform="translate(0.000000, 80.000000)" fill="#78789A" fill-rule="nonzero">
            <g id="token-sale">
                <g transform="translate(0.000000, 144.000000)">
                    <g id="Group-16">
                        <g id="icon_token-sale-stats_dark" transform="translate(25.000000, 14.000000)">
                            <path d="M21.4072861,3.18924435 L17.2444207,3.18924435 C16.9171172,3.18924435 16.6516578,3.49178247 16.6516578,3.86480298 L16.6516578,8.45788675 L13.6742691,8.45788675 L13.6742691,0.675558624 C13.6742691,0.302538117 13.4088097,0 13.0815062,0 L8.91854277,0 C8.59123927,0 8.3257799,0.302538117 8.3257799,0.675558624 L8.3257799,13.458562 L5.34839119,13.458562 L5.34839119,7.71614616 C5.34839119,7.34301396 5.08293183,7.04058754 4.75562832,7.04058754 L0.592762872,7.04058754 C0.265361355,7.04058754 6.99854275e-14,7.34301396 6.99854275e-14,7.71614616 L0,21.3244414 C0,21.6975736 0.265459365,22 0.592762872,22 L4.75562832,22 L8.91849377,22 L13.0814572,22 L17.2443717,22 L21.4072371,22 C21.7346386,22 22,21.6974619 22,21.3244414 L22,3.86480298 C22.000049,3.49178247 21.7346876,3.18924435 21.4072861,3.18924435 Z M4.16291445,20.6488828 L1.18552574,20.6488828 L1.18552574,8.39170479 L4.16291445,8.39170479 L4.16291445,20.6488828 Z M8.32587791,20.6488828 L5.3484892,20.6488828 L5.3484892,14.8096793 L8.32587791,14.8096793 L8.32587791,20.6488828 Z M12.4887924,9.13344537 L12.4887924,20.6488828 L9.51135465,20.6488828 L9.51135465,1.35111725 L12.4887924,1.35111725 L12.4887924,9.13344537 Z M16.6517558,20.6488828 L13.6743671,20.6488828 L13.6743671,9.809004 L16.6517558,9.809004 L16.6517558,20.6488828 Z M17.8372816,20.6488828 L17.8372816,9.13344537 L17.8372816,4.5403616 L20.8146703,4.5403616 L20.8146703,20.6488828 L17.8372816,20.6488828 Z" id="Shape"></path>
                        </g>
                    </g>
                </g>
            </g>
        </g>
    </g>
</svg>