<?xml version="1.0" encoding="UTF-8"?>
<svg width="13px" height="13px" viewBox="0 0 13 13" version="1.1" xmlns="http://www.w3.org/2000/svg" xmlns:xlink="http://www.w3.org/1999/xlink">
    <!-- Generator: sketchtool 48.2 (47327) - http://www.bohemiancoding.com/sketch -->
    <title>A82C7799-596C-40AE-B860-8F0F4C9F5ABC</title>
    <desc>Created with sketchtool.</desc>
    <defs></defs>
    <g id="1366_dashboard" stroke="none" stroke-width="1" fill="none" fill-rule="evenodd" transform="translate(-913.000000, -254.000000)">
        <g id="TKX" transform="translate(834.000000, 130.000000)" fill="#B6BAC4" fill-rule="nonzero">
            <g id="exchange" transform="translate(25.000000, 117.000000)">
                <g id="icon_exchange" transform="translate(54.000000, 7.000000)">
                    <path d="M12.4090918,2.91667801 L2.01749846,2.91667801 L3.96328036,0.995805567 C4.19404971,0.768033978 4.19404971,0.398668337 3.96328036,0.170857859 C3.73255041,-0.0569526196 3.35838734,-0.0569526196 3.12761799,0.170857859 L0.17307701,3.08751642 C-0.0576923368,3.31528801 -0.0576923368,3.68465365 0.17307701,3.91246413 L3.12761799,6.8291227 C3.24300266,6.94302794 3.39423577,7 3.54546887,7 C3.69670197,7 3.84793508,6.94302794 3.96328036,6.8291227 C4.19404971,6.60135111 4.19404971,6.23198547 3.96328036,6.00417499 L2.01749846,4.08334144 L12.4090918,4.08334144 C12.7354307,4.08334144 13,3.82216438 13,3.50000972 C13,3.17785506 12.7354307,2.91667801 12.4090918,2.91667801 Z" id="XMLID_17_"></path>
                    <path d="M9.87237253,6.1708294 C9.64164188,5.94305687 9.26747768,5.94305687 9.03670763,6.1708294 C8.80593758,6.39860194 8.80593758,6.76796912 9.03670763,6.99578055 L10.9825348,8.916661 L0.590909986,8.916661 C0.264570098,8.916661 0,9.17783914 0,9.49999514 C0,9.82215114 0.264570098,10.0833293 0.590909986,10.0833293 L10.9825348,10.0833293 L9.03674703,12.0042097 C8.80597698,12.2319823 8.80597698,12.6013494 9.03674703,12.8291609 C9.15209265,12.9430277 9.30332622,13 9.45455978,13 C9.60579334,13 9.7570269,12.9430277 9.87237253,12.829122 L12.8269225,9.91245127 C13.0576925,9.68467873 13.0576925,9.31531155 12.8269225,9.08750012 L9.87237253,6.1708294 Z" id="XMLID_18_"></path>
                </g>
            </g>
        </g>
    </g>
</svg>