<?xml version="1.0" encoding="UTF-8"?>
<svg width="22px" height="22px" viewBox="0 0 22 22" version="1.1" xmlns="http://www.w3.org/2000/svg" xmlns:xlink="http://www.w3.org/1999/xlink">
    <!-- Generator: sketchtool 48.2 (47327) - http://www.bohemiancoding.com/sketch -->
    <title>E17A4092-AEB6-4F7C-941A-E8563F804421-2654-000041CACF5EFFB2</title>
    <desc>Created with sketchtool.</desc>
    <defs></defs>
    <g id="1366_bounty-reward" stroke="none" stroke-width="1" fill="none" fill-rule="evenodd" transform="translate(-25.000000, -295.000000)">
        <g id="vertical-menu" transform="translate(0.000000, 80.000000)" fill="#FFFFFF" fill-rule="nonzero">
            <g id="bounty">
                <g transform="translate(0.000000, 201.000000)">
                    <g id="Group-16">
                        <path d="M45.625,19.8455313 L41.2745,19.8455313 C41.586625,19.6179002 41.85475,19.3917376 42.04175,19.1890724 C43.15,17.9980475 43.15,16.0595113 42.04175,14.8684864 C40.965125,13.711239 39.086875,13.7097704 38.008875,14.8684864 C37.4135,15.5073222 35.781375,18.1081916 36,19.8455313 C36.21725,18.1081916 34.5865,15.5073222 33.991125,14.8684864 C32.913125,13.7097704 31.034875,13.711239 29.95825,14.8684864 C28.85,16.0595113 28.85,17.9980475 29.956875,19.1890724 C30.14525,19.3917376 30.413375,19.6179002 30.7255,19.8455313 L26.375,19.8455313 C25.617375,19.8455313 25,20.5049273 25,21.3141194 L25,24.9855895 C25,25.3909198 25.308,25.7198836 25.6875,25.7198836 L26.375,25.7198836 L26.375,34.5314119 C26.375,35.340604 26.992375,36 27.75,36 L44.25,36 C45.007625,36 45.625,35.340604 45.625,34.5314119 L45.625,25.7198836 L46.3125,25.7198836 C46.692,25.7198836 47,25.3909198 47,24.9855895 L47,21.3141194 C47,20.5049273 46.382625,19.8455313 45.625,19.8455313 Z M30.933125,15.9038409 C31.21225,15.604249 31.582125,15.4397671 31.975375,15.4397671 C32.36725,15.4397671 32.737125,15.604249 33.01625,15.9038409 C33.943,16.8995436 34.86425,19.4431382 34.543875,19.7970679 C34.543875,19.7970679 34.486125,19.8455313 34.2895,19.8455313 C33.339375,19.8455313 31.52575,18.7910851 30.933125,18.1537179 C30.357,17.5339737 30.357,16.5235851 30.933125,15.9038409 Z M35.3125,34.5314119 L27.75,34.5314119 L27.75,25.7198836 L35.3125,25.7198836 L35.3125,34.5314119 Z M35.3125,24.2512955 L26.375,24.2512955 L26.375,21.3141194 L34.2895,21.3141194 L35.3125,21.3141194 L35.3125,24.2512955 Z M38.98375,15.9038409 C39.542,15.3061256 40.51,15.3075942 41.066875,15.9038409 C41.643,16.5235851 41.643,17.5339737 41.066875,18.1537179 C40.47425,18.7910851 38.660625,19.8455313 37.7105,19.8455313 C37.513875,19.8455313 37.456125,19.7985365 37.45475,19.7970679 C37.13575,19.4431382 38.057,16.8995436 38.98375,15.9038409 Z M44.25,34.5314119 L36.6875,34.5314119 L36.6875,25.7198836 L44.25,25.7198836 L44.25,34.5314119 Z M45.625,24.2512955 L36.6875,24.2512955 L36.6875,21.3141194 L37.7105,21.3141194 L45.625,21.3141194 L45.625,24.2512955 Z" id="icon_bounty_white"></path>
                    </g>
                </g>
            </g>
        </g>
    </g>
</svg>