<?xml version="1.0" encoding="UTF-8"?>
<svg width="20px" height="20px" viewBox="0 0 20 20" version="1.1" xmlns="http://www.w3.org/2000/svg" xmlns:xlink="http://www.w3.org/1999/xlink">
    <!-- Generator: sketchtool 49.1 (51147) - http://www.bohemiancoding.com/sketch -->
    <title>B1C94D8C-8B7F-4C4F-B2C5-4697AA68E862</title>
    <desc>Created with sketchtool.</desc>
    <defs></defs>
    <g id="2)-Dashboard" stroke="none" stroke-width="1" fill="none" fill-rule="evenodd">
        <g id="1366_admin_whitelist" transform="translate(-1266.000000, -146.000000)" fill-rule="nonzero" stroke="#8F95A5">
            <g id="search" transform="translate(310.000000, 130.000000)">
                <g id="icon-search" transform="translate(956.000000, 16.000000)">
                    <path d="M19.4734985,19.3336369 L14.2822059,14.1434954 L14.5884056,13.7915479 C15.8519553,12.3392177 16.5592149,10.4876961 16.5592149,8.52771619 C16.5592149,4.10035427 12.9567691,0.5 8.52960745,0.5 C4.10115272,0.5 0.5,4.101647 0.5,8.52771619 C0.5,12.9522142 4.10401731,16.5554324 8.52960745,16.5554324 C10.490094,16.5554324 12.3420836,15.8483076 13.7947622,14.5850153 L14.1466212,14.2790282 L19.3377679,19.4690238 C19.357409,19.4886605 19.3847138,19.5 19.4056332,19.5 C19.4301002,19.5 19.4522257,19.4909816 19.4734985,19.4690238 C19.5088338,19.4336963 19.5088338,19.3689645 19.4734985,19.3336369 Z M0.693169217,8.52771619 C0.693169217,4.20868667 4.20676244,0.697339246 8.52517188,0.697339246 C12.8450483,0.697339246 16.3571745,4.21015343 16.3571745,8.52771619 C16.3571745,12.8460303 12.8442993,16.3625277 8.52517188,16.3625277 C4.20751351,16.3625277 0.693169217,12.8474956 0.693169217,8.52771619 Z" id="Shape"></path>
                </g>
            </g>
        </g>
    </g>
</svg>