<?xml version="1.0" encoding="UTF-8"?>
<svg width="22px" height="22px" viewBox="0 0 22 22" version="1.1" xmlns="http://www.w3.org/2000/svg" xmlns:xlink="http://www.w3.org/1999/xlink">
    <!-- Generator: sketchtool 48.2 (47327) - http://www.bohemiancoding.com/sketch -->
    <title>01D6FC62-B161-4C30-9EED-B3FACA0E4B50-2654-000041CACF60CA65</title>
    <desc>Created with sketchtool.</desc>
    <defs></defs>
    <g id="1366_bounty-reward" stroke="none" stroke-width="1" fill="none" fill-rule="evenodd" transform="translate(-25.000000, -124.000000)">
        <g id="vertical-menu" transform="translate(0.000000, 80.000000)" fill="#78789A" fill-rule="nonzero">
            <g id="dashboard">
                <g transform="translate(0.000000, 30.000000)">
                    <g id="Group-16">
                        <g id="icon_dashboard_dark" transform="translate(25.000000, 14.000000)">
                            <path d="M20.0659383,0 C18.9978044,0 18.1318766,0.862862707 18.1318766,1.92721583 C18.1318766,2.19423158 18.2224121,2.86836911 18.6727462,3.25498441 L15.2128302,11.5630155 C14.9807911,11.4648238 14.7255433,11.4104281 14.4575307,11.4104281 C14.1895181,11.4104281 13.5625024,11.5630155 13.3039864,11.7770754 C11.1409454,10.3827103 10.0611362,9.67688062 10.064559,9.65958652 C10.0885572,9.53833148 10.1011404,9.4129886 10.1011404,9.28471116 C10.1011404,8.22035803 9.23521263,7.35749533 8.16707871,7.35749533 C7.09894479,7.35749533 6.23301703,8.22035803 6.23301703,9.28471116 C6.23301703,9.55172691 6.28755757,9.80607122 6.38609801,10.0372889 L2.68936112,18.2981557 C2.45732207,18.199964 2.20207428,18.1455683 1.93406168,18.1455683 C0.865927767,18.1455683 0,19.008431 0,20.0727842 C0,21.1371373 0.865927767,22 1.93406168,22 C3.0021956,22 3.86812337,21.1371373 3.86812337,20.0727842 C3.86812337,19.8057684 3.81358283,19.5514241 3.71504238,19.3202064 L7.41177927,11.0593397 C7.64381832,11.1575313 7.89906611,11.2118788 8.16707871,11.2118788 C8.43504296,11.2118788 9.10244158,11.13066 9.36757839,10.856749 C11.5074807,12.1920914 12.5689217,12.9087291 12.5519014,13.006662 C12.5332118,13.1141996 12.5234691,13.22479 12.5234691,13.337644 C12.5234691,14.4019971 13.3893968,15.2648598 14.4575307,15.2648598 C15.5256647,15.2648598 16.3915924,14.4019971 16.3915924,13.337644 C16.3915924,13.0706282 16.3370519,12.8162839 16.2385114,12.5850662 C18.4970716,6.73646603 19.6830095,3.82004366 19.7963252,3.83579907 C19.8844315,3.84804937 19.974441,3.85438348 20.0659383,3.85438348 C21.1340722,3.85438348 22,2.99152077 22,1.92716765 C22,0.862814527 21.1340722,0 20.0659383,0 Z" id="Shape"></path>
                        </g>
                    </g>
                </g>
            </g>
        </g>
    </g>
</svg>