<?xml version="1.0" encoding="UTF-8"?>
<svg width="23px" height="22px" viewBox="0 0 23 22" version="1.1" xmlns="http://www.w3.org/2000/svg" xmlns:xlink="http://www.w3.org/1999/xlink">
    <!-- Generator: sketchtool 48.2 (47327) - http://www.bohemiancoding.com/sketch -->
    <title>93588B1C-D30C-4AC3-A9EA-FD201D92FA97-2654-000041CAB30848B8</title>
    <desc>Created with sketchtool.</desc>
    <defs></defs>
    <g id="1366_dashboard" stroke="none" stroke-width="1" fill="none" fill-rule="evenodd" transform="translate(-25.000000, -181.000000)">
        <g id="vertical-menu" transform="translate(0.000000, 80.000000)" fill="#78789A" fill-rule="nonzero">
            <g id="transaction">
                <g transform="translate(0.000000, 87.000000)">
                    <g id="Group-16">
                        <g id="icon_transaction_dark" transform="translate(25.000000, 14.000000)">
                            <path d="M9.60097017,8 C9.44726432,8 9.29324516,7.93110067 9.17583967,7.79293328 C8.94138678,7.51665117 8.94138678,7.06864748 9.17583967,6.79236537 L11.549015,4.00025679 L9.17583967,1.20777949 C8.94138678,0.931497379 8.94138678,0.483493691 9.17583967,0.207211582 C9.41060588,-0.0690705273 9.7912897,-0.0690705273 10.0260559,0.207211582 L12.8240484,3.49999918 C12.9367541,3.63263566 13,3.81278529 13,4.00030947 C13,4.18783364 12.9367541,4.36798328 12.8240484,4.50061976 L10.0260559,7.79303863 C9.90869519,7.93110067 9.75467602,8 9.60097017,8 Z" id="Shape"></path>
                            <path d="M0,14.6125488 L0,6.88047 C0,4.740585 1.740585,3.27891605 3.88047,3.27891605 L11.3782959,3.27891605 C11.7860109,3.27891605 12.1168359,3.60974105 12.1168359,4.01745605 C12.1168359,4.42517105 11.7860109,4.75599605 11.3782959,4.75599605 L3.880415,4.75599605 C2.555245,4.75599605 1.47708,5.5553 1.47708,6.880415 L1.47708,14.6125488 C1.47708,16.3080444 2.54003906,17.2739258 4.11474609,17.2739258 C4.28370706,17.2739258 6.67276535,17.2739258 7.02101402,17.2739258 C7.3692627,17.2739258 7.68106079,17.6760864 7.68106079,18.0167542 C7.68106079,18.3574219 7.33679199,18.6807861 7.02101402,18.6807861 C6.90597616,18.6807861 4.23161839,18.6807861 4.11474609,18.6807861 C1.50231934,18.6807861 0,17.2357178 0,14.6125488 Z" id="Shape"></path>
                            <path d="M9.90000153,14.6125488 L9.90000153,6.88047 C9.90000153,4.740585 11.6405865,3.27891605 13.7804715,3.27891605 L21.2782974,3.27891605 C21.6860124,3.27891605 22.0168374,3.60974105 22.0168374,4.01745605 C22.0168374,4.42517105 21.6860124,4.75599605 21.2782974,4.75599605 L13.7804165,4.75599605 C12.4552465,4.75599605 11.3770815,5.5553 11.3770815,6.880415 L11.3770815,14.6125488 C11.3770815,16.3080444 12.4400406,17.2739258 14.0147476,17.2739258 C14.1837086,17.2739258 16.5727669,17.2739258 16.9210155,17.2739258 C17.2692642,17.2739258 17.5810623,17.6760864 17.5810623,18.0167542 C17.5810623,18.3574219 17.2367935,18.6807861 16.9210155,18.6807861 C16.8059777,18.6807861 14.1316199,18.6807861 14.0147476,18.6807861 C11.4023209,18.6807861 9.90000153,17.2357178 9.90000153,14.6125488 Z" id="Shape-Copy" transform="translate(15.958419, 10.979851) scale(-1, -1) translate(-15.958419, -10.979851) "></path>
                            <path d="M12.3990746,22 C12.2453687,22 12.0913496,21.9311016 11.9739441,21.792936 L9.17595157,18.5001918 C9.06324588,18.367557 9,18.1874098 9,17.9998881 C9,17.8123664 9.06324588,17.6322191 9.17595157,17.4995844 L11.9739441,14.2072089 C12.2087103,13.9309304 12.5893941,13.9309304 12.8241603,14.2072089 C13.0586132,14.4834873 13.0586132,14.9314851 12.8241603,15.2077636 L10.450985,17.9998354 L12.8241603,20.7922759 C13.0586132,21.0685544 13.0586132,21.5165522 12.8241603,21.7928307 C12.7067996,21.9311542 12.5527804,22 12.3990746,22 Z" id="Shape"></path>
                        </g>
                    </g>
                </g>
            </g>
        </g>
    </g>
</svg>