<?xml version="1.0" encoding="UTF-8"?>
<svg width="22px" height="19px" viewBox="0 0 22 19" version="1.1" xmlns="http://www.w3.org/2000/svg" xmlns:xlink="http://www.w3.org/1999/xlink">
    <!-- Generator: sketchtool 48.2 (47327) - http://www.bohemiancoding.com/sketch -->
    <title>ECB90D87-D0F2-4D78-952A-3441C4727D60-2654-000041CAB306A9EC</title>
    <desc>Created with sketchtool.</desc>
    <defs></defs>
    <g id="1366_dashboard" stroke="none" stroke-width="1" fill="none" fill-rule="evenodd" transform="translate(-25.000000, -353.000000)">
        <g id="vertical-menu" transform="translate(0.000000, 80.000000)" fill="#78789A" fill-rule="nonzero">
            <g id="whitelist">
                <g transform="translate(0.000000, 258.000000)">
                    <g id="Group-17">
                        <g id="icon_whitelist_dark" transform="translate(25.000000, 15.000000)">
                            <path d="M20.7512295,8.25821429 L20.2282787,8.25821429 L20.2282787,5.10511905 C20.2282787,3.81583333 19.182377,2.77083333 17.9020492,2.77083333 L17.4196721,2.77083333 L17.4241803,1.59916667 C17.4241803,0.730595238 16.7209016,0.0248809524 15.8553279,0.0248809524 L1.90696721,0.0248809524 C0.86557377,0.0248809524 0.0135245902,0.866309524 0,1.91130952 C0,1.91734127 0,7.07448413 0,17.3827381 C0,18.2513095 0.703278689,18.9570238 1.56885246,18.9570238 L17.9065574,18.9570238 C19.1913934,18.9570238 20.2327869,17.9075 20.2327869,16.6227381 L20.2327869,13.465119 L20.7557377,13.465119 C21.4319672,13.465119 21.9819672,12.9132143 21.9819672,12.2346429 L21.9819672,9.48869048 C21.977459,8.81011905 21.427459,8.25821429 20.7512295,8.25821429 Z M1.90696721,1.11059524 L15.8553279,1.11059524 C16.1213115,1.11059524 16.3422131,1.3277381 16.3422131,1.59464286 L16.3377049,2.77083333 L1.90696721,2.77083333 C1.45163934,2.77083333 1.08196721,2.39988095 1.08196721,1.94297619 C1.08196721,1.48607143 1.45163934,1.11059524 1.90696721,1.11059524 Z M19.1463115,16.6182143 C19.1463115,17.3058333 18.5872951,17.8667857 17.9020492,17.8667857 L1.56434426,17.8667857 C1.29836066,17.8667857 1.07745902,17.6496429 1.07745902,17.3782143 L1.07745902,3.66654762 C1.32991803,3.78869048 1.60942623,3.85654762 1.90696721,3.85654762 L17.9020492,3.85654762 C18.5872951,3.85654762 19.1463115,4.4175 19.1463115,5.10511905 L19.1463115,8.25821429 L15.4540984,8.25821429 C14.7778689,8.25821429 14.2278689,8.81011905 14.2278689,9.48869048 L14.2278689,12.2346429 C14.2278689,12.9132143 14.7778689,13.465119 15.4540984,13.465119 L19.1463115,13.465119 L19.1463115,16.6182143 Z M20.7512295,12.3794048 L15.4586066,12.3794048 C15.377459,12.3794048 15.3143443,12.3160714 15.3143443,12.2346429 L15.3143443,9.48869048 C15.3143443,9.41178571 15.377459,9.34392857 15.4586066,9.34392857 L20.7512295,9.34392857 C20.8278689,9.34392857 20.8954918,9.4072619 20.8954918,9.48869048 L20.8954918,12.2346429 C20.8954918,12.3160714 20.832377,12.3794048 20.7512295,12.3794048 Z" id="Shape"></path>
                        </g>
                    </g>
                </g>
            </g>
        </g>
    </g>
</svg>