<?xml version="1.0" encoding="UTF-8"?>
<svg width="14px" height="14px" viewBox="0 0 14 14" version="1.1" xmlns="http://www.w3.org/2000/svg" xmlns:xlink="http://www.w3.org/1999/xlink">
    <!-- Generator: sketchtool 49.1 (51147) - http://www.bohemiancoding.com/sketch -->
    <title>F9AA909D-8169-4E1A-9EAD-638FB267CD48-618-00000D58A26A9627</title>
    <desc>Created with sketchtool.</desc>
    <defs></defs>
    <g id="2)-Dashboard" stroke="none" stroke-width="1" fill="none" fill-rule="evenodd">
        <g id="1366_bounty-reward" transform="translate(-911.000000, -1719.000000)" fill="#8F95A5" fill-rule="nonzero">
            <g id="box/bounty/quest-copy-3" transform="translate(658.000000, 1446.000000)">
                <g id="Group-2-Copy">
                    <g id="btn/learn-more" transform="translate(160.000000, 253.000000)">
                        <g id="Group-4-Copy">
                            <g id="Group" transform="translate(14.000000, 19.000000)">
                                <g id="information-icon" transform="translate(79.000000, 1.000000)">
                                    <path d="M7,0 C3.1402,0 0,3.14024242 0,7.00004242 C0,10.8598424 3.1402,14 7,14 C10.8598,14 14,10.8598424 14,7.00004242 C14,3.14024242 10.8598,0 7,0 Z M7,12.7272727 C3.84193939,12.7272727 1.27272727,10.1580606 1.27272727,7.00004242 C1.27272727,3.84202424 3.84193939,1.27272727 7,1.27272727 C10.1580606,1.27272727 12.7272727,3.84202424 12.7272727,7.00004242 C12.7272727,10.1580606 10.1580182,12.7272727 7,12.7272727 Z" id="Shape"></path>
                                    <path d="M6.99991515,2.96969697 C6.53214545,2.96969697 6.1516,3.35049697 6.1516,3.81856364 C6.1516,4.28620606 6.53214545,4.66666667 6.99991515,4.66666667 C7.46768485,4.66666667 7.8482303,4.28620606 7.8482303,3.81856364 C7.8482303,3.35049697 7.46768485,2.96969697 6.99991515,2.96969697 Z" id="Shape"></path>
                                    <path d="M7,5.93939394 C6.64855758,5.93939394 6.36363636,6.22431515 6.36363636,6.57575758 L6.36363636,10.3939394 C6.36363636,10.7453818 6.64855758,11.030303 7,11.030303 C7.35144242,11.030303 7.63636364,10.7453818 7.63636364,10.3939394 L7.63636364,6.57575758 C7.63636364,6.22431515 7.35144242,5.93939394 7,5.93939394 Z" id="Shape"></path>
                                </g>
                            </g>
                        </g>
                    </g>
                </g>
            </g>
        </g>
    </g>
</svg>