<?xml version="1.0" encoding="utf-8"?>
<!-- Generator: Adobe Illustrator 21.1.0, SVG Export Plug-In . SVG Version: 6.00 Build 0)  -->
<svg version="1.1" id="Layer_1" xmlns="http://www.w3.org/2000/svg" xmlns:xlink="http://www.w3.org/1999/xlink" x="0px" y="0px"
	 viewBox="0 0 56.7 56.7" style="enable-background:new 0 0 56.7 56.7;" xml:space="preserve">
<style type="text/css">
	.st0{fill:#FFFFFF;}
</style>
<path class="st0" d="M39.3,10.8c3.6,0,6.5,2.9,6.5,6.5v21.9c0,3.6-2.9,6.5-6.5,6.5H17.4c-3.6,0-6.5-2.9-6.5-6.5V17.3
	c0-3.6,2.9-6.5,6.5-6.5H39.3 M39.3,9.8H17.4c-4.2,0-7.6,3.4-7.6,7.6v21.9c0,4.2,3.4,7.6,7.6,7.6h21.9c4.2,0,7.6-3.4,7.6-7.6V17.4
	C46.8,13.2,43.4,9.8,39.3,9.8L39.3,9.8z"/>
<g>
	<path class="st0" d="M32.7,21.5c-1.5-0.2-7-0.2-8.5,0s-2.5,1.1-2.7,2.6c-0.2,1.6-0.2,7.5,0,8.7c0.2,1.2,0.9,2.1,2.1,2.4
		c1.3,0.4,7.5,0.3,8.9,0.1c1.5-0.2,2.5-1.1,2.7-2.6c0.2-1.5,0.2-7.1,0-8.5C35.1,22.7,34.2,21.7,32.7,21.5z M28.3,32.8
		c-2.4,0-4.4-2-4.4-4.4s2-4.4,4.4-4.4s4.4,2,4.4,4.4S30.8,32.8,28.3,32.8z M32.9,24.8c-0.6,0-1-0.5-1-1c0-0.6,0.5-1,1-1s1,0.5,1,1
		S33.5,24.8,32.9,24.8z"/>
	<path class="st0" d="M36.9,13.6H19.8c-3.4,0-6.2,2.8-6.2,6.2v17.1c0,3.4,2.8,6.2,6.2,6.2h17.1c3.4,0,6.2-2.8,6.2-6.2V19.8
		C43.1,16.4,40.3,13.6,36.9,13.6z M36.7,33.4c-0.5,2-1.8,3.1-3.8,3.5c-1.5,0.2-8.2,0.3-9.6-0.1c-2-0.5-3.1-1.8-3.5-3.8
		c-0.2-1.5-0.3-8.2,0.1-9.7c0.5-1.9,1.8-3,3.7-3.4c1.7-0.3,6.5-0.2,8.5-0.1c1.2,0.1,2.3,0.4,3.2,1.3c0.8,0.8,1.3,1.8,1.4,2.9
		C37,25.4,37.1,31.8,36.7,33.4z"/>
	<circle class="st0" cx="28.3" cy="28.4" r="2.9"/>
</g>
</svg>
