<?xml version="1.0" encoding="utf-8"?>
<!-- Generator: Adobe Illustrator 21.1.0, SVG Export Plug-In . SVG Version: 6.00 Build 0)  -->
<svg version="1.1" id="Layer_1" xmlns="http://www.w3.org/2000/svg" xmlns:xlink="http://www.w3.org/1999/xlink" x="0px" y="0px"
	 viewBox="0 0 56.7 56.7" style="enable-background:new 0 0 56.7 56.7;" xml:space="preserve">
<style type="text/css">
	.st0{fill:#1C76BC;}
</style>
<g>
	<path class="st0" d="M38.8,49h-21c-5.6,0-10.2-4.6-10.2-10.2v-21c0-5.6,4.6-10.2,10.2-10.2h21c5.6,0,10.2,4.6,10.2,10.2v21
		C49.1,44.4,44.5,49,38.8,49z M17.9,10.8c-3.9,0-7.2,3.2-7.2,7.2v21c0,3.9,3.2,7.2,7.2,7.2h21c3.9,0,7.2-3.2,7.2-7.2v-21
		c0-3.9-3.2-7.2-7.2-7.2C38.9,10.7,17.9,10.7,17.9,10.8z"/>
	<path class="st0" d="M28.4,39.5c-6.2,0-11.2-5-11.2-11.2s5-11.2,11.2-11.2s11.2,5,11.2,11.2C39.5,34.5,34.5,39.5,28.4,39.5z
		 M28.4,20.3c-4.5,0-8.1,3.6-8.1,8.1s3.6,8.1,8.1,8.1s8.1-3.6,8.1-8.1S32.8,20.3,28.4,20.3z"/>
	<circle class="st0" cx="39.9" cy="16.6" r="1.7"/>
</g>
</svg>
