<?xml version="1.0" encoding="utf-8"?>
<!-- Generator: Adobe Illustrator 20.1.0, SVG Export Plug-In . SVG Version: 6.00 Build 0)  -->
<svg version="1.1" id="Layer_1" xmlns="http://www.w3.org/2000/svg" xmlns:xlink="http://www.w3.org/1999/xlink" x="0px" y="0px"
	 viewBox="0 0 37.5 37.2" style="enable-background:new 0 0 37.5 37.2;" xml:space="preserve">
<style type="text/css">
	.st0{fill:#FFFFFF;}
</style>
<path class="st0" d="M29.7,1.1c3.6,0,6.5,2.9,6.5,6.5v21.9c0,3.6-2.9,6.5-6.5,6.5H7.8c-3.6,0-6.5-2.9-6.5-6.5V7.5
	C1.3,3.9,4.2,1,7.8,1L29.7,1.1 M29.7,0.1H7.8c-4.2,0-7.6,3.4-7.6,7.6v21.9c0,4.2,3.4,7.6,7.6,7.6h21.9c4.2,0,7.6-3.4,7.6-7.6V7.6
	C37.2,3.4,33.8,0.1,29.7,0.1L29.7,0.1z"/>
<g>
	<path class="st0" d="M23.1,11.8c-1.5-0.2-7-0.2-8.5,0s-2.5,1.1-2.7,2.6c-0.2,1.6-0.2,7.5,0,8.7c0.2,1.2,0.9,2.1,2.1,2.4
		c1.3,0.4,7.5,0.3,8.9,0.1c1.5-0.2,2.5-1.1,2.7-2.6s0.2-7.1,0-8.5C25.5,13,24.6,12,23.1,11.8z M18.7,23c-2.4,0-4.4-2-4.4-4.4
		s2-4.4,4.4-4.4s4.4,2,4.4,4.4S21.2,23,18.7,23z M23.3,15c-0.6,0-1-0.5-1-1c0-0.6,0.5-1,1-1s1,0.5,1,1S23.9,15,23.3,15z"/>
	<path class="st0" d="M27.3,3.9H10.2C6.8,3.9,4,6.6,4,10v17.1c0,3.4,2.8,6.2,6.2,6.2h17.1c3.4,0,6.2-2.8,6.2-6.2V10
		C33.5,6.6,30.7,3.9,27.3,3.9z M27.1,23.7c-0.5,2-1.8,3.1-3.8,3.5c-1.5,0.2-8.2,0.3-9.6-0.1c-2-0.5-3.1-1.8-3.5-3.8
		c-0.2-1.5-0.3-8.2,0.1-9.7c0.5-1.9,1.8-3,3.7-3.4c1.7-0.3,6.5-0.2,8.5-0.1c1.2,0.1,2.3,0.4,3.2,1.3c0.8,0.8,1.3,1.8,1.4,2.9
		C27.4,15.6,27.5,22,27.1,23.7z"/>
	<circle class="st0" cx="18.7" cy="18.6" r="2.9"/>
</g>
</svg>
