<?xml version="1.0" encoding="utf-8"?>
<!-- Generator: Adobe Illustrator 21.1.0, SVG Export Plug-In . SVG Version: 6.00 Build 0)  -->
<svg version="1.1" id="Layer_1" xmlns="http://www.w3.org/2000/svg" xmlns:xlink="http://www.w3.org/1999/xlink" x="0px" y="0px"
	 viewBox="0 0 56.7 56.7" style="enable-background:new 0 0 56.7 56.7;" xml:space="preserve">
<style type="text/css">
	.st0{fill:#FFFFFF;}
</style>
<path class="st0" d="M39.3,10.8c3.6,0,6.5,2.9,6.5,6.5v21.9c0,3.6-2.9,6.5-6.5,6.5H17.4c-3.6,0-6.5-2.9-6.5-6.5V17.3
	c0-3.6,2.9-6.5,6.5-6.5L39.3,10.8 M39.3,9.8H17.4c-4.2,0-7.6,3.4-7.6,7.6v21.9c0,4.2,3.4,7.6,7.6,7.6h21.9c4.2,0,7.6-3.4,7.6-7.6
	V17.4C46.8,13.2,43.4,9.8,39.3,9.8L39.3,9.8z"/>
<path class="st0" d="M36.9,13.6H19.8c-3.4,0-6.2,2.8-6.2,6.2v17.1c0,3.4,2.8,6.2,6.2,6.2h17.1c3.4,0,6.2-2.8,6.2-6.2V19.8
	C43.1,16.4,40.3,13.6,36.9,13.6z M24.2,35.8h-3.1v-9.9h3.1V35.8z M22.7,24.5c-1,0-1.8-0.8-1.8-1.8s0.8-1.8,1.8-1.8s1.8,0.8,1.8,1.8
	S23.7,24.5,22.7,24.5z M35.7,35.8h-3.1V31c0-1.1,0-2.6-1.6-2.6s-1.8,1.2-1.8,2.5v4.9h-3.1v-9.9H29v1.4l0,0c0.4-0.8,1.4-1.6,2.9-1.6
	c3.1,0,3.7,2,3.7,4.7v5.4C35.6,35.8,35.7,35.8,35.7,35.8z"/>
</svg>
