<?xml version="1.0" encoding="utf-8"?>
<!-- Generator: Adobe Illustrator 20.1.0, SVG Export Plug-In . SVG Version: 6.00 Build 0)  -->
<svg version="1.1" id="Layer_1" xmlns="http://www.w3.org/2000/svg" xmlns:xlink="http://www.w3.org/1999/xlink" x="0px" y="0px"
	 viewBox="0 0 37.4 37.4" style="enable-background:new 0 0 37.4 37.4;" xml:space="preserve">
<style type="text/css">
	.st0{fill:#FFFFFF;}
</style>
<path class="st0" d="M29.6,1.2c3.6,0,6.5,2.9,6.5,6.5v21.9c0,3.6-2.9,6.5-6.5,6.5H7.7c-3.6,0-6.5-2.9-6.5-6.5V7.7
	c0-3.6,2.9-6.5,6.5-6.5L29.6,1.2 M29.6,0.2H7.7c-4.2,0-7.6,3.4-7.6,7.6v21.9c0,4.2,3.4,7.6,7.6,7.6h21.9c4.2,0,7.6-3.4,7.6-7.6V7.8
	C37.1,3.6,33.7,0.2,29.6,0.2L29.6,0.2z"/>
<path class="st0" d="M27.2,4H10.1c-3.4,0-6.2,2.8-6.2,6.2v17.1c0,3.4,2.8,6.2,6.2,6.2h17.1c3.4,0,6.2-2.8,6.2-6.2V10.2
	C33.4,6.8,30.6,4,27.2,4z M14.5,26.2h-3.1v-9.9h3.1V26.2z M13,14.9c-1,0-1.8-0.8-1.8-1.8s0.8-1.8,1.8-1.8s1.8,0.8,1.8,1.8
	S14,14.9,13,14.9z M26,26.2h-3.1v-4.8c0-1.1,0-2.6-1.6-2.6s-1.8,1.2-1.8,2.5v4.9h-3.1v-9.9h2.9v1.4l0,0c0.4-0.8,1.4-1.6,2.9-1.6
	c3.1,0,3.7,2,3.7,4.7v5.4H26z"/>
</svg>
