<?xml version="1.0" encoding="utf-8"?>
<!-- Generator: Adobe Illustrator 20.1.0, SVG Export Plug-In . SVG Version: 6.00 Build 0)  -->
<svg version="1.1" id="Layer_1" xmlns="http://www.w3.org/2000/svg" xmlns:xlink="http://www.w3.org/1999/xlink" x="0px" y="0px"
	 viewBox="0 0 14 21.3" style="enable-background:new 0 0 14 21.3;" xml:space="preserve">
<style type="text/css">
	.st0{fill:#1C76BC;}
</style>
<g>
	<path class="st0" d="M7.4,9.4"/>
	<path class="st0" d="M7.4,9.4"/>
	<path class="st0" d="M9.1,9.4L7.9,8.1c0.3-0.3,0.5-0.6,0.5-1c0-0.8-0.6-1.4-1.4-1.4c-0.8,0-1.4,0.6-1.4,1.4c0,0.4,0.2,0.7,0.5,1
		L4.9,9.5C4.2,8.9,3.8,8,3.8,7.1c0-1.8,1.4-3.2,3.2-3.2s3.2,1.4,3.2,3.2C10.2,8,9.8,8.8,9.1,9.4z"/>
	<path class="st0" d="M11.1,21.3H2.8c-0.3,0-0.5-0.1-0.7-0.3c-0.2-0.2-0.2-0.5-0.2-0.8l1.7-7.1c-2.1-1.2-3.5-3.5-3.5-6
		c0-3.8,3.1-6.9,6.9-6.9s6.9,3.1,6.9,6.9c0,2.5-1.4,4.8-3.5,6l1.7,7.1c0.1,0.3,0,0.6-0.2,0.8C11.6,21.1,11.4,21.3,11.1,21.3z
		 M4,19.4h5.9l-1.6-6.7c-0.1-0.5,0.1-0.9,0.6-1.1C10.8,10.8,12,9,12,7c0-2.8-2.3-5-5-5C4.2,2,2,4.3,2,7c0,2,1.2,3.8,3.1,4.6
		c0,0,0.1,0,0.1,0.1l0,0l0,0c0.1,0,0.1,0.1,0.2,0.1c0.1,0.1,0.2,0.3,0.3,0.5c0,0.1,0,0.2,0,0.3v0.1L4,19.4z"/>
</g>
</svg>
