<?xml version="1.0" encoding="utf-8"?>
<!-- Generator: Adobe Illustrator 21.1.0, SVG Export Plug-In . SVG Version: 6.00 Build 0)  -->
<svg version="1.1" id="Layer_1" xmlns="http://www.w3.org/2000/svg" xmlns:xlink="http://www.w3.org/1999/xlink" x="0px" y="0px"
	 viewBox="0 0 198.4 56.7" style="enable-background:new 0 0 198.4 56.7;" xml:space="preserve">
<style type="text/css">
	.st0{fill:#B4B4B4;}
	.st1{fill:#0799D4;}
	.st2{fill:#1C76BC;}
	.st3{fill:#214497;}
	.st4{fill:#0A5AA8;}
	.st5{fill:#209DD8;}
	.st6{fill:#168ACB;}
	.st7{fill:#30C5F4;}
</style>
<g>
	<rect x="67.1" y="37.6" class="st0" width="49.7" height="0.9"/>
	<rect x="187.7" y="37.6" class="st0" width="6.6" height="0.9"/>
	<g>
		<path class="st0" d="M73.8,29.3V18.5h-6.6V16h16.1v2.5h-6.6v10.8H73.8z"/>
		<path class="st0" d="M86.2,16h11.6c3.3,0,5.3,1.5,5.3,4.2c0,1.9-1,3-2.7,3.5c1.7,0.5,2.4,1.6,2.4,3v2.6h-2.9v-2.7
			c0-0.7-0.4-1.7-2.2-1.7H89v4.4h-2.8V16L86.2,16z M98,22.4c1.7,0,2.2-1.1,2.2-2s-0.5-2-2.2-2h-9v4H98z"/>
		<path class="st0" d="M124.8,29.3h-3l-1.7-3.3h-9.8l-1.7,3.3h-3l5.5-10.7c0.8-1.7,1.9-2.8,4.1-2.8s3.3,1.2,4.1,2.8L124.8,29.3z
			 M116.6,19.2c-0.3-0.6-0.7-0.9-1.4-0.9s-1.1,0.4-1.4,0.9l-2.3,4.4h7.3L116.6,19.2z"/>
		<path class="st0" d="M127.9,16h11c4.8,0,6.4,2.3,6.4,6.7s-1.6,6.7-6.4,6.7h-11C127.9,29.4,127.9,16,127.9,16z M138.8,18.7h-8.2
			v7.9h8.2c3.2,0,3.6-1.4,3.6-3.9C142.4,20.1,142,18.7,138.8,18.7z"/>
		<path class="st0" d="M151.7,16v13.3h-2.8V16H151.7z"/>
		<path class="st0" d="M158.8,29.3H156V16h2c3.6,0,4.6,1.2,7.9,5.8c3.2,4.4,3.4,4.7,4.9,4.7l0,0V16h2.8v13.3h-2
			c-3.3,0-4.3-1.1-7.9-5.8c-3.4-4.5-3.5-4.7-4.9-4.7l0,0V29.3z"/>
		<path class="st0" d="M194.3,22v7.3h-10.6c-4.8,0-6.4-2.3-6.4-6.7s1.6-6.7,6.4-6.7h10.4v2.7h-10.4c-3.2,0-3.6,1.4-3.6,3.9
			c0,2.6,0.4,4,3.6,4h7.8V22H194.3L194.3,22z"/>
	</g>
	<g>
		<path class="st1" d="M121.9,36.6c-1,0-1.4,0.4-1.4,1.1h5.6v1h-5.6c0.1,0.7,0.4,1.1,1.4,1.1h4.2v1.1h-4.2c-1.9,0-2.6-0.9-2.6-2.7
			s0.7-2.7,2.6-2.7h4.2v1.1C126.1,36.6,121.9,36.6,121.9,36.6z"/>
		<path class="st1" d="M127.7,35.5h4.4c1.9,0,2.6,0.9,2.6,2.7s-0.7,2.7-2.6,2.7h-4.4C127.7,40.9,127.7,35.5,127.7,35.5z M132.1,36.6
			h-3.3v3.2h3.3c1.3,0,1.4-0.6,1.4-1.6S133.3,36.6,132.1,36.6z"/>
		<path class="st1" d="M136,35.5h1.1v2.8c0,1.3,0.4,1.6,2.2,1.6s2.2-0.3,2.2-1.6v-2.8h1.1v2.8c0,1.9-0.9,2.6-3.3,2.6
			s-3.3-0.7-3.3-2.6V35.5z"/>
		<path class="st1" d="M150.8,36.6h-4.2c-1.3,0-1.4,0.6-1.4,1.6s0.2,1.6,1.4,1.6h4.2v1.1h-4.2c-1.9,0-2.6-0.9-2.6-2.7
			s0.7-2.7,2.6-2.7h4.2V36.6z"/>
		<path class="st1" d="M159.4,40.9h-1.2l-0.7-1.3h-3.9l-0.7,1.3h-1.2l2.2-4.3c0.3-0.7,0.7-1.1,1.7-1.1c0.9,0,1.3,0.5,1.7,1.1
			L159.4,40.9z M156.1,36.8c-0.1-0.2-0.3-0.4-0.6-0.4s-0.4,0.1-0.6,0.4l-0.9,1.7h2.9L156.1,36.8z"/>
		<path class="st1" d="M162,40.9v-4.3h-2.6v-1h6.4v1h-2.6v4.3H162z"/>
		<path class="st1" d="M168.1,35.5v5.3H167v-5.3H168.1z"/>
		<path class="st1" d="M177,38.2c0,2.1-1.2,2.7-3.7,2.7s-3.7-0.7-3.7-2.7s1.2-2.7,3.7-2.7S177,36.1,177,38.2z M175.8,38.2
			c0-1.5-0.9-1.7-2.6-1.7s-2.6,0.2-2.6,1.7s0.9,1.7,2.6,1.7S175.8,39.7,175.8,38.2z"/>
		<path class="st1" d="M179.5,40.9h-1.1v-5.3h0.8c1.4,0,1.8,0.5,3.2,2.3c1.3,1.8,1.4,1.9,1.9,1.9l0,0v-4.2h1.1v5.3h-0.8
			c-1.3,0-1.7-0.4-3.2-2.3c-1.4-1.8-1.4-1.9-1.9-1.9l0,0V40.9z"/>
	</g>
	<path class="st0" d="M44.5,37.3c-0.6,0.2-1,0.8-1,1.5v0.5c0,0.7,0.4,1.2,1,1.5V41c-0.5,0.2-0.9,0.7-1,1.3l0,0l0,0l0,0l-1.1,9.2
		c0,0,1.2-0.3,2.7-0.3c1.4,0,2.7,0.3,2.7,0.3l-1.1-9.2l0,0c-0.1-0.6-0.5-1.1-1-1.3v-0.2c0.6-0.2,1-0.8,1-1.5v-0.5
		c0-0.7-0.4-1.3-1-1.5v-9l-1.2-0.4L44.5,37.3L44.5,37.3z"/>
	<polygon class="st2" points="13.3,26.3 13.3,39.7 17.2,43.6 17.2,22.4 	"/>
	<polygon class="st3" points="21.1,26.3 21.1,39.7 17.2,43.6 17.2,22.4 	"/>
	<polygon class="st4" points="31.9,26.3 31.9,39.7 35.8,43.6 35.8,22.4 	"/>
	<polygon class="st5" points="39.8,26.3 39.8,39.7 35.8,43.6 35.8,22.4 	"/>
	<polygon class="st0" points="41.6,34 49.1,26.6 26.6,4.1 4.1,26.6 11.5,34 11.5,28.7 9.4,26.6 26.6,9.5 43.7,26.6 41.6,28.7 	"/>
	<polygon class="st6" points="19.1,20 19.1,45.2 26.6,52.6 26.6,12.6 	"/>
	<polygon class="st7" points="34,20 34,45.2 26.6,52.6 26.6,12.6 	"/>
</g>
</svg>
