<?xml version="1.0" encoding="utf-8"?>
<!-- Generator: Adobe Illustrator 21.1.0, SVG Export Plug-In . SVG Version: 6.00 Build 0)  -->
<svg version="1.1" id="Layer_1" xmlns="http://www.w3.org/2000/svg" xmlns:xlink="http://www.w3.org/1999/xlink" x="0px" y="0px"
	 viewBox="0 0 42.5 42.5" style="enable-background:new 0 0 42.5 42.5;" xml:space="preserve">
<style type="text/css">
	.st0{fill:#FFFFFF;}
	.st1{clip-path:url(#SVGID_2_);}
	.st2{fill:#16214D;}
</style>
<g>
	<g>
		<g>
			<g>
				<g>
					<circle id="SVGID_3_" class="st0" cx="21.3" cy="21.3" r="14.7"/>
				</g>
				<g>
					<g>
						<defs>
							<circle id="SVGID_1_" cx="21.3" cy="21.3" r="14.7"/>
						</defs>
						<clipPath id="SVGID_2_">
							<use xlink:href="#SVGID_1_"  style="overflow:visible;"/>
						</clipPath>
						<g class="st1">
							<path class="st2" d="M30.3,31.6c-2.5-1.6-4.9-2.6-5.4-2.8c-0.1,0-0.1-0.1-0.1-0.2v-1c0.3-0.5,0.6-1,0.6-1.5
								c0.2,0,0.6-0.3,0.9-1.4c0.5-1.4,0-1.6-0.5-1.6c0.1-0.2,0.1-0.4,0.2-0.6c0.7-3.7-1.4-3.8-1.4-3.8s-0.4-0.6-1.3-1
								c-0.6-0.3-1.5-0.6-2.6-0.5c-0.4,0-0.7,0.1-1,0.2c-0.4,0.1-0.8,0.3-1.2,0.5s-0.8,0.5-1.2,0.8c-0.6,0.5-1.1,1.1-1.3,1.9
								c-0.2,0.6-0.1,1.2,0,1.9c0,0.2,0.1,0.4,0.2,0.6c-0.4,0-0.9,0.2-0.5,1.6c0.3,1.1,0.7,1.3,0.9,1.4c0.1,0.5,0.3,1,0.6,1.5v1
								c0,0.1,0,0.1-0.1,0.2c-0.5,0.2-2.9,1.3-5.4,2.8c-1.2,0.8-1.9,1.4-1.4,1.9c0.9,1,2.2,3,2.2,3h16.9
								C32.8,35.9,31.6,32.5,30.3,31.6L30.3,31.6z"/>
							<path class="st2" d="M30.6,17.4L30.6,17.4c0-0.1-0.1-0.2-0.2-0.2l0,0c0.1,0,0.2-0.1,0.2-0.3v-0.1c0-0.1-0.1-0.2-0.2-0.3V15
								h-0.1l0.2-0.1l-9.2-3.7l0,0l0,0L12,14.9l4.4,1.8l0,0V18c1.6-0.9,2.6-1.7,4.5-1.7c2.5,0,3.5,0.9,5,1.8v-1.7l0,0l0,0l4.1-1.6
								v1.5c-0.1,0-0.2,0.1-0.2,0.3v0.1c0,0.1,0.1,0.2,0.2,0.3l0,0c-0.1,0-0.2,0.1-0.2,0.2l0,0l0,0l0,0l-0.2,1.6c0,0,0.2,0,0.5,0
								s0.5,0,0.5,0L30.6,17.4z"/>
						</g>
					</g>
				</g>
			</g>
		</g>
	</g>
</g>
</svg>
