<?xml version="1.0" encoding="utf-8"?>
<!-- Generator: Adobe Illustrator 21.1.0, SVG Export Plug-In . SVG Version: 6.00 Build 0)  -->
<svg version="1.1" id="Layer_1" xmlns="http://www.w3.org/2000/svg" xmlns:xlink="http://www.w3.org/1999/xlink" x="0px" y="0px"
	 viewBox="0 0 198.4 141.7" style="enable-background:new 0 0 198.4 141.7;" xml:space="preserve">
<style type="text/css">
	.st0{fill:#1C76BC;}
</style>
<g>
	<g>
		<path class="st0" d="M16.9,108.8h-4V94.3h6.3c1.9,0,3.2,0.4,4,1.2c0.8,0.8,1.2,2.1,1.2,4s-0.4,3.2-1.2,4.1c-0.8,0.9-2,1.3-3.7,1.3
			h-2.6V108.8z M19,101.9c0.4,0,0.7-0.1,0.8-0.2c0.2-0.1,0.2-0.4,0.2-0.8v-2.4c0-0.4-0.1-0.6-0.2-0.8c-0.2-0.1-0.4-0.2-0.8-0.2h-2.1
			v4.3L19,101.9L19,101.9z"/>
		<path class="st0" d="M33.4,106.3h-4.5l-0.7,2.5h-4L28,94.3h6.3l3.8,14.4h-4L33.4,106.3z M32.6,103.3l-1.3-5h-0.2l-1.3,5H32.6z"/>
		<path class="st0" d="M47.5,108.8l-2.1-4.4h-1.7v4.4h-4V94.3h6.4c1.9,0,3.2,0.4,4,1.2c0.8,0.8,1.2,2.1,1.2,4c0,1-0.1,1.9-0.4,2.6
			c-0.3,0.7-0.8,1.2-1.4,1.6l2.4,5L47.5,108.8L47.5,108.8z M43.7,101.3H46c0.4,0,0.7-0.1,0.8-0.2c0.2-0.1,0.2-0.4,0.2-0.8v-1.7
			c0-0.4-0.1-0.6-0.2-0.8c-0.2-0.1-0.4-0.2-0.8-0.2h-2.3V101.3z"/>
		<path class="st0" d="M60,108.8h-4v-11h-3.4v-3.4h10.8v3.3H60V108.8L60,108.8z"/>
		<path class="st0" d="M65,94.3h4l3.7,6c0.2,0.4,0.4,0.6,0.4,0.9c0.1,0.2,0.1,0.5,0.1,0.7h0.1v-7.6h4v14.4h-4l-3.7-6
			c-0.2-0.4-0.4-0.7-0.4-0.9c-0.1-0.2-0.1-0.5-0.1-0.7H69v7.6h-4V94.3z"/>
		<path class="st0" d="M84.4,105.3H90v3.3h-9.7V94.3h9.8l-0.5,3.3h-5.2v2.4h4.8v3h-4.8L84.4,105.3L84.4,105.3z"/>
		<path class="st0" d="M100.1,108.8l-2.1-4.4h-1.7v4.4h-4V94.3h6.4c1.9,0,3.2,0.4,4,1.2c0.8,0.8,1.2,2.1,1.2,4c0,1-0.1,1.9-0.4,2.6
			s-0.8,1.2-1.4,1.6l2.4,5L100.1,108.8L100.1,108.8z M96.3,101.3h2.3c0.4,0,0.7-0.1,0.8-0.2c0.2-0.1,0.2-0.4,0.2-0.8v-1.7
			c0-0.4-0.1-0.6-0.2-0.8c-0.2-0.1-0.4-0.2-0.8-0.2h-2.3V101.3z"/>
		<path class="st0" d="M119.1,108.9c-0.7,0.1-1.4,0.1-2.3,0.1c-1.6,0-2.8-0.2-3.7-0.7s-1.5-1.2-1.8-2.3c-0.4-1.1-0.5-2.6-0.5-4.5
			c0-2,0.2-3.5,0.6-4.6s1-1.8,2-2.3s2.2-0.7,3.9-0.7c0.6,0,1.3,0.1,2.1,0.2c0.7,0.1,1.3,0.2,1.6,0.4l-0.5,3.2
			c-0.5-0.1-1-0.2-1.6-0.3c-0.6-0.1-1.1-0.1-1.5-0.1c-0.9,0-1.4,0.1-1.8,0.3c-0.3,0.2-0.5,0.7-0.5,1.3v6.4c0.8,0.2,1.4,0.2,2,0.2
			s1.3,0,1.9-0.1s1.2-0.2,1.7-0.4l0.3,3.4C120.4,108.6,119.8,108.8,119.1,108.9z"/>
		<path class="st0" d="M126.9,105.3h5.6v3.3h-9.7V94.3h9.8l-0.5,3.3h-5.2v2.4h4.8v3h-4.8L126.9,105.3L126.9,105.3z"/>
		<path class="st0" d="M134.9,94.3h4l3.7,6c0.2,0.4,0.4,0.6,0.4,0.9c0.1,0.2,0.1,0.5,0.1,0.7h0.1v-7.6h4v14.4h-4l-3.7-6
			c-0.2-0.4-0.4-0.7-0.4-0.9c-0.1-0.2-0.1-0.5-0.1-0.7h-0.1v7.6h-4V94.3z"/>
		<path class="st0" d="M156.5,108.8h-4v-11h-3.4v-3.4h10.8v3.3h-3.4L156.5,108.8L156.5,108.8z"/>
		<path class="st0" d="M165.4,105.3h5.6v3.3h-9.7V94.3h9.8l-0.5,3.3h-5.2v2.4h4.8v3h-4.8L165.4,105.3L165.4,105.3z"/>
		<path class="st0" d="M181.1,108.8l-2.1-4.4h-1.7v4.4h-4V94.3h6.4c1.9,0,3.2,0.4,4,1.2c0.8,0.8,1.2,2.1,1.2,4c0,1-0.1,1.9-0.4,2.6
			c-0.3,0.7-0.8,1.2-1.4,1.6l2.4,5L181.1,108.8L181.1,108.8z M177.4,101.3h2.3c0.4,0,0.7-0.1,0.8-0.2c0.2-0.1,0.2-0.4,0.2-0.8v-1.7
			c0-0.4-0.1-0.6-0.2-0.8c-0.2-0.1-0.4-0.2-0.8-0.2h-2.3V101.3z"/>
	</g>
	<g>
		<path class="st0" d="M15.6,127.3h-1.5v-11.9h6.2l-0.2,1.3h-4.5v4.3h3.9v1.3h-3.9C15.6,122.3,15.6,127.3,15.6,127.3z"/>
		<path class="st0" d="M28.3,115.5v11.8h-1.5v-11.9L28.3,115.5L28.3,115.5z"/>
		<path class="st0" d="M36.3,115.5h1.5l5,8.1c0.2,0.4,0.3,0.6,0.4,0.7c0.1,0.1,0.1,0.2,0.1,0.4h0.1v-9.2h1.5v11.8h-1.5l-5-8.1
			c-0.2-0.4-0.3-0.6-0.4-0.7s-0.1-0.2-0.1-0.4h-0.1v9.2h-1.5V115.5z"/>
		<path class="st0" d="M56.9,115.5c1.3,0,2.2,0.2,2.9,0.5s1,0.9,1.3,1.7c0.2,0.8,0.3,2.1,0.3,3.8c0,1.7-0.1,3-0.3,3.8
			s-0.6,1.4-1.3,1.7c-0.6,0.3-1.6,0.5-2.9,0.5h-4v-11.9L56.9,115.5L56.9,115.5z M54.4,126.1h3.9c0.6,0,0.9-0.1,1.2-0.3
			c0.2-0.2,0.3-0.6,0.3-1.1v-6.4c0-0.5-0.1-0.9-0.3-1.1s-0.6-0.3-1.2-0.3h-3.9V126.1z"/>
		<path class="st0" d="M83.4,124.5h-4.8l-0.8,2.8h-1.5l3.6-11.9h2.3l3.6,11.9h-1.5L83.4,124.5z M83,123.3l-1.9-6.4h-0.2l-1.9,6.4H83
			z"/>
		<path class="st0" d="M108.9,122.3c0.3,0.5,0.4,1,0.4,1.7c0,1.1-0.3,1.9-0.8,2.5s-1.3,0.9-2.3,0.9h-5v-11.9h4.4
			c1.1,0,1.8,0.2,2.3,0.7s0.8,1.2,0.8,2.2c0,0.7-0.1,1.3-0.3,1.7s-0.5,0.8-0.9,1.1v0.1C108.3,121.5,108.6,121.9,108.9,122.3z
			 M106.9,117.1c-0.2-0.3-0.7-0.5-1.3-0.5h-2.8v4.2h2.8c0.6,0,1.1-0.2,1.3-0.5s0.4-0.8,0.4-1.6S107.1,117.4,106.9,117.1z
			 M107.4,125.8c0.3-0.4,0.4-0.9,0.4-1.7c0-0.7-0.1-1.3-0.4-1.6c-0.3-0.3-0.7-0.5-1.3-0.5h-3.3v4.3h3.3
			C106.8,126.3,107.3,126,107.4,125.8z"/>
		<path class="st0" d="M123.1,127.3l-2.1-4.4h-3v4.4h-1.5v-11.9h4.6c0.8,0,1.4,0.1,1.9,0.4s0.8,0.6,0.9,1.2c0.2,0.6,0.3,1.4,0.3,2.4
			s-0.1,1.8-0.4,2.3c-0.2,0.5-0.7,0.9-1.2,1.1l2.2,4.5H123.1z M118,121.8h3.1c0.5,0,0.9-0.1,1.1-0.2s0.3-0.3,0.3-0.6v-3.4
			c0-0.3-0.1-0.5-0.3-0.6s-0.6-0.2-1.1-0.2H118V121.8z"/>
		<path class="st0" d="M131.3,117.4c0.2-0.9,0.7-1.4,1.3-1.7c0.6-0.3,1.6-0.5,3-0.5s2.3,0.2,3,0.5s1.1,0.9,1.3,1.7s0.4,2.2,0.4,4
			s-0.1,3.2-0.4,4s-0.7,1.4-1.3,1.7c-0.6,0.3-1.6,0.5-3,0.5s-2.4-0.2-3-0.5s-1.1-0.9-1.3-1.7c-0.2-0.8-0.3-2.2-0.3-4
			S131.1,118.3,131.3,117.4z M136.9,126.3c0.6,0,1.1-0.1,1.3-0.3c0.2-0.2,0.4-0.6,0.4-1.1v-8.4h-4.4c-0.6,0-1,0.1-1.3,0.3
			c-0.2,0.2-0.4,0.6-0.4,1.2v8.4L136.9,126.3L136.9,126.3z"/>
		<path class="st0" d="M155.8,127.3h-1.7l-1.4-2.9c-0.3-0.6-0.5-1-0.6-1.4s-0.2-0.8-0.2-1.2h-2.8v5.5h-1.5v-11.9h1.5v5.2h2.8
			c0-0.4,0.1-0.8,0.2-1.2s0.3-0.9,0.6-1.4l1.3-2.6h1.7l-2.9,5.8L155.8,127.3z"/>
		<path class="st0" d="M163.6,126.1h5.4v1.3h-6.9v-11.9h6.8l-0.2,1.3h-5.1v4h4.6v1.2h-4.6V126.1z"/>
		<path class="st0" d="M182.6,127.3l-2.1-4.4h-3v4.4H176v-11.9h4.6c0.8,0,1.4,0.1,1.9,0.4s0.8,0.6,0.9,1.2c0.2,0.6,0.3,1.4,0.3,2.4
			s-0.1,1.8-0.4,2.3c-0.2,0.5-0.7,0.9-1.2,1.1l2.2,4.5H182.6z M177.6,121.8h3.1c0.5,0,0.9-0.1,1.1-0.2c0.2-0.1,0.3-0.3,0.3-0.6v-3.4
			c0-0.3-0.1-0.5-0.3-0.6s-0.6-0.2-1.1-0.2h-3.1V121.8z"/>
	</g>
	<g>
		<g>
			<g>
				<g>
					<g>
						<path class="st0" d="M82.4,33.3V29c-12,6.1-20.2,18.6-20.2,32.9c0,6.3,1.6,12.3,4.4,17.6c0.5,0.9,1.6,1.2,2.5,0.7
							s1.2-1.6,0.7-2.5c-2.5-4.7-4-10.1-4-15.8c0-9.2,3.7-17.5,9.7-23.5C77.8,36.5,80.1,34.8,82.4,33.3z"/>
						<path class="st0" d="M118.3,30.4v4.4c1.6,1.1,3.1,2.4,4.5,3.8c6,6,9.7,14.3,9.8,23.5c0,5.7-1.4,11.1-4,15.8
							c-0.5,0.9-0.1,2,0.7,2.5c0.3,0.1,0.6,0.2,0.9,0.2c0.7,0,1.3-0.3,1.6-1c2.8-5.2,4.4-11.2,4.4-17.6
							C136.1,48.5,128.9,36.9,118.3,30.4z"/>
					</g>
					<g>
						<path class="st0" d="M98.8,25.7l1.9-11.6L76.9,24.3l11.4,5l0,0v3.4c4.2-2.4,8.3-3.7,12.3-3.7l0,0v-3.4h-1.9L98.8,25.7
							L98.8,25.7z"/>
						<path class="st0" d="M124.4,24.2l-23.7-10.1l2,11.6h-2v3.4c4.2-0.1,8.3,1.2,12.3,3.7v-3.9l0,0l0,0L124.4,24.2z"/>
					</g>
				</g>
			</g>
		</g>
		<path class="st0" d="M90.4,47.5c0.4-0.7,0.9-1.3,1.6-1.7c0.9-1.5,0.7-3.6-0.7-5c-1.6-1.6-4.1-1.7-5.6-0.2L74.9,51.5
			c-1.5,1.5-1.4,4,0.2,5.6s4.1,1.7,5.6,0.2L90.4,47.5L90.4,47.5z"/>
		<path class="st0" d="M118.9,59.4l-11.7-11.7c-0.2-0.2-0.4-0.4-0.6-0.5l-0.2-0.2c-0.5-0.5-1-0.7-1.6-0.7l-11.2,0.4
			c-0.9,0.1-1.7,0.8-2.2,1.8l0,0l-3.6,8.9c-0.4,1.1-0.2,2.3,0.5,2.9c0.1,0.1,0.1,0.1,0.2,0.2c0.1,0.1,0.2,0.1,0.3,0.1l0.9,0.3
			c0.1,0,0.2,0.1,0.2,0.1c0.1,0,0.2,0,0.3,0c1,0,2-0.7,2.4-1.8l2.8-7H106h0.2L118,64l0.4-0.3c0.7-0.7,1.1-1.5,1.2-2.4
			C119.7,60.5,119.4,59.9,118.9,59.4z"/>
		<path class="st0" d="M85.4,70.8l0.2-0.2l0,0l0.3-0.3l0,0l0.4-0.4l0,0c0.3-0.3,0.5-0.5,0.7-0.8c0.8-1,1-1.6,1-2.3
			c0-0.6-0.2-1.1-0.6-1.5l0,0L87.1,65l-0.3-0.3l0,0c-0.4-0.4-0.9-0.6-1.5-0.6s-1.3,0.2-2.3,1c-0.2,0.2-0.5,0.4-0.8,0.7l0,0l-0.3,0.3
			l0,0l0,0l-0.3,0.3l0,0c-1.3,1.4-1.6,2.2-1.6,3c0,0.6,0.2,1.1,0.6,1.5l0,0l0.3,0.3l0.3,0.3l0,0c0.4,0.4,0.9,0.6,1.5,0.6
			C83.3,72.3,84.2,71.9,85.4,70.8L85.4,70.8L85.4,70.8z"/>
		<path class="st0" d="M117.8,66.3L105.4,54h-8.8l-2.4,5.9c-0.7,1.7-2.3,2.9-3.9,2.9H90c-0.1,0-0.3,0-0.4,0h-0.1
			c-0.2,0-0.3-0.1-0.4-0.1H89l-0.8-0.3c-0.2-0.1-0.3-0.1-0.4-0.2l0-0.2c-0.1-0.1-0.2-0.2-0.3-0.3c-1.3-1.2-1.7-3.1-1-4.9l1.5-3.7
			l-6.2,6.2c-0.4,0.4-0.6,1-0.6,1.6c0,1,0.4,1.9,1.2,2.7l0.4,0.4c0.9-0.7,1.8-1,2.7-1c1,0,1.8,0.4,2.4,1l0.6,0.6
			c0.6,0.6,0.9,1.4,1,2.3c0,0.2,0,0.3,0,0.5c0.1,0,0.3,0,0.4,0H90c0.9,0,1.7,0.4,2.3,1l0.6,0.6c0.6,0.6,0.9,1.4,1,2.3
			c0,0.2,0,0.3,0,0.5c0.1,0,0.3,0,0.4,0h0.1c0.9,0,1.7,0.4,2.3,1l0.6,0.6c0.6,0.6,0.9,1.4,1,2.3c0,0.2,0,0.3,0,0.5
			c0.1,0,0.3,0,0.4,0c1,0,1.8,0.4,2.4,1l0.7,0.7c0.5,0.6,0.9,1.4,0.9,2.2c0,0.9-0.3,1.8-1.1,2.8l0,0c1.7,1.7,2.4,1.9,3,1.9
			c0.5,0,0.8-0.2,1.1-0.5l0.6-0.6c0.3-0.3,0.4-0.7,0.5-1.1c0-0.6-0.2-1.4-1.9-3l-7.3-7.3c-0.3-0.3-0.3-0.7,0-1s0.8-0.3,1,0l7.3,7.3
			c1.7,1.7,2.4,1.9,3,1.9c0.5,0,0.8-0.2,1.1-0.4l0.6-0.6c0.3-0.3,0.4-0.7,0.5-1.1c0-0.6-0.2-1.4-1.9-3l-7.3-7.3
			c-0.3-0.3-0.3-0.7,0-1s0.7-0.3,1,0l7.3,7.3c1.7,1.7,2.4,1.9,3,1.9c0.5,0,0.8-0.2,1.1-0.5l0.6-0.6c0.3-0.3,0.4-0.7,0.5-1.1
			c0-0.6-0.2-1.3-1.7-2.8l-0.1-0.1l-7.4-7.4c-0.1-0.1-0.2-0.3-0.2-0.5s0.1-0.4,0.2-0.5c0.3-0.3,0.7-0.3,1,0l7.7,7.7h0.1l0.1,0.2
			c1.3,1.2,2,1.3,2.5,1.3s0.8-0.2,1.1-0.4l0.6-0.6c0.3-0.3,0.4-0.7,0.5-1.1C119.7,68.8,119.3,67.9,117.8,66.3z"/>
		<path class="st0" d="M125.2,51.5l-10.8-10.8c-1.5-1.5-4-1.4-5.6,0.2s-1.7,4.1-0.2,5.6l10.8,10.8c1.5,1.5,4,1.4,5.6-0.2
			C126.6,55.5,126.7,53,125.2,51.5L125.2,51.5z"/>
	</g>
</g>
</svg>
