<?xml version="1.0" encoding="UTF-8"?>
<svg width="25px" height="20px" viewBox="0 0 25 20" version="1.1" xmlns="http://www.w3.org/2000/svg" xmlns:xlink="http://www.w3.org/1999/xlink">
    <!-- Generator: sketchtool 49.1 (51147) - http://www.bohemiancoding.com/sketch -->
    <title>90F273A5-5BEC-4251-84C1-68CCECA7C64C</title>
    <desc>Created with sketchtool.</desc>
    <defs></defs>
    <g id="2)-Dashboard" stroke="none" stroke-width="1" fill="none" fill-rule="evenodd">
        <g id="1366_admin_bounty-reward_quests_add" transform="translate(-671.000000, -305.000000)" fill="#B7C3D4" fill-rule="nonzero">
            <g id="personal-info" transform="translate(376.000000, 197.000000)">
                <g id="icon/photocamera" transform="translate(295.000000, 108.000000)">
                    <path d="M0,6.12311558 L0,16.9874372 C0,18.6457286 1.34673367,19.9924623 3.00502513,19.9924623 L21.6180905,19.9924623 C23.2763819,19.9924623 24.6231156,18.6457286 24.6231156,16.9874372 L24.6231156,6.12311558 C24.6231156,4.54522613 23.3417085,3.2638191 21.7638191,3.2638191 L17.7638191,3.2638191 L17.6683417,2.84673367 C17.281407,1.17336683 15.8090452,0.00753768844 14.0904523,0.00753768844 L10.5276382,0.00753768844 C8.81407035,0.00753768844 7.34170854,1.17336683 6.94974874,2.84673367 L6.85427136,3.2638191 L2.85929648,3.2638191 C1.28140704,3.2638191 0,4.55025126 0,6.12311558 Z M7.34673367,4.49497487 C7.63316583,4.49497487 7.87939698,4.29899497 7.94472362,4.01758794 L8.15075377,3.12311558 C8.4120603,2.01256281 9.38693467,1.23869347 10.5276382,1.23869347 L14.0904523,1.23869347 C15.2311558,1.23869347 16.2060302,2.01256281 16.4673367,3.12311558 L16.6733668,4.01758794 C16.7386935,4.29396985 16.9849246,4.49497487 17.2713568,4.49497487 L21.758794,4.49497487 C22.6582915,4.49497487 23.3869347,5.22361809 23.3869347,6.12311558 L23.3869347,16.9874372 C23.3869347,17.9673367 22.5929648,18.7613065 21.6130653,18.7613065 L3.00502513,18.7613065 C2.02512563,18.7613065 1.23115578,17.9673367 1.23115578,16.9874372 L1.23115578,6.12311558 C1.23115578,5.22361809 1.95979899,4.49497487 2.85929648,4.49497487 L7.34673367,4.49497487 Z" id="Shape"></path>
                    <circle id="Oval" cx="4.16582915" cy="7.12311558" r="1"></circle>
                    <path d="M12.3115578,16.8316583 C15.160804,16.8316583 17.4824121,14.5100503 17.4824121,11.660804 C17.4824121,8.81155779 15.160804,6.48994975 12.3115578,6.48994975 C9.46231156,6.48994975 7.14070352,8.80653266 7.14070352,11.660804 C7.14070352,14.5150754 9.46231156,16.8316583 12.3115578,16.8316583 Z M12.3115578,7.72110553 C14.4824121,7.72110553 16.2512563,9.48994975 16.2512563,11.660804 C16.2512563,13.8316583 14.4824121,15.6005025 12.3115578,15.6005025 C10.1407035,15.6005025 8.3718593,13.8316583 8.3718593,11.660804 C8.3718593,9.48994975 10.1407035,7.72110553 12.3115578,7.72110553 Z" id="Shape"></path>
                </g>
            </g>
        </g>
    </g>
</svg>