<?xml version="1.0" encoding="utf-8"?>
<!-- Generator: Adobe Illustrator 20.1.0, SVG Export Plug-In . SVG Version: 6.00 Build 0)  -->
<svg version="1.1" id="Layer_1" xmlns="http://www.w3.org/2000/svg" xmlns:xlink="http://www.w3.org/1999/xlink" x="0px" y="0px"
	 viewBox="0 0 38.2 38.3" style="enable-background:new 0 0 38.2 38.3;" xml:space="preserve">
<style type="text/css">
	.st0{fill:#FFFFFF;stroke:#2D3543;stroke-miterlimit:10;}
	.st1{fill:#FFFFFF;stroke:#1F2C42;stroke-miterlimit:10;}
</style>
<path class="st0" d="M30,1.6c3.6,0,6.5,2.9,6.5,6.5V30c0,3.6-2.9,6.5-6.5,6.5H8.1c-3.6,0-6.5-2.9-6.5-6.5V8.1c0-3.6,2.9-6.5,6.5-6.5
	L30,1.6 M30,0.6H8.1C3.9,0.6,0.5,4,0.5,8.2v21.9c0,4.2,3.4,7.6,7.6,7.6H30c4.2,0,7.6-3.4,7.6-7.6V8.2C37.6,4,34.2,0.6,30,0.6L30,0.6
	z"/>
<path class="st1" d="M27.6,4.4H10.5c-3.4,0-6.2,2.8-6.2,6.2v17.1c0,3.4,2.8,6.2,6.2,6.2h17.1c3.4,0,6.2-2.8,6.2-6.2V10.6
	C33.9,7.2,31.1,4.4,27.6,4.4z M24.2,21.2c-1.8,2.2-4.6,2.3-5.9,1c-0.1-0.1-0.2-0.2-0.3-0.3V22c-0.6,2.5-0.7,3-1.4,4.2
	c-0.3,0.5-0.7,1.1-1,1.6c0,0.1-0.1,0.1-0.2,0.1s-0.1-0.1-0.1-0.2c-0.1-0.8-0.2-1.5-0.1-2.3c0-1,0.2-1.3,1.4-6.7c0-0.1,0-0.2,0-0.2
	c-0.3-0.8-0.4-1.7-0.1-2.5c0.6-1.8,2.7-2,3-0.5c0.2,0.9-0.4,2.2-0.8,4c-0.4,1.5,1.4,2.6,2.9,1.5c1.4-1,1.9-3.4,1.8-5.1
	c-0.2-3.4-3.9-4.1-6.3-3c-2.7,1.3-3.3,4.6-2.1,6.2c0.2,0.2,0.3,0.3,0.2,0.5c-0.1,0.3-0.1,0.6-0.2,0.9c-0.1,0.2-0.3,0.3-0.5,0.2
	c-0.5-0.2-0.8-0.5-1.1-0.9c-1-1.3-1.3-3.8,0-6c1.5-2.4,4.4-3.4,7-3.1c3.1,0.4,5.1,2.5,5.4,4.9C25.9,16.6,25.8,19.2,24.2,21.2z"/>
</svg>
