<?xml version="1.0" encoding="utf-8"?>
<!-- Generator: Adobe Illustrator 21.1.0, SVG Export Plug-In . SVG Version: 6.00 Build 0)  -->
<svg version="1.1" id="Layer_1" xmlns="http://www.w3.org/2000/svg" xmlns:xlink="http://www.w3.org/1999/xlink" x="0px" y="0px"
	 viewBox="0 0 56.7 56.7" style="enable-background:new 0 0 56.7 56.7;" xml:space="preserve">
<style type="text/css">
	.st0{fill:#FFFFFF;}
</style>
<path class="st0" d="M39.3,10.8c3.6,0,6.5,2.9,6.5,6.5v21.9c0,3.6-2.9,6.5-6.5,6.5H17.4c-3.6,0-6.5-2.9-6.5-6.5V17.3
	c0-3.6,2.9-6.5,6.5-6.5L39.3,10.8 M39.3,9.8H17.4c-4.2,0-7.6,3.4-7.6,7.6v21.9c0,4.2,3.4,7.6,7.6,7.6h21.9c4.2,0,7.6-3.4,7.6-7.6
	V17.4C46.9,13.2,43.5,9.8,39.3,9.8L39.3,9.8z"/>
<path class="st0" d="M36.9,13.6H19.8c-3.4,0-6.2,2.8-6.2,6.2v17.1c0,3.4,2.8,6.2,6.2,6.2h17.1c3.4,0,6.2-2.8,6.2-6.2V19.8
	C43.2,16.4,40.4,13.6,36.9,13.6z M33.5,30.4c-1.8,2.2-4.6,2.3-5.9,1c-0.1-0.1-0.2-0.2-0.3-0.3v0.1c-0.6,2.5-0.7,3-1.4,4.2
	c-0.3,0.5-0.7,1.1-1,1.6c0,0.1-0.1,0.1-0.2,0.1s-0.1-0.1-0.1-0.2c-0.1-0.8-0.2-1.5-0.1-2.3c0-1,0.2-1.3,1.4-6.7c0-0.1,0-0.2,0-0.2
	c-0.3-0.8-0.4-1.7-0.1-2.5c0.6-1.8,2.7-2,3-0.5c0.2,0.9-0.4,2.2-0.8,4c-0.4,1.5,1.4,2.6,2.9,1.5c1.4-1,1.9-3.4,1.8-5.1
	c-0.2-3.4-3.9-4.1-6.3-3c-2.7,1.3-3.3,4.6-2.1,6.2c0.2,0.2,0.3,0.3,0.2,0.5c-0.1,0.3-0.1,0.6-0.2,0.9c-0.1,0.2-0.3,0.3-0.5,0.2
	c-0.5-0.2-0.8-0.5-1.1-0.9c-1-1.3-1.3-3.8,0-6c1.5-2.4,4.4-3.4,7-3.1c3.1,0.4,5.1,2.5,5.4,4.9C35.2,25.8,35.1,28.4,33.5,30.4z"/>
</svg>
