<?xml version="1.0" encoding="UTF-8"?>
<svg width="12px" height="12px" viewBox="0 0 12 12" version="1.1" xmlns="http://www.w3.org/2000/svg" xmlns:xlink="http://www.w3.org/1999/xlink">
    <!-- Generator: sketchtool 49.1 (51147) - http://www.bohemiancoding.com/sketch -->
    <title>75D930C6-F23E-4567-BF38-0083FEC8492E</title>
    <desc>Created with sketchtool.</desc>
    <defs></defs>
    <g id="2)-Dashboard" stroke="none" stroke-width="1" fill="none" fill-rule="evenodd">
        <g id="1366_admin_bounty-reward_quests" transform="translate(-415.000000, -443.000000)" fill="#FFFFFF" fill-rule="nonzero">
            <g id="box/bounty/follow-us-copy" transform="translate(310.000000, 281.000000)">
                <g id="Group-2-Copy">
                    <g id="btn/orange" transform="translate(84.000000, 142.000000)">
                        <g id="icon/plus" transform="translate(21.000000, 20.000000)">
                            <path d="M11.2955122,5.31554007 L6.64440418,5.31554007 L6.64440418,0.664432056 C6.64440418,0.297658537 6.34540767,0 5.97997213,0 C5.61319861,0 5.31554007,0.297658537 5.31554007,0.664432056 L5.31554007,5.31554007 L0.664432056,5.31554007 C0.297658537,5.31554007 0,5.61319861 0,5.97997213 C0,6.34540767 0.297658537,6.64440418 0.664432056,6.64440418 L5.31554007,6.64440418 L5.31554007,11.2955122 C5.31554007,11.6609477 5.61319861,11.9599443 5.97997213,11.9599443 C6.34540767,11.9599443 6.64440418,11.6609477 6.64440418,11.2955122 L6.64440418,6.64440418 L11.2955122,6.64440418 C11.6609477,6.64440418 11.9599443,6.34540767 11.9599443,5.97997213 C11.9599443,5.61319861 11.6609477,5.31554007 11.2955122,5.31554007 Z" id="icon/plus/white"></path>
                        </g>
                    </g>
                </g>
            </g>
        </g>
    </g>
</svg>