<?xml version="1.0" encoding="utf-8"?>
<!-- Generator: Adobe Illustrator 21.1.0, SVG Export Plug-In . SVG Version: 6.00 Build 0)  -->
<svg version="1.1" id="Layer_1" xmlns="http://www.w3.org/2000/svg" xmlns:xlink="http://www.w3.org/1999/xlink" x="0px" y="0px"
	 viewBox="0 0 56.7 56.7" style="enable-background:new 0 0 56.7 56.7;" xml:space="preserve">
<style type="text/css">
	.st0{fill:#FFFFFF;}
</style>
<path class="st0" d="M39.3,10.8c3.6,0,6.5,2.9,6.5,6.5v21.9c0,3.6-2.9,6.5-6.5,6.5H17.4c-3.6,0-6.5-2.9-6.5-6.5V17.3
	c0-3.6,2.9-6.5,6.5-6.5L39.3,10.8 M39.3,9.8H17.4c-4.2,0-7.6,3.4-7.6,7.6v21.9c0,4.2,3.4,7.6,7.6,7.6h21.9c4.2,0,7.6-3.4,7.6-7.6
	V17.4C46.9,13.2,43.5,9.8,39.3,9.8L39.3,9.8z"/>
<path class="st0" d="M36.9,13.6H19.8c-3.4,0-6.2,2.8-6.2,6.2v17.1c0,3.4,2.8,6.2,6.2,6.2h17.1c3.4,0,6.2-2.8,6.2-6.2V19.8
	C43.2,16.4,40.4,13.6,36.9,13.6z M24.2,35.3c-0.4,0.4-0.9,0.6-1.4,0.6c-0.6,0-1.1-0.2-1.4-0.6c-0.4-0.4-0.6-0.9-0.6-1.4
	c0-0.6,0.2-1.1,0.6-1.4c0.4-0.4,0.9-0.6,1.4-0.6c0.6,0,1.1,0.2,1.4,0.6c0.4,0.4,0.6,0.9,0.6,1.4C24.8,34.5,24.6,35,24.2,35.3z
	 M27.9,35.9L27.9,35.9c0-1.9-0.7-3.7-2.1-5c-1.3-1.3-3.1-2.1-5-2.1v-2.9c2.8,0,5.3,1.1,7.1,2.9s2.9,4.3,2.9,7.1H27.9z M33,35.9
	c0-6.8-5.5-12.3-12.2-12.3v-2.9c4.2,0,8,1.7,10.7,4.4s4.4,6.5,4.4,10.7L33,35.9L33,35.9z"/>
</svg>
