<?xml version="1.0" encoding="utf-8"?>
<!-- Generator: Adobe Illustrator 21.1.0, SVG Export Plug-In . SVG Version: 6.00 Build 0)  -->
<svg version="1.1" id="Layer_1" xmlns="http://www.w3.org/2000/svg" xmlns:xlink="http://www.w3.org/1999/xlink" x="0px" y="0px"
	 viewBox="0 0 28.3 28.3" style="enable-background:new 0 0 28.3 28.3;" xml:space="preserve">
<style type="text/css">
	.st0{fill:#FFFFFF;stroke:#FFFFFF;stroke-miterlimit:10;}
</style>
<g>
	<path class="st0" d="M19,12.6c0-2.9-1.8-5.7-4.8-6.7c-3.7-1.3-7.8,0.7-9,4.4c-0.3,0.8-0.4,1.6-0.4,2.3c0,2.9,1.8,5.7,4.8,6.7
		c3.7,1.3,7.8-0.7,9-4.4C18.9,14.1,19,13.3,19,12.6z M16.8,14.2c-0.5,1.3-1.4,2.4-2.6,3s-2.7,0.7-4,0.2c-2.1-0.7-3.5-2.7-3.5-4.9
		c0-0.6,0.1-1.1,0.3-1.7l0,0c0.5-1.3,1.4-2.4,2.6-3c1.2-0.6,2.7-0.7,4-0.2c2.1,0.7,3.5,2.7,3.5,4.9C17.1,13.1,17,13.7,16.8,14.2z"/>
	<rect x="19.3" y="16.6" transform="matrix(0.6561 -0.7547 0.7547 0.6561 -7.9918 22.1844)" class="st0" width="2.1" height="6.6"/>
</g>
</svg>
