<?xml version="1.0" encoding="UTF-8"?>
<svg width="18px" height="18px" viewBox="0 0 18 18" version="1.1" xmlns="http://www.w3.org/2000/svg" xmlns:xlink="http://www.w3.org/1999/xlink">
    <!-- Generator: sketchtool 49.1 (51147) - http://www.bohemiancoding.com/sketch -->
    <title>1D3F90AF-869D-454B-8AB8-7B5DB326BAE0-618-00000D58A1335EA3</title>
    <desc>Created with sketchtool.</desc>
    <defs></defs>
    <g id="2)-Dashboard" stroke="none" stroke-width="1" fill="none" fill-rule="evenodd">
        <g id="1366_bounty-reward" transform="translate(-542.000000, -1341.000000)" fill="#B7C3D4" fill-rule="nonzero">
            <g id="box/bounty/follow-us" transform="translate(310.000000, 1071.000000)">
                <g id="Group-6" transform="translate(30.000000, 253.000000)">
                    <g id="social_instagram" transform="translate(202.000000, 17.000000)">
                        <path d="M2.29610204,0 L15.5927755,0 C16.8555306,0 17.8886939,0.934897959 17.8886939,2.29591837 L17.8886939,15.5929592 C17.8886939,16.9539796 16.8555306,17.8888776 15.5927755,17.8888776 L2.29610204,17.8888776 C1.03297959,17.8888776 0,16.9539796 0,15.5929592 L0,2.29591837 C0,0.934897959 1.03297959,0 2.29610204,0 Z M13.0312653,1.98753061 C12.5882449,1.98753061 12.2262245,2.34973469 12.2262245,2.79293878 L12.2262245,4.72059184 C12.2262245,5.16361224 12.5882449,5.526 13.0312653,5.526 L15.0531429,5.526 C15.4961633,5.526 15.858551,5.16361224 15.858551,4.72059184 L15.858551,2.79293878 C15.858551,2.34973469 15.4961633,1.98753061 15.0531429,1.98753061 L13.0312653,1.98753061 Z M15.867,7.56514286 L14.292551,7.56514286 C14.4415102,8.0515102 14.5221429,8.56671429 14.5221429,9.09973469 C14.5221429,12.0752449 12.0322653,14.4872449 8.96142857,14.4872449 C5.89077551,14.4872449 3.40126531,12.0752449 3.40126531,9.09973469 C3.40126531,8.56634694 3.48171429,8.05132653 3.63085714,7.56514286 L1.98789796,7.56514286 L1.98789796,15.1216531 C1.98789796,15.5126939 2.30785714,15.8328367 2.69908163,15.8328367 L15.1561837,15.8328367 C15.5474082,15.8328367 15.8673673,15.5128776 15.8673673,15.1216531 L15.8673673,7.56514286 L15.867,7.56514286 Z M8.9612449,5.42442857 C6.97720408,5.42442857 5.36859184,6.98289796 5.36859184,8.90559184 C5.36859184,10.8282857 6.97720408,12.3867551 8.9612449,12.3867551 C10.9454694,12.3867551 12.5542653,10.8282857 12.5542653,8.90559184 C12.5542653,6.98289796 10.9456531,5.42442857 8.9612449,5.42442857 Z" id="Shape"></path>
                    </g>
                </g>
            </g>
        </g>
    </g>
</svg>