<?xml version="1.0" encoding="utf-8"?>
<!-- Generator: Adobe Illustrator 21.1.0, SVG Export Plug-In . SVG Version: 6.00 Build 0)  -->
<svg version="1.1" id="Layer_1" xmlns="http://www.w3.org/2000/svg" xmlns:xlink="http://www.w3.org/1999/xlink" x="0px" y="0px"
	 viewBox="0 0 198.4 113.4" style="enable-background:new 0 0 198.4 113.4;" xml:space="preserve">
<style type="text/css">
	.st0{fill:#FFFFFF;}
</style>
<g>
	<g>
		<g>
			<path class="st0" d="M16.8,107.6h-4v-11H9.4v-3.4h10.8v3.3h-3.4L16.8,107.6L16.8,107.6z"/>
			<path class="st0" d="M29.5,107.6l-2.1-4.4h-1.7v4.4h-4V93.2h6.4c1.9,0,3.2,0.4,4,1.2c0.8,0.8,1.2,2.1,1.2,4c0,1-0.1,1.9-0.4,2.6
				c-0.3,0.7-0.8,1.2-1.4,1.6l2.4,5L29.5,107.6L29.5,107.6z M25.8,100.2h2.3c0.4,0,0.7-0.1,0.8-0.2s0.2-0.4,0.2-0.8v-1.7
				c0-0.4-0.1-0.6-0.2-0.8c-0.2-0.1-0.4-0.2-0.8-0.2h-2.3V100.2z"/>
			<path class="st0" d="M43.8,105.1h-4.5l-0.7,2.5h-4l3.8-14.4h6.3l3.8,14.4h-4L43.8,105.1z M43,102.1l-1.3-5h-0.2l-1.3,5H43z"/>
			<path class="st0" d="M56.2,93.2c1.8,0,3.1,0.2,4,0.6s1.6,1.1,1.9,2.1c0.4,1,0.6,2.5,0.6,4.4s-0.2,3.4-0.6,4.4s-1,1.7-1.9,2.1
				s-2.3,0.6-4,0.6h-6.1V93.2H56.2z M54.1,104.4h2.4c0.7,0,1.1-0.1,1.4-0.3c0.3-0.2,0.4-0.6,0.4-1.2v-5c0-0.6-0.1-1-0.4-1.2
				s-0.7-0.3-1.4-0.3h-2.4V104.4z"/>
			<path class="st0" d="M69,93.2v14.4h-4V93.2H69z"/>
			<path class="st0" d="M71.9,93.2h4l3.7,6c0.2,0.4,0.4,0.6,0.4,0.9c0.1,0.2,0.1,0.5,0.1,0.7h0.1v-7.6h4v14.4h-4l-3.7-6
				c-0.2-0.4-0.4-0.7-0.4-0.9c-0.1-0.2-0.1-0.5-0.1-0.7h-0.1v7.6h-4V93.2z"/>
			<path class="st0" d="M98.2,99.1v7.8c-0.8,0.4-1.6,0.6-2.5,0.8c-0.9,0.2-2,0.2-3.2,0.2c-1.6,0-2.8-0.2-3.6-0.6s-1.4-1.2-1.7-2.2
				c-0.3-1.1-0.5-2.6-0.5-4.6s0.2-3.5,0.6-4.6c0.4-1.1,1-1.8,1.9-2.3c0.9-0.4,2.2-0.7,4-0.7c0.8,0,1.6,0.1,2.4,0.2s1.5,0.3,1.9,0.4
				L97,96.7c-0.6-0.1-1.2-0.2-1.9-0.3s-1.3-0.1-1.8-0.1c-0.9,0-1.5,0.1-1.8,0.3c-0.3,0.2-0.5,0.7-0.5,1.3v6.8h3.4v-2.6H93v-3
				L98.2,99.1L98.2,99.1z"/>
			<path class="st0" d="M109.8,104.5c0.8,0,1.5,0,2-0.1v-2l-2.1-0.2c-1.2-0.1-2.2-0.3-2.9-0.6s-1.2-0.8-1.5-1.4s-0.5-1.4-0.5-2.4
				c0-1.2,0.2-2.2,0.5-2.9s0.9-1.2,1.7-1.6c0.8-0.3,1.8-0.5,3.2-0.5c1.8,0,3.5,0.2,5.2,0.6l-0.5,3.2c-0.8-0.2-1.5-0.3-2-0.3
				c-0.6-0.1-1.2-0.1-1.8-0.1c-0.8,0-1.4,0-1.9,0.1v2l1.9,0.2c1.8,0.2,3.2,0.6,4,1.3c0.8,0.7,1.2,1.8,1.2,3.3c0,1.7-0.5,2.9-1.4,3.6
				c-0.9,0.8-2.4,1.1-4.5,1.1c-2,0-3.9-0.3-5.7-0.8l0.6-3.3C106.7,104.3,108.2,104.5,109.8,104.5z"/>
			<path class="st0" d="M122.3,93.2v14.4h-4V93.2H122.3z"/>
			<path class="st0" d="M136,99.1v7.8c-0.8,0.4-1.6,0.6-2.5,0.8c-0.9,0.2-2,0.2-3.2,0.2c-1.6,0-2.8-0.2-3.6-0.6s-1.4-1.2-1.7-2.2
				c-0.3-1.1-0.5-2.6-0.5-4.6s0.2-3.5,0.6-4.6s1-1.8,1.9-2.3c0.9-0.4,2.2-0.7,4-0.7c0.8,0,1.6,0.1,2.4,0.2s1.5,0.3,1.9,0.4l-0.5,3.2
				c-0.6-0.1-1.2-0.2-1.9-0.3s-1.3-0.1-1.8-0.1c-0.9,0-1.5,0.1-1.8,0.3c-0.3,0.2-0.5,0.7-0.5,1.3v6.8h3.4v-2.6h-1.4v-3L136,99.1
				L136,99.1z"/>
			<path class="st0" d="M138.3,93.2h4l3.7,6c0.2,0.4,0.4,0.6,0.4,0.9c0.1,0.2,0.1,0.5,0.1,0.7h0.1v-7.6h4v14.4h-4l-3.7-6
				c-0.2-0.4-0.4-0.7-0.4-0.9c-0.1-0.2-0.1-0.5-0.1-0.7h-0.1v7.6h-4V93.2z"/>
			<path class="st0" d="M161.7,105.1h-4.5l-0.7,2.5h-4l3.8-14.4h6.3l3.8,14.4h-4L161.7,105.1z M160.9,102.1l-1.3-5h-0.2l-1.3,5
				H160.9z"/>
			<path class="st0" d="M167.9,93.2h4v11h4.6v3.3h-8.6V93.2z"/>
			<path class="st0" d="M182.6,104.5c0.8,0,1.5,0,2-0.1v-2l-2.1-0.2c-1.2-0.1-2.2-0.3-2.9-0.6c-0.7-0.3-1.2-0.8-1.5-1.4
				s-0.5-1.4-0.5-2.4c0-1.2,0.2-2.2,0.5-2.9c0.3-0.7,0.9-1.2,1.7-1.6s1.8-0.5,3.2-0.5c1.8,0,3.5,0.2,5.2,0.6l-0.5,3.2
				c-0.8-0.2-1.5-0.3-2-0.3c-0.6-0.1-1.2-0.1-1.8-0.1c-0.8,0-1.4,0-1.9,0.1v2l1.9,0.2c1.8,0.2,3.2,0.6,4,1.3
				c0.8,0.7,1.2,1.8,1.2,3.3c0,1.7-0.5,2.9-1.4,3.6s-2.4,1.1-4.5,1.1c-2,0-3.9-0.3-5.7-0.8l0.6-3.3
				C179.4,104.3,181,104.5,182.6,104.5z"/>
		</g>
	</g>
	<g>
		<g>
			<polygon class="st0" points="77.5,70.1 81.6,70.1 81.6,66 			"/>
			<path class="st0" d="M81.6,71.4h-4.5c1.3,1.8,2.8,3.4,4.5,4.8V71.4L81.6,71.4z"/>
			<path class="st0" d="M87.9,80.1v-2.4h-4.3C85,78.6,86.4,79.4,87.9,80.1L87.9,80.1z"/>
			<polygon class="st0" points="82.9,76.4 87.9,76.4 87.9,71.4 82.9,71.4 			"/>
			<polygon class="st0" points="82.9,70.1 87.9,70.1 87.9,65.1 82.9,65.1 			"/>
			<path class="st0" d="M83.8,63.8h4.1v-3.1c-0.1,0-0.2,0-0.3,0c-0.2,0-0.5,0-0.7,0L83.8,63.8L83.8,63.8z"/>
			<path class="st0" d="M89.2,65.1v5h5v-2.3c-1.7-0.2-3.2-1.2-4-2.7H89.2L89.2,65.1z"/>
			<polygon class="st0" points="94.2,71.4 89.2,71.4 89.2,76.4 94.2,76.4 			"/>
			<path class="st0" d="M94.2,77.7h-5v3c1.6,0.6,3.3,1.1,5,1.4V77.7L94.2,77.7z"/>
			<path class="st0" d="M100.5,82.4v-4.8h-5v4.6c1.2,0.2,2.3,0.2,3.5,0.2C99.5,82.5,100,82.5,100.5,82.4L100.5,82.4z"/>
			<polygon class="st0" points="95.5,76.4 100.5,76.4 100.5,71.4 95.5,71.4 			"/>
			<path class="st0" d="M95.5,70.1h5v-5h-1.2c-0.7,1.4-2.1,2.4-3.8,2.7V70.1L95.5,70.1z"/>
			<polygon class="st0" points="101.8,63.8 106.8,63.8 106.8,58.8 103,58.8 101.8,60 			"/>
			<polygon class="st0" points="106.8,65.1 101.8,65.1 101.8,70.1 106.8,70.1 			"/>
			<polygon class="st0" points="106.8,71.4 101.8,71.4 101.8,76.4 106.8,76.4 			"/>
			<path class="st0" d="M106.8,77.7h-5v4.7c1.7-0.2,3.4-0.5,5-1V77.7L106.8,77.7z"/>
			<path class="st0" d="M113,78.6v-0.9h-5V81C109.8,80.3,111.5,79.5,113,78.6L113,78.6z"/>
			<polygon class="st0" points="108.1,76.4 113,76.4 113,71.4 108.1,71.4 			"/>
			<polygon class="st0" points="108.1,70.1 113,70.1 113,65.1 108.1,65.1 			"/>
			<polygon class="st0" points="108.1,63.8 113,63.8 113,58.8 108.1,58.8 			"/>
			<polygon class="st0" points="108.1,57.6 113,57.6 113,52.6 109.2,52.6 108.1,53.7 			"/>
			<path class="st0" d="M114.3,51.3h5V49l-2.5-2.5c-0.2,0-0.5,0.1-0.7,0.1s-0.5,0-0.7-0.1l-1,1v3.8H114.3z"/>
			<polygon class="st0" points="119.3,52.6 114.3,52.6 114.3,57.6 119.3,57.6 			"/>
			<polygon class="st0" points="113,51.3 113,48.8 110.5,51.3 			"/>
			<polygon class="st0" points="106.8,57.6 106.8,55 104.3,57.6 			"/>
			<path class="st0" d="M120.6,52.6v5h5.4c0.1-0.6,0.1-1.2,0.1-1.8l-3.2-3.2H120.6L120.6,52.6z"/>
			<path class="st0" d="M125.9,58.8h-5.3v5h4.2C125.3,62.2,125.7,60.6,125.9,58.8L125.9,58.8z"/>
			<polygon class="st0" points="119.3,63.8 119.3,58.8 114.3,58.8 114.3,63.8 			"/>
			<polygon class="st0" points="119.3,65.1 114.3,65.1 114.3,70.1 119.3,70.1 			"/>
			<path class="st0" d="M120.6,65.1v5h1.2c1-1.6,1.9-3.2,2.5-5H120.6L120.6,65.1z"/>
			<path class="st0" d="M120.9,71.4h-0.3v0.3C120.7,71.6,120.8,71.5,120.9,71.4L120.9,71.4z"/>
			<path class="st0" d="M119.3,73.3v-1.9h-5v5h1.8C117.3,75.5,118.4,74.4,119.3,73.3L119.3,73.3z"/>
			<polygon class="st0" points="114.4,77.7 114.3,77.7 114.3,77.7 			"/>
			<path class="st0" d="M74.8,64.4l10.5-10.5c-0.2-0.4-0.4-0.9-0.4-1.4c0-1.5,1.2-2.7,2.7-2.7s2.7,1.2,2.7,2.7c0,0.5-0.1,1-0.4,1.4
				l3.4,3.4c0.4-0.2,0.9-0.4,1.4-0.4s1,0.1,1.4,0.4l17.7-17.7c-0.2-0.4-0.4-0.9-0.4-1.4c0-1.5,1.2-2.7,2.7-2.7s2.7,1.2,2.7,2.7
				c0,0.5-0.1,1-0.4,1.4l7.2,7.2c0.1,0.7,0.3,1.4,0.3,2.2l-8.5-8.5c-0.4,0.2-0.9,0.4-1.4,0.4s-1-0.1-1.4-0.4L96.9,58.2
				c0.2,0.4,0.4,0.9,0.4,1.4c0,1.5-1.2,2.7-2.7,2.7s-2.7-1.2-2.7-2.7c0-0.5,0.1-1,0.4-1.4l-3.4-3.4c-0.4,0.2-0.9,0.4-1.4,0.4
				s-1-0.1-1.4-0.4L75.3,65.6C75.2,65.2,75,64.8,74.8,64.4L74.8,64.4z"/>
		</g>
		<g>
			<path class="st0" d="M82.6,24.6v-4.2c-12,6.1-20.2,18.5-20.2,32.9c0,6.3,1.6,12.3,4.4,17.5c0.5,0.9,1.6,1.2,2.5,0.7
				s1.2-1.6,0.7-2.5c-2.5-4.7-4-10.1-4-15.8c0-9.2,3.7-17.5,9.7-23.5C77.9,27.8,80.1,26.1,82.6,24.6z"/>
			<path class="st0" d="M118.3,21.7v4.4c1.6,1.1,3.1,2.4,4.5,3.8c6,6,9.7,14.3,9.7,23.5c0,5.7-1.4,11.1-4,15.8
				c-0.5,0.9-0.1,2,0.7,2.5c0.3,0.1,0.6,0.2,0.9,0.2c0.7,0,1.3-0.3,1.6-1c2.8-5.2,4.4-11.2,4.4-17.5C136.2,39.9,129,28.2,118.3,21.7
				z"/>
		</g>
		<g>
			<path class="st0" d="M98.9,16.9l1.9-11.5L77.1,15.5l11.4,5l0,0v3.4c4.2-2.4,8.3-3.7,12.3-3.7l0,0v-3.4h-1.9V16.9z"/>
			<path class="st0" d="M124.5,15.5L100.8,5.4l1.9,11.5h-2v3.4c4.2-0.1,8.3,1.2,12.3,3.7v-3.9l0,0l0,0L124.5,15.5z"/>
		</g>
	</g>
</g>
</svg>
