<!-- Generated by IcoMoon.io -->
<svg version="1.1" xmlns="http://www.w3.org/2000/svg" width="896" height="1024" viewBox="0 0 896 1024">
<title></title>
<g id="icomoon-ignore">
</g>
<path d="M810.11 100.452h-243.766v-48.666c0.002-28.554-23.23-51.786-51.784-51.786h-165.12c-28.554 0-51.786 23.232-51.786 51.786v48.666h-243.766c-28.656 0-51.968 23.312-51.968 51.968v56.038c0 28.656 23.312 51.968 51.968 51.968h27.914l27.958 676.822c2.008 48.648 41.724 86.752 90.41 86.752h463.658c48.688 0 88.402-38.106 90.408-86.754 19.223-449.788 28.834-677.106 28.834-681.954 0-5.773-47.068-32.344-50.642 0-1.025 9.281-11.066 235.885-30.121 679.812-0.856 20.706-17.756 36.924-38.482 36.924h-463.656c-20.724 0-37.626-16.22-38.484-36.924l-27.866-674.68h676.292c28.656 0 51.968-23.312 51.968-51.968v-56.036c-0.002-28.656-23.312-51.968-51.97-51.968zM349.626 51.974h164.744v48.478h-164.744v-48.478zM53.888 208.458v-56.032l756.216-0.006 0.036 56.030c0 0-252.084 0.003-756.252 0.008z"></path>
<path d="M291.107 453.122c-1.043-14.125-13.189-24.78-27.266-24.042-0.184 0.010-0.373 0.020-0.561 0.035-14.312 1.054-25.061 13.512-24.007 27.825l24.258 329.115c1.043 14.125 13.189 24.78 27.268 24.042 0.184-0.010 0.373-0.020 0.561-0.035 14.312-1.054 25.061-13.512 24.007-27.827l-24.26-329.113z"></path>
<path d="M431.994 428.636c-14.35 0-25.986 11.634-25.986 25.986v329.932c0 14.352 11.636 25.986 25.986 25.986s25.986-11.634 25.986-25.986v-329.932c0-14.352-11.636-25.986-25.986-25.986z"></path>
<path d="M600.712 429.116c-14.186-1.066-26.77 9.692-27.827 24.007l-24.258 329.113c-1.055 14.314 9.696 26.772 24.007 27.827 0.187 0.016 0.373 0.026 0.561 0.035 14.077 0.738 26.225-9.917 27.268-24.042l24.258-329.115c1.054-14.312-9.696-26.77-24.009-27.825z"></path>
</svg>
