<?xml version="1.0" encoding="utf-8"?>
<!-- Generator: Adobe Illustrator 21.1.0, SVG Export Plug-In . SVG Version: 6.00 Build 0)  -->
<svg version="1.1" id="Layer_1" xmlns="http://www.w3.org/2000/svg" xmlns:xlink="http://www.w3.org/1999/xlink" x="0px" y="0px"
	 viewBox="0 0 56.7 56.7" style="enable-background:new 0 0 56.7 56.7;" xml:space="preserve">
<style type="text/css">
	.st0{fill:#FFFFFF;}
</style>
<path class="st0" d="M39.3,10.8c3.6,0,6.5,2.9,6.5,6.5v21.9c0,3.6-2.9,6.5-6.5,6.5H17.4c-3.6,0-6.5-2.9-6.5-6.5V17.3
	c0-3.6,2.9-6.5,6.5-6.5L39.3,10.8 M39.3,9.8H17.4c-4.2,0-7.6,3.4-7.6,7.6v21.9c0,4.2,3.4,7.6,7.6,7.6h21.9c4.2,0,7.6-3.4,7.6-7.6
	V17.4C46.9,13.2,43.5,9.8,39.3,9.8L39.3,9.8z"/>
<path class="st0" d="M36.9,13.6H19.8c-3.4,0-6.2,2.8-6.2,6.2v17.1c0,3.4,2.8,6.2,6.2,6.2h17.1c3.4,0,6.2-2.8,6.2-6.2V19.8
	C43.2,16.4,40.3,13.6,36.9,13.6z M37.6,24.2c-0.4,0.5-0.8,0.9-1.3,1.2l-0.1,0.1c0,0.5,0,1-0.1,1.5c-0.1,1.1-0.4,2.1-0.9,3.1
	s-1.1,1.9-1.9,2.7c-1.3,1.4-2.9,2.2-4.8,2.7c-0.6,0.1-1.3,0.2-1.9,0.2c-2,0.1-3.8-0.4-5.6-1.5c0,0,0,0-0.1-0.1
	c1.2,0.1,2.4,0,3.5-0.5c0.6-0.2,1.1-0.6,1.6-1c-1.8-0.1-2.9-1.4-3.2-2.4c0.5,0.1,1,0.1,1.5,0l0,0c-1-0.2-1.7-0.7-2.3-1.6
	c-0.3-0.6-0.5-1.2-0.5-1.8c0.5,0.3,1,0.4,1.5,0.4c-0.7-0.5-1.2-1.2-1.4-2.1s-0.1-1.7,0.4-2.5c1.9,2.2,4.3,3.4,7.2,3.6
	c0-0.1,0-0.3-0.1-0.4c-0.1-0.8,0.1-1.6,0.5-2.3c0.6-0.9,1.3-1.4,2.4-1.6c1.2-0.2,2.2,0.1,3,1c0.1,0.1,0.1,0.1,0.2,0.1
	c0.7-0.2,1.4-0.4,2-0.8l0,0l0,0c-0.3,0.8-0.8,1.4-1.5,1.9c0.7-0.1,1.3-0.3,1.9-0.5l0,0C37.9,23.9,37.7,24,37.6,24.2z"/>
</svg>
