<?xml version="1.0" encoding="utf-8"?>
<!-- Generator: Adobe Illustrator 20.1.0, SVG Export Plug-In . SVG Version: 6.00 Build 0)  -->
<svg version="1.1" id="Layer_1" xmlns="http://www.w3.org/2000/svg" xmlns:xlink="http://www.w3.org/1999/xlink" x="0px" y="0px"
	 viewBox="0 0 37.3 37.2" style="enable-background:new 0 0 37.3 37.2;" xml:space="preserve">
<style type="text/css">
	.st0{fill:#FFFFFF;}
</style>
<path class="st0" d="M29.6,1.1c3.6,0,6.5,2.9,6.5,6.5v21.9c0,3.6-2.9,6.5-6.5,6.5H7.7c-3.6,0-6.5-2.9-6.5-6.5V7.5
	C1.2,3.9,4.1,1,7.7,1L29.6,1.1 M29.6,0.1H7.7c-4.2,0-7.6,3.4-7.6,7.6v21.9c0,4.2,3.4,7.6,7.6,7.6h21.9c4.2,0,7.6-3.4,7.6-7.6V7.6
	C37.2,3.4,33.8,0.1,29.6,0.1L29.6,0.1z"/>
<path class="st0" d="M27.2,3.9H10.1c-3.4,0-6.2,2.8-6.2,6.2v17.1c0,3.4,2.8,6.2,6.2,6.2h17.1c3.4,0,6.2-2.8,6.2-6.2V10
	C33.5,6.6,30.6,3.9,27.2,3.9z M27.9,14.5c-0.4,0.5-0.8,0.9-1.3,1.2l-0.1,0.1c0,0.5,0,1-0.1,1.5c-0.1,1.1-0.4,2.1-0.9,3.1
	s-1.1,1.9-1.9,2.7c-1.3,1.4-2.9,2.2-4.8,2.7c-0.6,0.1-1.3,0.2-1.9,0.2c-2,0.1-3.8-0.4-5.6-1.5c0,0,0,0-0.1-0.1
	c1.2,0.1,2.4,0,3.5-0.5c0.6-0.2,1.1-0.6,1.6-1c-1.8-0.1-2.9-1.4-3.2-2.4c0.5,0.1,1,0.1,1.5,0l0,0c-1-0.2-1.7-0.7-2.3-1.6
	c-0.3-0.6-0.5-1.2-0.5-1.8c0.5,0.3,1,0.4,1.5,0.4c-0.7-0.5-1.2-1.2-1.4-2.1s-0.1-1.7,0.4-2.5c1.9,2.2,4.3,3.4,7.2,3.6
	c0-0.1,0-0.3-0.1-0.4c-0.1-0.8,0.1-1.6,0.5-2.3c0.6-0.9,1.3-1.4,2.4-1.6c1.2-0.2,2.2,0.1,3,1c0.1,0.1,0.1,0.1,0.2,0.1
	c0.7-0.2,1.4-0.4,2-0.8l0,0l0,0c-0.3,0.8-0.8,1.4-1.5,1.9c0.7-0.1,1.3-0.3,1.9-0.5l0,0C28.2,14.1,28,14.2,27.9,14.5z"/>
</svg>
