<?xml version="1.0" encoding="UTF-8"?>
<svg width="16px" height="13px" viewBox="0 0 16 13" version="1.1" xmlns="http://www.w3.org/2000/svg" xmlns:xlink="http://www.w3.org/1999/xlink">
    <!-- Generator: sketchtool 49.1 (51147) - http://www.bohemiancoding.com/sketch -->
    <title>DEFFFA1B-ADF8-4559-9A0B-B7A76F0855A9</title>
    <desc>Created with sketchtool.</desc>
    <defs></defs>
    <g id="2)-Dashboard" stroke="none" stroke-width="1" fill="none" fill-rule="evenodd">
        <g id="1366_admin_whitelist" transform="translate(-1256.000000, -447.000000)" fill="#8F95A5">
            <g id="submissions" transform="translate(310.000000, 212.000000)">
                <g id="Group" transform="translate(30.000000, 223.000000)">
                    <path d="M926.285727,18.5607577 L926.285727,23.703621 C926.285727,24.1768359 925.901798,24.5607649 925.428583,24.5607649 L916.857144,24.5607649 C916.383929,24.5607649 916,24.1768359 916,23.703621 L916,18.5607577 C916,18.0875429 916.383929,17.7036139 916.857144,17.7036139 L917.142859,17.7036139 L925.142868,17.7036139 L925.428583,17.7036139 C925.901798,17.7036139 926.285727,18.0875429 926.285727,18.5607577 Z M923.124268,17.6993433 L923.124268,16.0109888 C923.124268,14.3779017 924.094522,12.0026719 927.01001,12.0000025 C929.925498,11.9973331 931.148254,14.1407496 931.148254,16.0167755 C931.148254,16.6468922 930.90745,17.0071613 930.303558,17.0236231 C929.699666,17.0400849 929.442486,16.4822408 929.433838,16.0635096 C929.394583,14.1627138 928.036987,13.7210108 927.01001,13.7210108 C925.983032,13.7210108 924.859253,14.4476343 924.859253,16.0635096 L924.859253,17.6993433 L923.124268,17.6993433 Z" id="icon/unlock"></path>
                </g>
            </g>
        </g>
    </g>
</svg>