<?xml version="1.0" encoding="UTF-8"?>
<svg width="18px" height="20px" viewBox="0 0 18 20" version="1.1" xmlns="http://www.w3.org/2000/svg" xmlns:xlink="http://www.w3.org/1999/xlink">
    <!-- Generator: sketchtool 48.2 (47327) - http://www.bohemiancoding.com/sketch -->
    <title>16B1066D-03B9-4DF5-87B7-6AF6FDD2F08A-2654-000041CAB5EE7FE1</title>
    <desc>Created with sketchtool.</desc>
    <defs></defs>
    <g id="1366_dashboard" stroke="none" stroke-width="1" fill="none" fill-rule="evenodd" transform="translate(-1139.000000, -30.000000)">
        <g id="header" fill-rule="nonzero" stroke="#B7C3D4">
            <g id="user-copy">
                <g transform="translate(1139.000000, 30.000000)">
                    <path d="M8.80986382,0.5 C6.17069651,0.5 4.02394553,2.63419688 4.02394553,5.25500649 C4.02394553,7.8758161 6.17069651,10.010013 8.80986382,10.010013 C11.4490311,10.010013 13.5957821,7.8758161 13.5957821,5.25500649 C13.5957821,2.63419688 11.4490311,0.5 8.80986382,0.5 Z" id="Shape"></path>
                    <path d="M15.0313555,14.2949796 C13.6778399,12.9287001 11.8871444,12.1777922 9.98451233,12.1777922 L7.63521531,12.1777922 C5.73260762,12.1777922 3.94187723,12.9287107 2.58837109,14.2949806 C1.42227675,15.4720645 0.868293178,17.0436422 0.868293178,18.9452985 C0.868293178,19.2406688 1.04305624,19.4300987 1.18591309,19.4300987 L16.7286377,19.4300987 C16.8727216,19.4300987 16.9066664,19.3771479 16.9066664,18.9992815 C16.9066664,17.1790268 16.2633581,15.5385929 15.0313565,14.2949806 Z" id="Shape"></path>
                </g>
            </g>
        </g>
    </g>
</svg>