<?xml version="1.0" encoding="UTF-8"?>
<svg width="16px" height="25px" viewBox="0 0 16 25" version="1.1" xmlns="http://www.w3.org/2000/svg" xmlns:xlink="http://www.w3.org/1999/xlink">
    <!-- Generator: sketchtool 49.1 (51147) - http://www.bohemiancoding.com/sketch -->
    <title>7A6C46C0-31AC-4FCA-BBAC-BA0EA724F9DA-740-00001457051F8206</title>
    <desc>Created with sketchtool.</desc>
    <defs></defs>
    <g id="2)-Dashboard" stroke="none" stroke-width="1" fill="none" fill-rule="evenodd">
        <g id="1366_admin_verification" transform="translate(-29.000000, -188.000000)" fill="#FFFFFF" fill-rule="nonzero">
            <g id="vertical-menu" transform="translate(0.000000, 80.000000)">
                <g id="menu-item/verification/white" transform="translate(0.000000, 93.982301)">
                    <g id="icon_verification_white">
                        <g transform="translate(29.000000, 14.911859)">
                            <path d="M15.054902,4.73253108 C14.7745098,4.3879293 14.3215686,4.15819478 13.8254902,4.15819478 L11.6686275,4.15819478 L11.6686275,3.53791158 C11.6686275,3.28520361 11.5823529,3.0554691 11.4098039,2.89465493 C11.2588235,2.73384077 11.0431373,2.61897351 10.8058824,2.61897351 L9.98627451,2.61897351 C9.98627451,2.5270797 10.0078431,2.4351859 10.0078431,2.34329209 C10.0078431,1.70003544 9.77058824,1.12569914 9.36078431,0.689203555 C8.97254902,0.275681422 8.41176471,0 7.82941176,0 C7.24705882,0 6.72941176,0.25270797 6.31960784,0.643256652 C6.29803922,0.666230104 6.29803922,0.666230104 6.27647059,0.689203555 C5.88823529,1.10272569 5.62941176,1.70003544 5.62941176,2.34329209 C5.62941176,2.4351859 5.62941176,2.5270797 5.65098039,2.61897351 L4.83137255,2.61897351 C4.59411765,2.61897351 4.37843137,2.71086732 4.22745098,2.89465493 C4.07647059,3.0554691 3.96862745,3.28520361 3.96862745,3.53791158 L3.96862745,4.15819478 L1.81176471,4.15819478 C1.31568627,4.15819478 0.884313725,4.36495585 0.560784314,4.70955763 C0.237254902,5.05415941 0.0431372549,5.53660189 0.0431372549,6.04201784 L0.0431372549,21.5261244 C0.0431372549,22.0545138 0.237254902,22.5139828 0.560784314,22.8585846 C0.884313725,23.2031864 1.3372549,23.4099474 1.81176471,23.4099474 L13.8039216,23.4099474 C14.3,23.4099474 14.7313725,23.2031864 15.054902,22.8585846 C15.0764706,22.8356111 15.0764706,22.8356111 15.0980392,22.8126377 C15.4,22.4680359 15.572549,22.0085669 15.572549,21.5261244 L15.572549,6.06499129 C15.572549,5.53660189 15.3784314,5.07713286 15.054902,4.73253108 Z M5.28431373,4.8473982 L5.28431373,3.9973805 L6.57843137,3.9973805 C6.94509804,3.9973805 7.2254902,3.69872563 7.2254902,3.30817695 C7.2254902,3.14736279 7.16078431,2.98654863 7.0745098,2.87168138 C7.03137255,2.80276102 7.00980392,2.73384067 6.96666667,2.64194686 C6.94509804,2.55005306 6.92352941,2.45815925 6.92352941,2.343292 C6.92352941,2.09058403 7.03137255,1.83787607 7.18235294,1.67706191 L7.20392157,1.65408845 C7.35490196,1.4932743 7.57058824,1.40138049 7.80784314,1.40138049 C8.04509804,1.40138049 8.28235294,1.51624775 8.43333333,1.67706191 C8.58431373,1.83787607 8.69215686,2.09058403 8.69215686,2.343292 C8.69215686,2.45815925 8.67058824,2.55005306 8.64901961,2.64194686 C8.62745098,2.73384067 8.58431373,2.82573448 8.51960784,2.91762828 C8.30392157,3.21628315 8.36862745,3.65277872 8.67058824,3.88251324 C8.77843137,3.97440704 8.90784314,4.02035395 9.05882353,4.02035395 L10.3529412,4.02035395 L10.3529412,4.8473982 L10.3529412,5.51362829 L5.28431373,5.51362829 L5.28431373,4.8473982 Z M14.3215686,21.5490969 C14.3215686,21.6869376 14.2784314,21.8018048 14.1921569,21.8936986 L14.1705882,21.9166721 C14.0843137,22.0085659 13.954902,22.0774862 13.8254902,22.0774862 L1.83333333,22.0774862 C1.70392157,22.0774862 1.5745098,22.0085659 1.48823529,21.9166721 C1.40196078,21.8247783 1.3372549,21.6869376 1.3372549,21.5490969 L1.3372549,6.06499101 C1.3372549,5.9271503 1.40196078,5.7893096 1.48823529,5.6974158 C1.5745098,5.60552199 1.70392157,5.53660164 1.83333333,5.53660164 L3.99019608,5.53660164 L3.99019608,5.97309721 C3.99019608,6.22580517 4.07647059,6.45553967 4.24901961,6.61635383 C4.4,6.77716799 4.61568627,6.89203524 4.85294118,6.89203524 L10.8058824,6.89203524 C11.0431373,6.89203524 11.2588235,6.80014144 11.4098039,6.61635383 C11.5607843,6.45553967 11.6686275,6.22580517 11.6686275,5.97309721 L11.6686275,5.53660164 L13.8254902,5.53660164 C13.954902,5.53660164 14.0843137,5.60552199 14.1705882,5.6974158 C14.2568627,5.7893096 14.3215686,5.9271503 14.3215686,6.06499101 L14.3215686,21.5490969 Z" id="Shape"></path>
                            <path d="M8.26078431,9.02856689 C8.00196078,8.77585893 7.59215686,8.75288548 7.35490196,9.02856689 L4.8745098,11.6475403 L3.90392157,10.613735 C3.64509804,10.3380536 3.23529412,10.3380536 2.99803922,10.613735 C2.73921569,10.8894164 2.73921569,11.325912 2.99803922,11.5786199 L4.42156863,13.1178412 C4.68039216,13.3935226 5.09019608,13.3935226 5.32745098,13.1178412 L8.26078431,9.99345183 C8.51960784,9.71777042 8.51960784,9.28127486 8.26078431,9.02856689 Z" id="Shape"></path>
                            <path d="M12.2294118,14.4273278 L3.45098039,14.4503013 C3.10588235,14.4503013 2.80392157,14.7489561 2.80392157,15.1395048 C2.80392157,15.50708 3.08431373,15.8287083 3.45098039,15.8287083 L12.2294118,15.8057349 C12.5745098,15.8057349 12.8764706,15.50708 12.8764706,15.1165313 C12.8764706,14.7259827 12.5745098,14.4273278 12.2294118,14.4273278 Z" id="Shape"></path>
                            <path d="M12.2294118,17.3909036 L3.45098039,17.413877 C3.10588235,17.413877 2.80392157,17.7125319 2.80392157,18.1030805 C2.80392157,18.4936292 3.08431373,18.792284 3.45098039,18.792284 L12.2294118,18.7693106 C12.5745098,18.7693106 12.8764706,18.4706557 12.8764706,18.0801071 C12.8764706,17.6895584 12.5745098,17.3909036 12.2294118,17.3909036 Z" id="Shape"></path>
                            <path d="M12.2294118,11.3488846 L8.5627451,11.371858 C8.21764706,11.371858 7.91568627,11.6705129 7.91568627,12.0610615 C7.91568627,12.4286367 8.19607843,12.750265 8.5627451,12.750265 L12.2294118,12.7272916 C12.5745098,12.7272916 12.8764706,12.4286367 12.8764706,12.0380881 C12.8764706,11.6475394 12.5745098,11.3488846 12.2294118,11.3488846 Z" id="Shape"></path>
                        </g>
                    </g>
                </g>
            </g>
        </g>
    </g>
</svg>