<?xml version="1.0" encoding="utf-8"?>
<!-- Generator: Adobe Illustrator 21.1.0, SVG Export Plug-In . SVG Version: 6.00 Build 0)  -->
<svg version="1.1" id="Layer_1" xmlns="http://www.w3.org/2000/svg" xmlns:xlink="http://www.w3.org/1999/xlink" x="0px" y="0px"
	 viewBox="0 0 85 42.5" style="enable-background:new 0 0 85 42.5;" xml:space="preserve">
<style type="text/css">
	.st0{fill:#8C9599;}
	.st1{fill:#8C9599;stroke:#0C153C;stroke-width:2;stroke-miterlimit:10;}
</style>
<g>
	<g>
		<rect x="44.4" y="12.3" class="st0" width="30.3" height="2.7"/>
		<rect x="44.4" y="28.3" class="st0" width="30.3" height="2.7"/>
		<path class="st0" d="M75.7,11.5v-0.3l0,0h-0.3H43.3v0.3l0,0v20.3l0,0v0.3h32.4v-0.3l0,0V11.5L75.7,11.5z M75.4,31.8H43.6V11.6
			h31.8V31.8z"/>
		<path class="st0" d="M56.5,17.9l-3.1,7.4h-2l-1.5-5.9c-0.1-0.4-0.2-0.5-0.5-0.7c-0.5-0.3-1.2-0.5-1.9-0.6v-0.2h3.3
			c0.4,0,0.8,0.3,0.9,0.8l0.8,4.3l2-5.1L56.5,17.9L56.5,17.9z M64.5,22.9c0-2-2.7-2.1-2.7-2.9c0-0.3,0.3-0.6,0.8-0.6
			c0.3,0,1-0.1,1.9,0.3l0.3-1.6c-0.5-0.2-1.1-0.3-1.8-0.3c-1.9,0-3.3,1-3.3,2.5c0,1.1,1,1.7,1.7,2c0.8,0.4,1,0.6,1,0.9
			c0,0.5-0.6,0.7-1.2,0.7c-1,0-1.5-0.3-2-0.5L58.8,25c0.5,0.2,1.3,0.4,2.1,0.4C63.2,25.5,64.5,24.5,64.5,22.9 M69.6,25.4h1.8
			L69.8,18h-1.6c-0.4,0-0.7,0.2-0.8,0.5l-2.9,6.9h2l0.4-1.1h2.5L69.6,25.4z M67.4,22.7l1-2.8l0.6,2.8H67.4z M59.3,17.9l-1.6,7.4
			h-1.9l1.6-7.4C57.4,17.9,59.3,17.9,59.3,17.9z"/>
	</g>
	<g>
		<path id="_Compound_Path_" class="st0" d="M14.1,31.2v-1.4c0-0.4-0.3-0.8-0.7-0.9h-0.1c-0.3,0-0.6,0.1-0.8,0.4
			c-0.2-0.3-0.4-0.4-0.7-0.4s-0.5,0.1-0.7,0.3v-0.3h-0.5v2.2H11v-1.3c0-0.3,0.2-0.6,0.5-0.6h0.1c0.3,0,0.5,0.2,0.5,0.6v1.3h0.4v-1.3
			c0-0.3,0.2-0.6,0.5-0.6h0.1c0.3,0,0.5,0.2,0.5,0.6v1.3L14.1,31.2z M21.3,29h-0.8v-0.7H20V29h-0.5v0.4H20v1c0,0.5,0.2,0.8,0.7,0.8
			c0.2,0,0.4-0.1,0.6-0.2l-0.1-0.4c-0.1,0.1-0.3,0.1-0.4,0.1c-0.2,0-0.3-0.1-0.3-0.4v-1.1h0.8V29z M25.5,28.9
			c-0.2,0-0.5,0.1-0.6,0.3v-0.3h-0.4v2.2h0.4v-1.2c0-0.4,0.2-0.6,0.5-0.6c0.1,0,0.2,0,0.3,0.1l0.1-0.4
			C25.7,28.9,25.6,28.9,25.5,28.9L25.5,28.9z M19.2,29.2C18.9,29,18.6,29,18.3,29c-0.6,0-0.9,0.3-0.9,0.7s0.2,0.6,0.7,0.6h0.2
			c0.3,0,0.4,0.1,0.4,0.3s-0.2,0.3-0.5,0.3s-0.5-0.1-0.7-0.2L17.3,31c0.3,0.2,0.6,0.3,1,0.3c0.6,0,1-0.3,1-0.7S19,30,18.6,30h-0.2
			c-0.2,0-0.4-0.1-0.4-0.2s0.2-0.3,0.4-0.3s0.5,0.1,0.7,0.2L19.2,29.2z M26,30.1c0,0.6,0.4,1.1,1,1.2h0.1c0.3,0,0.6-0.1,0.8-0.3
			l-0.2-0.3c-0.2,0.1-0.4,0.2-0.6,0.2c-0.4,0-0.7-0.4-0.7-0.8s0.3-0.6,0.7-0.7c0.2,0,0.4,0.1,0.6,0.2l0.2-0.3
			c-0.2-0.2-0.5-0.3-0.8-0.3C26.5,29,26,29.4,26,30.1C25.9,30,25.9,30,26,30.1L26,30.1z M22.8,28.9c-0.6,0-1.1,0.5-1.1,1.2
			c0,0.6,0.4,1.1,1,1.2h0.1c0.3,0,0.7-0.1,0.9-0.3l-0.2-0.3c-0.2,0.1-0.4,0.2-0.6,0.2c-0.3,0-0.6-0.2-0.7-0.6h1.7c0-0.1,0-0.1,0-0.2
			C23.9,29.4,23.5,28.9,22.8,28.9L22.8,28.9z M22.8,29.3c0.3,0,0.6,0.2,0.6,0.5l0,0h-1.2C22.3,29.6,22.5,29.3,22.8,29.3L22.8,29.3z
			 M16.8,30.1V29h-0.4v0.3C16.2,29.1,16,29,15.7,29c-0.6,0-1.2,0.5-1.2,1.2c0,0.6,0.5,1.2,1.2,1.2c0.3,0,0.5-0.1,0.7-0.3v0.3h0.4
			V30.1z M15.1,30.1c0-0.4,0.3-0.7,0.6-0.7c0,0,0,0,0.1,0c0.4,0,0.7,0.4,0.7,0.8s-0.3,0.6-0.7,0.7C15.4,30.8,15.1,30.5,15.1,30.1
			C15,30.1,15.1,30.1,15.1,30.1L15.1,30.1z M32.1,28.9c-0.2,0-0.5,0.1-0.6,0.3v-0.3h-0.4v2.2h0.4v-1.2c0-0.4,0.2-0.6,0.5-0.6
			c0.1,0,0.2,0,0.3,0.1l0.1-0.4C32.4,28.9,32.3,28.9,32.1,28.9L32.1,28.9z M35.7,30.9C35.7,30.9,35.8,30.9,35.7,30.9
			c0.1,0,0.1,0,0.2,0.1c0,0,0,0,0,0.1s0,0.1,0,0.2c0,0,0,0,0,0.1c0,0,0,0-0.1,0h-0.1c-0.1,0-0.2-0.1-0.2-0.1c0-0.1,0-0.1,0-0.2
			c0,0,0,0,0-0.1C35.6,30.9,35.6,30.9,35.7,30.9C35.6,30.9,35.7,30.9,35.7,30.9L35.7,30.9z M35.7,31.3
			C35.7,31.3,35.8,31.3,35.7,31.3C35.8,31.3,35.8,31.3,35.7,31.3c0.2-0.2,0.2-0.3,0.1-0.3c0,0,0,0-0.1,0c0,0,0,0-0.1,0
			c0,0,0,0-0.1,0c0,0,0,0-0.1,0c-0.1,0.1-0.1,0.2,0,0.2C35.6,31.2,35.6,31.2,35.7,31.3L35.7,31.3L35.7,31.3z M35.7,31
			C35.7,31,35.8,31,35.7,31C35.8,31,35.8,31,35.7,31C35.8,31.1,35.8,31.1,35.7,31L35.7,31l0.2,0.2h-0.1l-0.1-0.1l0,0v0.1l0,0V31
			L35.7,31z M35.7,31L35.7,31L35.7,31C35.7,31.1,35.7,31.1,35.7,31C35.8,31.1,35.8,31.1,35.7,31C35.8,31.1,35.8,31.1,35.7,31
			L35.7,31L35.7,31z M30.4,30.1V29H30v0.3c-0.2-0.2-0.4-0.3-0.7-0.3c-0.6,0-1.2,0.5-1.2,1.2c0,0.6,0.5,1.2,1.2,1.2
			c0.3,0,0.5-0.1,0.7-0.3v0.3h0.4V30.1z M28.6,30.1c0-0.4,0.3-0.7,0.6-0.7c0,0,0,0,0.1,0c0.4,0,0.7,0.4,0.7,0.8s-0.3,0.6-0.7,0.7
			C29,30.8,28.6,30.5,28.6,30.1L28.6,30.1L28.6,30.1z M34.9,30.1v-2h-0.4v1.2c-0.2-0.2-0.4-0.3-0.7-0.3c-0.6,0-1.2,0.5-1.2,1.2
			c0,0.6,0.5,1.2,1.2,1.2c0.3,0,0.5-0.1,0.7-0.3v0.3h0.4V30.1z M33.1,30.1c0-0.4,0.3-0.7,0.6-0.7c0,0,0,0,0.1,0
			c0.4,0.1,0.7,0.4,0.6,0.9c-0.1,0.3-0.3,0.6-0.6,0.6C33.4,30.8,33.1,30.5,33.1,30.1L33.1,30.1L33.1,30.1z"/>
		<path class="st0" d="M19.1,25.3c0-4.3,0-8.7,0-13c2.4,0,4.8,0,7.3,0c0,0.1,0,0.2,0,0.2c0,4.2,0,8.4,0,12.5c0,0.2-0.1,0.3-0.3,0.3
			c-2.3,0-4.5,0-6.8,0C19.3,25.3,19.2,25.3,19.1,25.3z"/>
		<path class="st0" d="M19.1,25.3c0.1,0,0.2,0,0.2,0c2.3,0,4.5,0,6.8,0c0.2,0,0.3-0.1,0.3-0.3c0-4.2,0-8.4,0-12.5c0-0.1,0-0.2,0-0.2
			s0,0,0-0.1h0.1c0,0.1,0,0.1,0,0.2c0,4.3,0,8.5,0,12.8c0,0.2,0,0.2-0.2,0.2c-2.3,0-4.6,0-7,0C19.3,25.4,19.1,25.4,19.1,25.3z"/>
		<path class="st0" d="M26.4,12.2L26.4,12.2c-2.4,0.1-4.8,0.1-7.3,0.1c0.1-0.1,0.2-0.1,0.2-0.1C21.7,12.2,24.1,12.2,26.4,12.2z"/>
		<path id="_Path_2" class="st1" d="M19.6,18.7c0-2.6,1.2-5,3.2-6.5C19.2,9.4,14,10,11.1,13.6c-2.8,3.6-2.2,8.8,1.4,11.7
			c3,2.4,7.3,2.4,10.3,0C20.7,23.6,19.6,21.2,19.6,18.7z"/>
		<path class="st0" d="M35.4,23.8v-0.3h0.1v-0.1h-0.3v0.1h0.1L35.4,23.8L35.4,23.8z M36,23.8v-0.3h-0.1l-0.1,0.2l-0.1-0.2h-0.1v0.3
			h0.1v-0.2l0.1,0.2h0.1l0.1-0.2L36,23.8L36,23.8z"/>
		<path class="st1" d="M36.2,18.7c0,4.6-3.7,8.3-8.3,8.3c-1.9,0-3.7-0.6-5.1-1.8c3.6-2.8,4.2-8.1,1.4-11.7c-0.4-0.5-0.9-1-1.4-1.4
			c3.6-2.8,8.8-2.2,11.7,1.4C35.6,15,36.2,16.8,36.2,18.7L36.2,18.7z"/>
	</g>
</g>
</svg>
