<?xml version="1.0" encoding="utf-8"?>
<!-- Generator: Adobe Illustrator 17.1.0, SVG Export Plug-In . SVG Version: 6.00 Build 0)  -->
<!DOCTYPE svg PUBLIC "-//W3C//DTD SVG 1.1//EN" "http://www.w3.org/Graphics/SVG/1.1/DTD/svg11.dtd">
<svg version="1.1" id="Layer_1" xmlns="http://www.w3.org/2000/svg" xmlns:xlink="http://www.w3.org/1999/xlink" x="0px" y="0px"
	 viewBox="0 0 30 30" enable-background="new 0 0 30 30" xml:space="preserve">
<path id="_Compound_Path_" fill="#A7A9AC" d="M6.4,26.5v-1.4c0-0.4-0.3-0.8-0.7-0.9c0,0-0.1,0-0.1,0c-0.3,0-0.6,0.1-0.8,0.4
	c-0.2-0.3-0.4-0.4-0.7-0.4c-0.3,0-0.5,0.1-0.7,0.3v-0.3H2.9v2.2h0.4v-1.3c0-0.3,0.2-0.6,0.5-0.6c0,0,0.1,0,0.1,0
	c0.3,0,0.5,0.2,0.5,0.6v1.3h0.4v-1.3c0-0.3,0.2-0.6,0.5-0.6c0,0,0.1,0,0.1,0c0.3,0,0.5,0.2,0.5,0.6v1.3L6.4,26.5z M13.6,24.3h-0.8
	v-0.7h-0.5v0.7h-0.5v0.4h0.5v1c0,0.5,0.2,0.8,0.7,0.8c0.2,0,0.4-0.1,0.6-0.2L13.6,26c-0.1,0.1-0.3,0.1-0.4,0.1
	c-0.2,0-0.3-0.1-0.3-0.4v-1.1h0.8L13.6,24.3z M17.7,24.2c-0.2,0-0.5,0.1-0.6,0.3v-0.3h-0.4v2.2h0.4v-1.2c0-0.4,0.2-0.6,0.5-0.6
	c0.1,0,0.2,0,0.3,0.1l0.1-0.4C18,24.3,17.8,24.2,17.7,24.2L17.7,24.2z M11.5,24.5c-0.3-0.2-0.6-0.2-0.9-0.2c-0.6,0-0.9,0.3-0.9,0.7
	c0,0.4,0.2,0.6,0.7,0.6l0.2,0c0.3,0,0.4,0.1,0.4,0.3c0,0.2-0.2,0.3-0.5,0.3c-0.3,0-0.5-0.1-0.7-0.2l-0.2,0.3c0.3,0.2,0.6,0.3,1,0.3
	c0.6,0,1-0.3,1-0.7c0-0.4-0.3-0.6-0.7-0.6l-0.2,0c-0.2,0-0.4-0.1-0.4-0.2s0.2-0.3,0.4-0.3c0.2,0,0.5,0.1,0.7,0.2L11.5,24.5z
	 M18.2,25.4c0,0.6,0.4,1.1,1,1.2c0,0,0.1,0,0.1,0c0.3,0,0.6-0.1,0.8-0.3l-0.2-0.3c-0.2,0.1-0.4,0.2-0.6,0.2c-0.4,0-0.7-0.4-0.7-0.8
	c0-0.4,0.3-0.6,0.7-0.7c0.2,0,0.4,0.1,0.6,0.2l0.2-0.3c-0.2-0.2-0.5-0.3-0.8-0.3c-0.6,0-1.1,0.4-1.2,1
	C18.2,25.3,18.2,25.3,18.2,25.4L18.2,25.4z M15.1,24.2c-0.6,0-1.1,0.5-1.1,1.2c0,0.6,0.4,1.1,1,1.2c0,0,0.1,0,0.1,0
	c0.3,0,0.7-0.1,0.9-0.3l-0.2-0.3c-0.2,0.1-0.4,0.2-0.6,0.2c-0.3,0-0.6-0.2-0.7-0.6h1.7c0-0.1,0-0.1,0-0.2
	C16.2,24.7,15.7,24.2,15.1,24.2L15.1,24.2z M15.1,24.7c0.3,0,0.6,0.2,0.6,0.5c0,0,0,0,0,0h-1.2C14.5,24.9,14.8,24.6,15.1,24.7
	L15.1,24.7z M9.1,25.4v-1.1H8.7v0.3c-0.2-0.2-0.4-0.3-0.7-0.3c-0.6,0-1.2,0.5-1.2,1.2c0,0.6,0.5,1.2,1.2,1.2c0.3,0,0.5-0.1,0.7-0.3
	v0.3h0.4V25.4z M7.3,25.4c0-0.4,0.3-0.7,0.6-0.7c0,0,0,0,0.1,0c0.4,0,0.7,0.4,0.7,0.8c0,0.4-0.3,0.6-0.7,0.7
	C7.6,26.2,7.3,25.8,7.3,25.4C7.3,25.4,7.3,25.4,7.3,25.4L7.3,25.4z M24.4,24.2c-0.2,0-0.5,0.1-0.6,0.3v-0.3h-0.4v2.2h0.4v-1.2
	c0-0.4,0.2-0.6,0.5-0.6c0.1,0,0.2,0,0.3,0.1l0.1-0.4C24.6,24.3,24.5,24.2,24.4,24.2L24.4,24.2z M28,26.2C28,26.2,28,26.2,28,26.2
	c0.1,0,0.1,0,0.2,0.1c0,0,0,0,0,0.1c0,0.1,0,0.1,0,0.2c0,0,0,0,0,0.1c0,0,0,0-0.1,0c0,0-0.1,0-0.1,0c-0.1,0-0.2-0.1-0.2-0.1
	c0-0.1,0-0.1,0-0.2c0,0,0,0,0-0.1C27.8,26.2,27.9,26.2,28,26.2C27.9,26.2,27.9,26.2,28,26.2L28,26.2z M28,26.6
	C28,26.6,28,26.6,28,26.6c0.1,0,0.1,0,0.1-0.1c0.1-0.1,0.1-0.2,0-0.2c0,0,0,0-0.1,0c0,0,0,0-0.1,0c0,0,0,0-0.1,0c0,0,0,0-0.1,0
	c-0.1,0.1-0.1,0.2,0,0.2C27.9,26.5,27.9,26.6,28,26.6C27.9,26.6,28,26.6,28,26.6L28,26.6z M28,26.3C28,26.3,28,26.3,28,26.3
	C28.1,26.3,28.1,26.4,28,26.3c0.1,0.1,0.1,0.1,0.1,0.1c0,0,0,0,0,0l0.1,0.1H28L28,26.4h0v0.1h0L28,26.3L28,26.3z M27.9,26.3
	L27.9,26.3L27.9,26.3C28,26.4,28,26.4,27.9,26.3C28,26.4,28,26.4,27.9,26.3C28,26.4,28,26.4,27.9,26.3C28,26.4,28,26.4,27.9,26.3
	L27.9,26.3z M22.7,25.4v-1.1h-0.4v0.3c-0.2-0.2-0.4-0.3-0.7-0.3c-0.6,0-1.2,0.5-1.2,1.2c0,0.6,0.5,1.2,1.2,1.2
	c0.3,0,0.5-0.1,0.7-0.3v0.3h0.4V25.4z M20.9,25.4c0-0.4,0.3-0.7,0.6-0.7c0,0,0,0,0.1,0c0.4,0,0.7,0.4,0.7,0.8c0,0.4-0.3,0.6-0.7,0.7
	C21.2,26.2,20.9,25.8,20.9,25.4C20.9,25.4,20.9,25.4,20.9,25.4L20.9,25.4z M27.2,25.4v-2h-0.4v1.2c-0.2-0.2-0.4-0.3-0.7-0.3
	c-0.6,0-1.2,0.5-1.2,1.2c0,0.6,0.5,1.2,1.2,1.2c0.3,0,0.5-0.1,0.7-0.3v0.3h0.4V25.4z M25.4,25.4c0-0.4,0.3-0.7,0.6-0.7
	c0,0,0,0,0.1,0c0.4,0.1,0.7,0.4,0.6,0.9c-0.1,0.3-0.3,0.6-0.6,0.6C25.7,26.1,25.4,25.8,25.4,25.4C25.4,25.4,25.4,25.4,25.4,25.4
	L25.4,25.4z"/>
<path fill="#A7A9AC" d="M13.4,20.5L13.4,20.5c-0.2-0.2-0.3-0.4-0.5-0.6c-0.3-0.3-0.5-0.7-0.7-1c-0.9-1.5-1.4-3.2-1.4-4.9
	c0-2.2,0.8-4.3,2.1-5.9C13,8,13.1,8,13.1,7.9c0.1-0.1,0.2-0.3,0.3-0.4V7.4l0.2-0.2c0.2-0.2,0.3-0.3,0.5-0.5c-3.5-2.1-8.2-1.3-10.8,2
	c-2.8,3.6-2.2,8.8,1.4,11.7c2.7,2.2,6.5,2.3,9.4,0.6C13.9,21,13.6,20.8,13.4,20.5L13.4,20.5z"/>
<path fill="#A7A9AC" d="M10.1,21.3C10.1,21.3,10.1,21.3,10.1,21.3C10.1,21.3,10.1,21.3,10.1,21.3z"/>
<polygon fill="#A7A9AC" points="27.9,19.1 27.9,19.2 27.9,19.2 "/>
<path fill="#A7A9AC" d="M15,7.4c-0.3,0.2-0.5,0.4-0.8,0.7c-1.5,1.5-2.4,3.7-2.4,5.9c0,2.2,0.9,4.3,2.4,5.9c0.2,0.2,0.5,0.5,0.8,0.7
	c0,0,0,0,0,0c0,0,0.1,0,0.1,0c0,0,0,0-0.1,0c0.3-0.2,0.5-0.4,0.8-0.7c2.9-2.9,3.3-7.7,0.6-11c-0.2-0.3-0.4-0.5-0.6-0.7
	C15.5,7.9,15.3,7.7,15,7.4"/>
<path fill="#A7A9AC" d="M26.7,8.8c-2.6-3.3-7.3-4.1-10.8-2c0.3,0.2,0.5,0.4,0.8,0.7c0,0,0,0,0,0C16.8,7.8,17,8,17.2,8.2
	c0.1,0.2,0.3,0.4,0.4,0.6c0.1,0.1,0.1,0.2,0.2,0.3c0.1,0.1,0.2,0.3,0.2,0.4c0.1,0.2,0.2,0.4,0.3,0.6c0,0.1,0.1,0.2,0.1,0.3
	c0.1,0.2,0.1,0.4,0.2,0.6c0,0.1,0.1,0.2,0.1,0.3c0.2,0.6,0.3,1.1,0.4,1.7c0,0.1,0,0.2,0,0.3c0,0.2,0,0.4,0,0.6c0,0.1,0,0.2,0,0.2
	c0,0.3,0,0.5,0,0.8c0,0,0,0,0,0.1c-0.2,1.9-1.1,3.8-2.3,5.3c-0.1,0.1-0.1,0.2-0.2,0.3c0,0,0,0,0,0c-0.2,0.3-0.5,0.5-0.7,0.7
	c1.3,0.8,2.7,1.2,4.2,1.2c4.6,0,8.3-3.7,8.3-8.3C28.5,12.1,27.8,10.3,26.7,8.8z"/>
</svg>
